<?xml version="1.0" encoding="utf-8" standalone="no"?>
<!DOCTYPE svg PUBLIC "-//W3C//DTD SVG 1.1//EN"
  "http://www.w3.org/Graphics/SVG/1.1/DTD/svg11.dtd">
<svg xmlns:xlink="http://www.w3.org/1999/xlink" width="678.028281pt" height="354.992337pt" viewBox="0 0 678.028281 354.992337" xmlns="http://www.w3.org/2000/svg" version="1.1">
 <metadata>
  <rdf:RDF xmlns:dc="http://purl.org/dc/elements/1.1/" xmlns:cc="http://creativecommons.org/ns#" xmlns:rdf="http://www.w3.org/1999/02/22-rdf-syntax-ns#">
   <cc:Work>
    <dc:type rdf:resource="http://purl.org/dc/dcmitype/StillImage"/>
    <dc:date>2026-07-23T11:33:29.753656</dc:date>
    <dc:format>image/svg+xml</dc:format>
    <dc:creator>
     <cc:Agent>
      <dc:title>Matplotlib v3.9.4, https://matplotlib.org/</dc:title>
     </cc:Agent>
    </dc:creator>
   </cc:Work>
  </rdf:RDF>
 </metadata>
 <defs>
  <style type="text/css">*{stroke-linejoin: round; stroke-linecap: butt}</style>
 </defs>
 <g id="figure_1">
  <g id="patch_1">
   <path d="M 0 354.992337 
L 678.028281 354.992337 
L 678.028281 0 
L 0 0 
z
" style="fill: #ffffff"/>
  </g>
  <g id="axes_1">
   <g id="patch_2">
    <path d="M 57.028281 301.495 
L 670.828281 301.495 
L 670.828281 24.295 
L 57.028281 24.295 
z
" style="fill: #ffffff"/>
   </g>
   <g id="patch_3">
    <path d="M 84.928281 301.495 
L 103.684584 301.495 
L 103.684584 76.413919 
L 84.928281 76.413919 
z
" clip-path="url(#pc1fdbac3ed)" style="fill: #1f3a5f"/>
   </g>
   <g id="patch_4">
    <path d="M 108.373659 301.495 
L 127.129962 301.495 
L 127.129962 109.495 
L 108.373659 109.495 
z
" clip-path="url(#pc1fdbac3ed)" style="fill: #1f3a5f"/>
   </g>
   <g id="patch_5">
    <path d="M 131.819038 301.495 
L 150.57534 301.495 
L 150.57534 94.738243 
L 131.819038 94.738243 
z
" clip-path="url(#pc1fdbac3ed)" style="fill: #1f3a5f"/>
   </g>
   <g id="patch_6">
    <path d="M 155.264416 301.495 
L 174.020718 301.495 
L 174.020718 97.008514 
L 155.264416 97.008514 
z
" clip-path="url(#pc1fdbac3ed)" style="fill: #1f3a5f"/>
   </g>
   <g id="patch_7">
    <path d="M 178.709794 301.495 
L 197.466096 301.495 
L 197.466096 76.576081 
L 178.709794 76.576081 
z
" clip-path="url(#pc1fdbac3ed)" style="fill: #1f3a5f"/>
   </g>
   <g id="patch_8">
    <path d="M 202.155172 301.495 
L 220.911475 301.495 
L 220.911475 71.711216 
L 202.155172 71.711216 
z
" clip-path="url(#pc1fdbac3ed)" style="fill: #1f3a5f"/>
   </g>
   <g id="patch_9">
    <path d="M 225.60055 301.495 
L 244.356853 301.495 
L 244.356853 37.495 
L 225.60055 37.495 
z
" clip-path="url(#pc1fdbac3ed)" style="fill: #1f3a5f"/>
   </g>
   <g id="patch_10">
    <path d="M 249.045928 301.495 
L 267.802231 301.495 
L 267.802231 54.522027 
L 249.045928 54.522027 
z
" clip-path="url(#pc1fdbac3ed)" style="fill: #1f3a5f"/>
   </g>
   <g id="patch_11">
    <path d="M 272.491306 301.495 
L 291.247609 301.495 
L 291.247609 89.062568 
L 272.491306 89.062568 
z
" clip-path="url(#pc1fdbac3ed)" style="fill: #1f3a5f"/>
   </g>
   <g id="patch_12">
    <path d="M 295.936685 301.495 
L 314.692987 301.495 
L 314.692987 80.792297 
L 295.936685 80.792297 
z
" clip-path="url(#pc1fdbac3ed)" style="fill: #1f3a5f"/>
   </g>
   <g id="patch_13">
    <path d="M 319.382063 301.495 
L 338.138365 301.495 
L 338.138365 99.76527 
L 319.382063 99.76527 
z
" clip-path="url(#pc1fdbac3ed)" style="fill: #1f3a5f"/>
   </g>
   <g id="patch_14">
    <path d="M 342.827441 301.495 
L 361.583743 301.495 
L 361.583743 61.170676 
L 342.827441 61.170676 
z
" clip-path="url(#pc1fdbac3ed)" style="fill: #1f3a5f"/>
   </g>
   <g id="patch_15">
    <path d="M 366.272819 301.495 
L 385.029122 301.495 
L 385.029122 65.873378 
L 366.272819 65.873378 
z
" clip-path="url(#pc1fdbac3ed)" style="fill: #e8833a"/>
   </g>
   <g id="patch_16">
    <path d="M 389.718197 301.495 
L 408.4745 301.495 
L 408.4745 113.711216 
L 389.718197 113.711216 
z
" clip-path="url(#pc1fdbac3ed)" style="fill: #e8833a"/>
   </g>
   <g id="patch_17">
    <path d="M 413.163575 301.495 
L 431.919878 301.495 
L 431.919878 80.305811 
L 413.163575 80.305811 
z
" clip-path="url(#pc1fdbac3ed)" style="fill: #e8833a"/>
   </g>
   <g id="patch_18">
    <path d="M 436.608954 301.495 
L 455.365256 301.495 
L 455.365256 85.495 
L 436.608954 85.495 
z
" clip-path="url(#pc1fdbac3ed)" style="fill: #e8833a"/>
   </g>
   <g id="patch_19">
    <path d="M 460.054332 301.495 
L 478.810634 301.495 
L 478.810634 72.684189 
L 460.054332 72.684189 
z
" clip-path="url(#pc1fdbac3ed)" style="fill: #e8833a"/>
   </g>
   <g id="patch_20">
    <path d="M 483.49971 301.495 
L 502.256012 301.495 
L 502.256012 60.197703 
L 483.49971 60.197703 
z
" clip-path="url(#pc1fdbac3ed)" style="fill: #e8833a"/>
   </g>
   <g id="patch_21">
    <path d="M 506.945088 301.495 
L 525.70139 301.495 
L 525.70139 43.008514 
L 506.945088 43.008514 
z
" clip-path="url(#pc1fdbac3ed)" style="fill: #e8833a"/>
   </g>
   <g id="patch_22">
    <path d="M 530.390466 301.495 
L 549.146769 301.495 
L 549.146769 41.22473 
L 530.390466 41.22473 
z
" clip-path="url(#pc1fdbac3ed)" style="fill: #e8833a"/>
   </g>
   <g id="patch_23">
    <path d="M 553.835844 301.495 
L 572.592147 301.495 
L 572.592147 82.251757 
L 553.835844 82.251757 
z
" clip-path="url(#pc1fdbac3ed)" style="fill: #e8833a"/>
   </g>
   <g id="patch_24">
    <path d="M 577.281222 301.495 
L 596.037525 301.495 
L 596.037525 73.332838 
L 577.281222 73.332838 
z
" clip-path="url(#pc1fdbac3ed)" style="fill: #e8833a"/>
   </g>
   <g id="patch_25">
    <path d="M 600.726601 301.495 
L 619.482903 301.495 
L 619.482903 110.467973 
L 600.726601 110.467973 
z
" clip-path="url(#pc1fdbac3ed)" style="fill: #e8833a"/>
   </g>
   <g id="patch_26">
    <path d="M 624.171979 301.495 
L 642.928281 301.495 
L 642.928281 57.116622 
L 624.171979 57.116622 
z
" clip-path="url(#pc1fdbac3ed)" style="fill: #e8833a"/>
   </g>
   <g id="matplotlib.axis_1">
    <g id="xtick_1">
     <g id="line2d_1">
      <path d="M 94.306433 301.495 
L 94.306433 24.295 
" clip-path="url(#pc1fdbac3ed)" style="fill: none; stroke: #e8ecf0; stroke-width: 0.8; stroke-linecap: square"/>
     </g>
     <g id="line2d_2">
      <defs>
       <path id="m6b2088daaf" d="M 0 0 
L 0 3.5 
" style="stroke: #000000; stroke-width: 0.8"/>
      </defs>
      <g>
       <use xlink:href="#m6b2088daaf" x="94.306433" y="301.495" style="stroke: #000000; stroke-width: 0.8"/>
      </g>
     </g>
     <g id="text_1">
      <!-- 24-01 -->
      <g transform="translate(74.490649 331.822895) rotate(-45) scale(0.09 -0.09)">
       <defs>
        <path id="DejaVuSans-32" d="M 1228 531 
L 3431 531 
L 3431 0 
L 469 0 
L 469 531 
Q 828 903 1448 1529 
Q 2069 2156 2228 2338 
Q 2531 2678 2651 2914 
Q 2772 3150 2772 3378 
Q 2772 3750 2511 3984 
Q 2250 4219 1831 4219 
Q 1534 4219 1204 4116 
Q 875 4013 500 3803 
L 500 4441 
Q 881 4594 1212 4672 
Q 1544 4750 1819 4750 
Q 2544 4750 2975 4387 
Q 3406 4025 3406 3419 
Q 3406 3131 3298 2873 
Q 3191 2616 2906 2266 
Q 2828 2175 2409 1742 
Q 1991 1309 1228 531 
z
" transform="scale(0.015625)"/>
        <path id="DejaVuSans-34" d="M 2419 4116 
L 825 1625 
L 2419 1625 
L 2419 4116 
z
M 2253 4666 
L 3047 4666 
L 3047 1625 
L 3713 1625 
L 3713 1100 
L 3047 1100 
L 3047 0 
L 2419 0 
L 2419 1100 
L 313 1100 
L 313 1709 
L 2253 4666 
z
" transform="scale(0.015625)"/>
        <path id="DejaVuSans-2d" d="M 313 2009 
L 1997 2009 
L 1997 1497 
L 313 1497 
L 313 2009 
z
" transform="scale(0.015625)"/>
        <path id="DejaVuSans-30" d="M 2034 4250 
Q 1547 4250 1301 3770 
Q 1056 3291 1056 2328 
Q 1056 1369 1301 889 
Q 1547 409 2034 409 
Q 2525 409 2770 889 
Q 3016 1369 3016 2328 
Q 3016 3291 2770 3770 
Q 2525 4250 2034 4250 
z
M 2034 4750 
Q 2819 4750 3233 4129 
Q 3647 3509 3647 2328 
Q 3647 1150 3233 529 
Q 2819 -91 2034 -91 
Q 1250 -91 836 529 
Q 422 1150 422 2328 
Q 422 3509 836 4129 
Q 1250 4750 2034 4750 
z
" transform="scale(0.015625)"/>
        <path id="DejaVuSans-31" d="M 794 531 
L 1825 531 
L 1825 4091 
L 703 3866 
L 703 4441 
L 1819 4666 
L 2450 4666 
L 2450 531 
L 3481 531 
L 3481 0 
L 794 0 
L 794 531 
z
" transform="scale(0.015625)"/>
       </defs>
       <use xlink:href="#DejaVuSans-32"/>
       <use xlink:href="#DejaVuSans-34" x="63.623047"/>
       <use xlink:href="#DejaVuSans-2d" x="127.246094"/>
       <use xlink:href="#DejaVuSans-30" x="163.330078"/>
       <use xlink:href="#DejaVuSans-31" x="226.953125"/>
      </g>
     </g>
    </g>
    <g id="xtick_2">
     <g id="line2d_3">
      <path d="M 117.751811 301.495 
L 117.751811 24.295 
" clip-path="url(#pc1fdbac3ed)" style="fill: none; stroke: #e8ecf0; stroke-width: 0.8; stroke-linecap: square"/>
     </g>
     <g id="line2d_4">
      <g>
       <use xlink:href="#m6b2088daaf" x="117.751811" y="301.495" style="stroke: #000000; stroke-width: 0.8"/>
      </g>
     </g>
     <g id="text_2">
      <!-- 24-02 -->
      <g transform="translate(97.936027 331.822895) rotate(-45) scale(0.09 -0.09)">
       <use xlink:href="#DejaVuSans-32"/>
       <use xlink:href="#DejaVuSans-34" x="63.623047"/>
       <use xlink:href="#DejaVuSans-2d" x="127.246094"/>
       <use xlink:href="#DejaVuSans-30" x="163.330078"/>
       <use xlink:href="#DejaVuSans-32" x="226.953125"/>
      </g>
     </g>
    </g>
    <g id="xtick_3">
     <g id="line2d_5">
      <path d="M 141.197189 301.495 
L 141.197189 24.295 
" clip-path="url(#pc1fdbac3ed)" style="fill: none; stroke: #e8ecf0; stroke-width: 0.8; stroke-linecap: square"/>
     </g>
     <g id="line2d_6">
      <g>
       <use xlink:href="#m6b2088daaf" x="141.197189" y="301.495" style="stroke: #000000; stroke-width: 0.8"/>
      </g>
     </g>
     <g id="text_3">
      <!-- 24-03 -->
      <g transform="translate(121.381405 331.822895) rotate(-45) scale(0.09 -0.09)">
       <defs>
        <path id="DejaVuSans-33" d="M 2597 2516 
Q 3050 2419 3304 2112 
Q 3559 1806 3559 1356 
Q 3559 666 3084 287 
Q 2609 -91 1734 -91 
Q 1441 -91 1130 -33 
Q 819 25 488 141 
L 488 750 
Q 750 597 1062 519 
Q 1375 441 1716 441 
Q 2309 441 2620 675 
Q 2931 909 2931 1356 
Q 2931 1769 2642 2001 
Q 2353 2234 1838 2234 
L 1294 2234 
L 1294 2753 
L 1863 2753 
Q 2328 2753 2575 2939 
Q 2822 3125 2822 3475 
Q 2822 3834 2567 4026 
Q 2313 4219 1838 4219 
Q 1578 4219 1281 4162 
Q 984 4106 628 3988 
L 628 4550 
Q 988 4650 1302 4700 
Q 1616 4750 1894 4750 
Q 2613 4750 3031 4423 
Q 3450 4097 3450 3541 
Q 3450 3153 3228 2886 
Q 3006 2619 2597 2516 
z
" transform="scale(0.015625)"/>
       </defs>
       <use xlink:href="#DejaVuSans-32"/>
       <use xlink:href="#DejaVuSans-34" x="63.623047"/>
       <use xlink:href="#DejaVuSans-2d" x="127.246094"/>
       <use xlink:href="#DejaVuSans-30" x="163.330078"/>
       <use xlink:href="#DejaVuSans-33" x="226.953125"/>
      </g>
     </g>
    </g>
    <g id="xtick_4">
     <g id="line2d_7">
      <path d="M 164.642567 301.495 
L 164.642567 24.295 
" clip-path="url(#pc1fdbac3ed)" style="fill: none; stroke: #e8ecf0; stroke-width: 0.8; stroke-linecap: square"/>
     </g>
     <g id="line2d_8">
      <g>
       <use xlink:href="#m6b2088daaf" x="164.642567" y="301.495" style="stroke: #000000; stroke-width: 0.8"/>
      </g>
     </g>
     <g id="text_4">
      <!-- 24-04 -->
      <g transform="translate(144.826783 331.822895) rotate(-45) scale(0.09 -0.09)">
       <use xlink:href="#DejaVuSans-32"/>
       <use xlink:href="#DejaVuSans-34" x="63.623047"/>
       <use xlink:href="#DejaVuSans-2d" x="127.246094"/>
       <use xlink:href="#DejaVuSans-30" x="163.330078"/>
       <use xlink:href="#DejaVuSans-34" x="226.953125"/>
      </g>
     </g>
    </g>
    <g id="xtick_5">
     <g id="line2d_9">
      <path d="M 188.087945 301.495 
L 188.087945 24.295 
" clip-path="url(#pc1fdbac3ed)" style="fill: none; stroke: #e8ecf0; stroke-width: 0.8; stroke-linecap: square"/>
     </g>
     <g id="line2d_10">
      <g>
       <use xlink:href="#m6b2088daaf" x="188.087945" y="301.495" style="stroke: #000000; stroke-width: 0.8"/>
      </g>
     </g>
     <g id="text_5">
      <!-- 24-05 -->
      <g transform="translate(168.272161 331.822895) rotate(-45) scale(0.09 -0.09)">
       <defs>
        <path id="DejaVuSans-35" d="M 691 4666 
L 3169 4666 
L 3169 4134 
L 1269 4134 
L 1269 2991 
Q 1406 3038 1543 3061 
Q 1681 3084 1819 3084 
Q 2600 3084 3056 2656 
Q 3513 2228 3513 1497 
Q 3513 744 3044 326 
Q 2575 -91 1722 -91 
Q 1428 -91 1123 -41 
Q 819 9 494 109 
L 494 744 
Q 775 591 1075 516 
Q 1375 441 1709 441 
Q 2250 441 2565 725 
Q 2881 1009 2881 1497 
Q 2881 1984 2565 2268 
Q 2250 2553 1709 2553 
Q 1456 2553 1204 2497 
Q 953 2441 691 2322 
L 691 4666 
z
" transform="scale(0.015625)"/>
       </defs>
       <use xlink:href="#DejaVuSans-32"/>
       <use xlink:href="#DejaVuSans-34" x="63.623047"/>
       <use xlink:href="#DejaVuSans-2d" x="127.246094"/>
       <use xlink:href="#DejaVuSans-30" x="163.330078"/>
       <use xlink:href="#DejaVuSans-35" x="226.953125"/>
      </g>
     </g>
    </g>
    <g id="xtick_6">
     <g id="line2d_11">
      <path d="M 211.533323 301.495 
L 211.533323 24.295 
" clip-path="url(#pc1fdbac3ed)" style="fill: none; stroke: #e8ecf0; stroke-width: 0.8; stroke-linecap: square"/>
     </g>
     <g id="line2d_12">
      <g>
       <use xlink:href="#m6b2088daaf" x="211.533323" y="301.495" style="stroke: #000000; stroke-width: 0.8"/>
      </g>
     </g>
     <g id="text_6">
      <!-- 24-06 -->
      <g transform="translate(191.71754 331.822895) rotate(-45) scale(0.09 -0.09)">
       <defs>
        <path id="DejaVuSans-36" d="M 2113 2584 
Q 1688 2584 1439 2293 
Q 1191 2003 1191 1497 
Q 1191 994 1439 701 
Q 1688 409 2113 409 
Q 2538 409 2786 701 
Q 3034 994 3034 1497 
Q 3034 2003 2786 2293 
Q 2538 2584 2113 2584 
z
M 3366 4563 
L 3366 3988 
Q 3128 4100 2886 4159 
Q 2644 4219 2406 4219 
Q 1781 4219 1451 3797 
Q 1122 3375 1075 2522 
Q 1259 2794 1537 2939 
Q 1816 3084 2150 3084 
Q 2853 3084 3261 2657 
Q 3669 2231 3669 1497 
Q 3669 778 3244 343 
Q 2819 -91 2113 -91 
Q 1303 -91 875 529 
Q 447 1150 447 2328 
Q 447 3434 972 4092 
Q 1497 4750 2381 4750 
Q 2619 4750 2861 4703 
Q 3103 4656 3366 4563 
z
" transform="scale(0.015625)"/>
       </defs>
       <use xlink:href="#DejaVuSans-32"/>
       <use xlink:href="#DejaVuSans-34" x="63.623047"/>
       <use xlink:href="#DejaVuSans-2d" x="127.246094"/>
       <use xlink:href="#DejaVuSans-30" x="163.330078"/>
       <use xlink:href="#DejaVuSans-36" x="226.953125"/>
      </g>
     </g>
    </g>
    <g id="xtick_7">
     <g id="line2d_13">
      <path d="M 234.978701 301.495 
L 234.978701 24.295 
" clip-path="url(#pc1fdbac3ed)" style="fill: none; stroke: #e8ecf0; stroke-width: 0.8; stroke-linecap: square"/>
     </g>
     <g id="line2d_14">
      <g>
       <use xlink:href="#m6b2088daaf" x="234.978701" y="301.495" style="stroke: #000000; stroke-width: 0.8"/>
      </g>
     </g>
     <g id="text_7">
      <!-- 24-07 -->
      <g transform="translate(215.162918 331.822895) rotate(-45) scale(0.09 -0.09)">
       <defs>
        <path id="DejaVuSans-37" d="M 525 4666 
L 3525 4666 
L 3525 4397 
L 1831 0 
L 1172 0 
L 2766 4134 
L 525 4134 
L 525 4666 
z
" transform="scale(0.015625)"/>
       </defs>
       <use xlink:href="#DejaVuSans-32"/>
       <use xlink:href="#DejaVuSans-34" x="63.623047"/>
       <use xlink:href="#DejaVuSans-2d" x="127.246094"/>
       <use xlink:href="#DejaVuSans-30" x="163.330078"/>
       <use xlink:href="#DejaVuSans-37" x="226.953125"/>
      </g>
     </g>
    </g>
    <g id="xtick_8">
     <g id="line2d_15">
      <path d="M 258.42408 301.495 
L 258.42408 24.295 
" clip-path="url(#pc1fdbac3ed)" style="fill: none; stroke: #e8ecf0; stroke-width: 0.8; stroke-linecap: square"/>
     </g>
     <g id="line2d_16">
      <g>
       <use xlink:href="#m6b2088daaf" x="258.42408" y="301.495" style="stroke: #000000; stroke-width: 0.8"/>
      </g>
     </g>
     <g id="text_8">
      <!-- 24-08 -->
      <g transform="translate(238.608296 331.822895) rotate(-45) scale(0.09 -0.09)">
       <defs>
        <path id="DejaVuSans-38" d="M 2034 2216 
Q 1584 2216 1326 1975 
Q 1069 1734 1069 1313 
Q 1069 891 1326 650 
Q 1584 409 2034 409 
Q 2484 409 2743 651 
Q 3003 894 3003 1313 
Q 3003 1734 2745 1975 
Q 2488 2216 2034 2216 
z
M 1403 2484 
Q 997 2584 770 2862 
Q 544 3141 544 3541 
Q 544 4100 942 4425 
Q 1341 4750 2034 4750 
Q 2731 4750 3128 4425 
Q 3525 4100 3525 3541 
Q 3525 3141 3298 2862 
Q 3072 2584 2669 2484 
Q 3125 2378 3379 2068 
Q 3634 1759 3634 1313 
Q 3634 634 3220 271 
Q 2806 -91 2034 -91 
Q 1263 -91 848 271 
Q 434 634 434 1313 
Q 434 1759 690 2068 
Q 947 2378 1403 2484 
z
M 1172 3481 
Q 1172 3119 1398 2916 
Q 1625 2713 2034 2713 
Q 2441 2713 2670 2916 
Q 2900 3119 2900 3481 
Q 2900 3844 2670 4047 
Q 2441 4250 2034 4250 
Q 1625 4250 1398 4047 
Q 1172 3844 1172 3481 
z
" transform="scale(0.015625)"/>
       </defs>
       <use xlink:href="#DejaVuSans-32"/>
       <use xlink:href="#DejaVuSans-34" x="63.623047"/>
       <use xlink:href="#DejaVuSans-2d" x="127.246094"/>
       <use xlink:href="#DejaVuSans-30" x="163.330078"/>
       <use xlink:href="#DejaVuSans-38" x="226.953125"/>
      </g>
     </g>
    </g>
    <g id="xtick_9">
     <g id="line2d_17">
      <path d="M 281.869458 301.495 
L 281.869458 24.295 
" clip-path="url(#pc1fdbac3ed)" style="fill: none; stroke: #e8ecf0; stroke-width: 0.8; stroke-linecap: square"/>
     </g>
     <g id="line2d_18">
      <g>
       <use xlink:href="#m6b2088daaf" x="281.869458" y="301.495" style="stroke: #000000; stroke-width: 0.8"/>
      </g>
     </g>
     <g id="text_9">
      <!-- 24-09 -->
      <g transform="translate(262.053674 331.822895) rotate(-45) scale(0.09 -0.09)">
       <defs>
        <path id="DejaVuSans-39" d="M 703 97 
L 703 672 
Q 941 559 1184 500 
Q 1428 441 1663 441 
Q 2288 441 2617 861 
Q 2947 1281 2994 2138 
Q 2813 1869 2534 1725 
Q 2256 1581 1919 1581 
Q 1219 1581 811 2004 
Q 403 2428 403 3163 
Q 403 3881 828 4315 
Q 1253 4750 1959 4750 
Q 2769 4750 3195 4129 
Q 3622 3509 3622 2328 
Q 3622 1225 3098 567 
Q 2575 -91 1691 -91 
Q 1453 -91 1209 -44 
Q 966 3 703 97 
z
M 1959 2075 
Q 2384 2075 2632 2365 
Q 2881 2656 2881 3163 
Q 2881 3666 2632 3958 
Q 2384 4250 1959 4250 
Q 1534 4250 1286 3958 
Q 1038 3666 1038 3163 
Q 1038 2656 1286 2365 
Q 1534 2075 1959 2075 
z
" transform="scale(0.015625)"/>
       </defs>
       <use xlink:href="#DejaVuSans-32"/>
       <use xlink:href="#DejaVuSans-34" x="63.623047"/>
       <use xlink:href="#DejaVuSans-2d" x="127.246094"/>
       <use xlink:href="#DejaVuSans-30" x="163.330078"/>
       <use xlink:href="#DejaVuSans-39" x="226.953125"/>
      </g>
     </g>
    </g>
    <g id="xtick_10">
     <g id="line2d_19">
      <path d="M 305.314836 301.495 
L 305.314836 24.295 
" clip-path="url(#pc1fdbac3ed)" style="fill: none; stroke: #e8ecf0; stroke-width: 0.8; stroke-linecap: square"/>
     </g>
     <g id="line2d_20">
      <g>
       <use xlink:href="#m6b2088daaf" x="305.314836" y="301.495" style="stroke: #000000; stroke-width: 0.8"/>
      </g>
     </g>
     <g id="text_10">
      <!-- 24-10 -->
      <g transform="translate(285.499052 331.822895) rotate(-45) scale(0.09 -0.09)">
       <use xlink:href="#DejaVuSans-32"/>
       <use xlink:href="#DejaVuSans-34" x="63.623047"/>
       <use xlink:href="#DejaVuSans-2d" x="127.246094"/>
       <use xlink:href="#DejaVuSans-31" x="163.330078"/>
       <use xlink:href="#DejaVuSans-30" x="226.953125"/>
      </g>
     </g>
    </g>
    <g id="xtick_11">
     <g id="line2d_21">
      <path d="M 328.760214 301.495 
L 328.760214 24.295 
" clip-path="url(#pc1fdbac3ed)" style="fill: none; stroke: #e8ecf0; stroke-width: 0.8; stroke-linecap: square"/>
     </g>
     <g id="line2d_22">
      <g>
       <use xlink:href="#m6b2088daaf" x="328.760214" y="301.495" style="stroke: #000000; stroke-width: 0.8"/>
      </g>
     </g>
     <g id="text_11">
      <!-- 24-11 -->
      <g transform="translate(308.94443 331.822895) rotate(-45) scale(0.09 -0.09)">
       <use xlink:href="#DejaVuSans-32"/>
       <use xlink:href="#DejaVuSans-34" x="63.623047"/>
       <use xlink:href="#DejaVuSans-2d" x="127.246094"/>
       <use xlink:href="#DejaVuSans-31" x="163.330078"/>
       <use xlink:href="#DejaVuSans-31" x="226.953125"/>
      </g>
     </g>
    </g>
    <g id="xtick_12">
     <g id="line2d_23">
      <path d="M 352.205592 301.495 
L 352.205592 24.295 
" clip-path="url(#pc1fdbac3ed)" style="fill: none; stroke: #e8ecf0; stroke-width: 0.8; stroke-linecap: square"/>
     </g>
     <g id="line2d_24">
      <g>
       <use xlink:href="#m6b2088daaf" x="352.205592" y="301.495" style="stroke: #000000; stroke-width: 0.8"/>
      </g>
     </g>
     <g id="text_12">
      <!-- 24-12 -->
      <g transform="translate(332.389809 331.822895) rotate(-45) scale(0.09 -0.09)">
       <use xlink:href="#DejaVuSans-32"/>
       <use xlink:href="#DejaVuSans-34" x="63.623047"/>
       <use xlink:href="#DejaVuSans-2d" x="127.246094"/>
       <use xlink:href="#DejaVuSans-31" x="163.330078"/>
       <use xlink:href="#DejaVuSans-32" x="226.953125"/>
      </g>
     </g>
    </g>
    <g id="xtick_13">
     <g id="line2d_25">
      <path d="M 375.65097 301.495 
L 375.65097 24.295 
" clip-path="url(#pc1fdbac3ed)" style="fill: none; stroke: #e8ecf0; stroke-width: 0.8; stroke-linecap: square"/>
     </g>
     <g id="line2d_26">
      <g>
       <use xlink:href="#m6b2088daaf" x="375.65097" y="301.495" style="stroke: #000000; stroke-width: 0.8"/>
      </g>
     </g>
     <g id="text_13">
      <!-- 25-01 -->
      <g transform="translate(355.835187 331.822895) rotate(-45) scale(0.09 -0.09)">
       <use xlink:href="#DejaVuSans-32"/>
       <use xlink:href="#DejaVuSans-35" x="63.623047"/>
       <use xlink:href="#DejaVuSans-2d" x="127.246094"/>
       <use xlink:href="#DejaVuSans-30" x="163.330078"/>
       <use xlink:href="#DejaVuSans-31" x="226.953125"/>
      </g>
     </g>
    </g>
    <g id="xtick_14">
     <g id="line2d_27">
      <path d="M 399.096348 301.495 
L 399.096348 24.295 
" clip-path="url(#pc1fdbac3ed)" style="fill: none; stroke: #e8ecf0; stroke-width: 0.8; stroke-linecap: square"/>
     </g>
     <g id="line2d_28">
      <g>
       <use xlink:href="#m6b2088daaf" x="399.096348" y="301.495" style="stroke: #000000; stroke-width: 0.8"/>
      </g>
     </g>
     <g id="text_14">
      <!-- 25-02 -->
      <g transform="translate(379.280565 331.822895) rotate(-45) scale(0.09 -0.09)">
       <use xlink:href="#DejaVuSans-32"/>
       <use xlink:href="#DejaVuSans-35" x="63.623047"/>
       <use xlink:href="#DejaVuSans-2d" x="127.246094"/>
       <use xlink:href="#DejaVuSans-30" x="163.330078"/>
       <use xlink:href="#DejaVuSans-32" x="226.953125"/>
      </g>
     </g>
    </g>
    <g id="xtick_15">
     <g id="line2d_29">
      <path d="M 422.541727 301.495 
L 422.541727 24.295 
" clip-path="url(#pc1fdbac3ed)" style="fill: none; stroke: #e8ecf0; stroke-width: 0.8; stroke-linecap: square"/>
     </g>
     <g id="line2d_30">
      <g>
       <use xlink:href="#m6b2088daaf" x="422.541727" y="301.495" style="stroke: #000000; stroke-width: 0.8"/>
      </g>
     </g>
     <g id="text_15">
      <!-- 25-03 -->
      <g transform="translate(402.725943 331.822895) rotate(-45) scale(0.09 -0.09)">
       <use xlink:href="#DejaVuSans-32"/>
       <use xlink:href="#DejaVuSans-35" x="63.623047"/>
       <use xlink:href="#DejaVuSans-2d" x="127.246094"/>
       <use xlink:href="#DejaVuSans-30" x="163.330078"/>
       <use xlink:href="#DejaVuSans-33" x="226.953125"/>
      </g>
     </g>
    </g>
    <g id="xtick_16">
     <g id="line2d_31">
      <path d="M 445.987105 301.495 
L 445.987105 24.295 
" clip-path="url(#pc1fdbac3ed)" style="fill: none; stroke: #e8ecf0; stroke-width: 0.8; stroke-linecap: square"/>
     </g>
     <g id="line2d_32">
      <g>
       <use xlink:href="#m6b2088daaf" x="445.987105" y="301.495" style="stroke: #000000; stroke-width: 0.8"/>
      </g>
     </g>
     <g id="text_16">
      <!-- 25-04 -->
      <g transform="translate(426.171321 331.822895) rotate(-45) scale(0.09 -0.09)">
       <use xlink:href="#DejaVuSans-32"/>
       <use xlink:href="#DejaVuSans-35" x="63.623047"/>
       <use xlink:href="#DejaVuSans-2d" x="127.246094"/>
       <use xlink:href="#DejaVuSans-30" x="163.330078"/>
       <use xlink:href="#DejaVuSans-34" x="226.953125"/>
      </g>
     </g>
    </g>
    <g id="xtick_17">
     <g id="line2d_33">
      <path d="M 469.432483 301.495 
L 469.432483 24.295 
" clip-path="url(#pc1fdbac3ed)" style="fill: none; stroke: #e8ecf0; stroke-width: 0.8; stroke-linecap: square"/>
     </g>
     <g id="line2d_34">
      <g>
       <use xlink:href="#m6b2088daaf" x="469.432483" y="301.495" style="stroke: #000000; stroke-width: 0.8"/>
      </g>
     </g>
     <g id="text_17">
      <!-- 25-05 -->
      <g transform="translate(449.616699 331.822895) rotate(-45) scale(0.09 -0.09)">
       <use xlink:href="#DejaVuSans-32"/>
       <use xlink:href="#DejaVuSans-35" x="63.623047"/>
       <use xlink:href="#DejaVuSans-2d" x="127.246094"/>
       <use xlink:href="#DejaVuSans-30" x="163.330078"/>
       <use xlink:href="#DejaVuSans-35" x="226.953125"/>
      </g>
     </g>
    </g>
    <g id="xtick_18">
     <g id="line2d_35">
      <path d="M 492.877861 301.495 
L 492.877861 24.295 
" clip-path="url(#pc1fdbac3ed)" style="fill: none; stroke: #e8ecf0; stroke-width: 0.8; stroke-linecap: square"/>
     </g>
     <g id="line2d_36">
      <g>
       <use xlink:href="#m6b2088daaf" x="492.877861" y="301.495" style="stroke: #000000; stroke-width: 0.8"/>
      </g>
     </g>
     <g id="text_18">
      <!-- 25-06 -->
      <g transform="translate(473.062077 331.822895) rotate(-45) scale(0.09 -0.09)">
       <use xlink:href="#DejaVuSans-32"/>
       <use xlink:href="#DejaVuSans-35" x="63.623047"/>
       <use xlink:href="#DejaVuSans-2d" x="127.246094"/>
       <use xlink:href="#DejaVuSans-30" x="163.330078"/>
       <use xlink:href="#DejaVuSans-36" x="226.953125"/>
      </g>
     </g>
    </g>
    <g id="xtick_19">
     <g id="line2d_37">
      <path d="M 516.323239 301.495 
L 516.323239 24.295 
" clip-path="url(#pc1fdbac3ed)" style="fill: none; stroke: #e8ecf0; stroke-width: 0.8; stroke-linecap: square"/>
     </g>
     <g id="line2d_38">
      <g>
       <use xlink:href="#m6b2088daaf" x="516.323239" y="301.495" style="stroke: #000000; stroke-width: 0.8"/>
      </g>
     </g>
     <g id="text_19">
      <!-- 25-07 -->
      <g transform="translate(496.507456 331.822895) rotate(-45) scale(0.09 -0.09)">
       <use xlink:href="#DejaVuSans-32"/>
       <use xlink:href="#DejaVuSans-35" x="63.623047"/>
       <use xlink:href="#DejaVuSans-2d" x="127.246094"/>
       <use xlink:href="#DejaVuSans-30" x="163.330078"/>
       <use xlink:href="#DejaVuSans-37" x="226.953125"/>
      </g>
     </g>
    </g>
    <g id="xtick_20">
     <g id="line2d_39">
      <path d="M 539.768617 301.495 
L 539.768617 24.295 
" clip-path="url(#pc1fdbac3ed)" style="fill: none; stroke: #e8ecf0; stroke-width: 0.8; stroke-linecap: square"/>
     </g>
     <g id="line2d_40">
      <g>
       <use xlink:href="#m6b2088daaf" x="539.768617" y="301.495" style="stroke: #000000; stroke-width: 0.8"/>
      </g>
     </g>
     <g id="text_20">
      <!-- 25-08 -->
      <g transform="translate(519.952834 331.822895) rotate(-45) scale(0.09 -0.09)">
       <use xlink:href="#DejaVuSans-32"/>
       <use xlink:href="#DejaVuSans-35" x="63.623047"/>
       <use xlink:href="#DejaVuSans-2d" x="127.246094"/>
       <use xlink:href="#DejaVuSans-30" x="163.330078"/>
       <use xlink:href="#DejaVuSans-38" x="226.953125"/>
      </g>
     </g>
    </g>
    <g id="xtick_21">
     <g id="line2d_41">
      <path d="M 563.213996 301.495 
L 563.213996 24.295 
" clip-path="url(#pc1fdbac3ed)" style="fill: none; stroke: #e8ecf0; stroke-width: 0.8; stroke-linecap: square"/>
     </g>
     <g id="line2d_42">
      <g>
       <use xlink:href="#m6b2088daaf" x="563.213996" y="301.495" style="stroke: #000000; stroke-width: 0.8"/>
      </g>
     </g>
     <g id="text_21">
      <!-- 25-09 -->
      <g transform="translate(543.398212 331.822895) rotate(-45) scale(0.09 -0.09)">
       <use xlink:href="#DejaVuSans-32"/>
       <use xlink:href="#DejaVuSans-35" x="63.623047"/>
       <use xlink:href="#DejaVuSans-2d" x="127.246094"/>
       <use xlink:href="#DejaVuSans-30" x="163.330078"/>
       <use xlink:href="#DejaVuSans-39" x="226.953125"/>
      </g>
     </g>
    </g>
    <g id="xtick_22">
     <g id="line2d_43">
      <path d="M 586.659374 301.495 
L 586.659374 24.295 
" clip-path="url(#pc1fdbac3ed)" style="fill: none; stroke: #e8ecf0; stroke-width: 0.8; stroke-linecap: square"/>
     </g>
     <g id="line2d_44">
      <g>
       <use xlink:href="#m6b2088daaf" x="586.659374" y="301.495" style="stroke: #000000; stroke-width: 0.8"/>
      </g>
     </g>
     <g id="text_22">
      <!-- 25-10 -->
      <g transform="translate(566.84359 331.822895) rotate(-45) scale(0.09 -0.09)">
       <use xlink:href="#DejaVuSans-32"/>
       <use xlink:href="#DejaVuSans-35" x="63.623047"/>
       <use xlink:href="#DejaVuSans-2d" x="127.246094"/>
       <use xlink:href="#DejaVuSans-31" x="163.330078"/>
       <use xlink:href="#DejaVuSans-30" x="226.953125"/>
      </g>
     </g>
    </g>
    <g id="xtick_23">
     <g id="line2d_45">
      <path d="M 610.104752 301.495 
L 610.104752 24.295 
" clip-path="url(#pc1fdbac3ed)" style="fill: none; stroke: #e8ecf0; stroke-width: 0.8; stroke-linecap: square"/>
     </g>
     <g id="line2d_46">
      <g>
       <use xlink:href="#m6b2088daaf" x="610.104752" y="301.495" style="stroke: #000000; stroke-width: 0.8"/>
      </g>
     </g>
     <g id="text_23">
      <!-- 25-11 -->
      <g transform="translate(590.288968 331.822895) rotate(-45) scale(0.09 -0.09)">
       <use xlink:href="#DejaVuSans-32"/>
       <use xlink:href="#DejaVuSans-35" x="63.623047"/>
       <use xlink:href="#DejaVuSans-2d" x="127.246094"/>
       <use xlink:href="#DejaVuSans-31" x="163.330078"/>
       <use xlink:href="#DejaVuSans-31" x="226.953125"/>
      </g>
     </g>
    </g>
    <g id="xtick_24">
     <g id="line2d_47">
      <path d="M 633.55013 301.495 
L 633.55013 24.295 
" clip-path="url(#pc1fdbac3ed)" style="fill: none; stroke: #e8ecf0; stroke-width: 0.8; stroke-linecap: square"/>
     </g>
     <g id="line2d_48">
      <g>
       <use xlink:href="#m6b2088daaf" x="633.55013" y="301.495" style="stroke: #000000; stroke-width: 0.8"/>
      </g>
     </g>
     <g id="text_24">
      <!-- 25-12 -->
      <g transform="translate(613.734346 331.822895) rotate(-45) scale(0.09 -0.09)">
       <use xlink:href="#DejaVuSans-32"/>
       <use xlink:href="#DejaVuSans-35" x="63.623047"/>
       <use xlink:href="#DejaVuSans-2d" x="127.246094"/>
       <use xlink:href="#DejaVuSans-31" x="163.330078"/>
       <use xlink:href="#DejaVuSans-32" x="226.953125"/>
      </g>
     </g>
    </g>
    <g id="text_25">
     <!-- Месяц -->
     <g transform="translate(345.722422 345.504681) scale(0.11 -0.11)">
      <defs>
       <path id="DejaVuSans-41c" d="M 628 4666 
L 1569 4666 
L 2759 1491 
L 3956 4666 
L 4897 4666 
L 4897 0 
L 4281 0 
L 4281 4097 
L 3078 897 
L 2444 897 
L 1241 4097 
L 1241 0 
L 628 0 
L 628 4666 
z
" transform="scale(0.015625)"/>
       <path id="DejaVuSans-435" d="M 3597 1894 
L 3597 1613 
L 953 1613 
Q 991 1019 1311 708 
Q 1631 397 2203 397 
Q 2534 397 2845 478 
Q 3156 559 3463 722 
L 3463 178 
Q 3153 47 2828 -22 
Q 2503 -91 2169 -91 
Q 1331 -91 842 396 
Q 353 884 353 1716 
Q 353 2575 817 3079 
Q 1281 3584 2069 3584 
Q 2775 3584 3186 3129 
Q 3597 2675 3597 1894 
z
M 3022 2063 
Q 3016 2534 2758 2815 
Q 2500 3097 2075 3097 
Q 1594 3097 1305 2825 
Q 1016 2553 972 2059 
L 3022 2063 
z
" transform="scale(0.015625)"/>
       <path id="DejaVuSans-441" d="M 3122 3366 
L 3122 2828 
Q 2878 2963 2633 3030 
Q 2388 3097 2138 3097 
Q 1578 3097 1268 2742 
Q 959 2388 959 1747 
Q 959 1106 1268 751 
Q 1578 397 2138 397 
Q 2388 397 2633 464 
Q 2878 531 3122 666 
L 3122 134 
Q 2881 22 2623 -34 
Q 2366 -91 2075 -91 
Q 1284 -91 818 406 
Q 353 903 353 1747 
Q 353 2603 823 3093 
Q 1294 3584 2113 3584 
Q 2378 3584 2631 3529 
Q 2884 3475 3122 3366 
z
" transform="scale(0.015625)"/>
       <path id="DejaVuSans-44f" d="M 1181 2491 
Q 1181 2231 1381 2084 
Q 1581 1938 1953 1938 
L 2728 1938 
L 2728 3041 
L 1953 3041 
Q 1581 3041 1381 2897 
Q 1181 2753 1181 2491 
z
M 363 0 
L 1431 1534 
Q 1069 1616 828 1830 
Q 588 2044 588 2491 
Q 588 2997 923 3248 
Q 1259 3500 1938 3500 
L 3306 3500 
L 3306 0 
L 2728 0 
L 2728 1478 
L 2013 1478 
L 981 0 
L 363 0 
z
" transform="scale(0.015625)"/>
       <path id="DejaVuSans-446" d="M 3603 0 
L 581 0 
L 581 3500 
L 1159 3500 
L 1159 459 
L 3025 459 
L 3025 3500 
L 3603 3500 
L 3603 459 
L 4063 459 
L 4063 -884 
L 3603 -884 
L 3603 0 
z
" transform="scale(0.015625)"/>
      </defs>
      <use xlink:href="#DejaVuSans-41c"/>
      <use xlink:href="#DejaVuSans-435" x="86.279297"/>
      <use xlink:href="#DejaVuSans-441" x="147.802734"/>
      <use xlink:href="#DejaVuSans-44f" x="202.783203"/>
      <use xlink:href="#DejaVuSans-446" x="262.939453"/>
     </g>
    </g>
   </g>
   <g id="matplotlib.axis_2">
    <g id="ytick_1">
     <g id="line2d_49">
      <path d="M 57.028281 301.495 
L 670.828281 301.495 
" clip-path="url(#pc1fdbac3ed)" style="fill: none; stroke: #e8ecf0; stroke-width: 0.8; stroke-linecap: square"/>
     </g>
     <g id="line2d_50">
      <defs>
       <path id="ma0080973bf" d="M 0 0 
L -3.5 0 
" style="stroke: #000000; stroke-width: 0.8"/>
      </defs>
      <g>
       <use xlink:href="#ma0080973bf" x="57.028281" y="301.495" style="stroke: #000000; stroke-width: 0.8"/>
      </g>
     </g>
     <g id="text_26">
      <!-- 0 -->
      <g transform="translate(43.029531 305.674141) scale(0.11 -0.11)">
       <use xlink:href="#DejaVuSans-30"/>
      </g>
     </g>
    </g>
    <g id="ytick_2">
     <g id="line2d_51">
      <path d="M 57.028281 269.062568 
L 670.828281 269.062568 
" clip-path="url(#pc1fdbac3ed)" style="fill: none; stroke: #e8ecf0; stroke-width: 0.8; stroke-linecap: square"/>
     </g>
     <g id="line2d_52">
      <g>
       <use xlink:href="#ma0080973bf" x="57.028281" y="269.062568" style="stroke: #000000; stroke-width: 0.8"/>
      </g>
     </g>
     <g id="text_27">
      <!-- 200 -->
      <g transform="translate(29.032031 273.241708) scale(0.11 -0.11)">
       <use xlink:href="#DejaVuSans-32"/>
       <use xlink:href="#DejaVuSans-30" x="63.623047"/>
       <use xlink:href="#DejaVuSans-30" x="127.246094"/>
      </g>
     </g>
    </g>
    <g id="ytick_3">
     <g id="line2d_53">
      <path d="M 57.028281 236.630135 
L 670.828281 236.630135 
" clip-path="url(#pc1fdbac3ed)" style="fill: none; stroke: #e8ecf0; stroke-width: 0.8; stroke-linecap: square"/>
     </g>
     <g id="line2d_54">
      <g>
       <use xlink:href="#ma0080973bf" x="57.028281" y="236.630135" style="stroke: #000000; stroke-width: 0.8"/>
      </g>
     </g>
     <g id="text_28">
      <!-- 400 -->
      <g transform="translate(29.032031 240.809276) scale(0.11 -0.11)">
       <use xlink:href="#DejaVuSans-34"/>
       <use xlink:href="#DejaVuSans-30" x="63.623047"/>
       <use xlink:href="#DejaVuSans-30" x="127.246094"/>
      </g>
     </g>
    </g>
    <g id="ytick_4">
     <g id="line2d_55">
      <path d="M 57.028281 204.197703 
L 670.828281 204.197703 
" clip-path="url(#pc1fdbac3ed)" style="fill: none; stroke: #e8ecf0; stroke-width: 0.8; stroke-linecap: square"/>
     </g>
     <g id="line2d_56">
      <g>
       <use xlink:href="#ma0080973bf" x="57.028281" y="204.197703" style="stroke: #000000; stroke-width: 0.8"/>
      </g>
     </g>
     <g id="text_29">
      <!-- 600 -->
      <g transform="translate(29.032031 208.376843) scale(0.11 -0.11)">
       <use xlink:href="#DejaVuSans-36"/>
       <use xlink:href="#DejaVuSans-30" x="63.623047"/>
       <use xlink:href="#DejaVuSans-30" x="127.246094"/>
      </g>
     </g>
    </g>
    <g id="ytick_5">
     <g id="line2d_57">
      <path d="M 57.028281 171.76527 
L 670.828281 171.76527 
" clip-path="url(#pc1fdbac3ed)" style="fill: none; stroke: #e8ecf0; stroke-width: 0.8; stroke-linecap: square"/>
     </g>
     <g id="line2d_58">
      <g>
       <use xlink:href="#ma0080973bf" x="57.028281" y="171.76527" style="stroke: #000000; stroke-width: 0.8"/>
      </g>
     </g>
     <g id="text_30">
      <!-- 800 -->
      <g transform="translate(29.032031 175.944411) scale(0.11 -0.11)">
       <use xlink:href="#DejaVuSans-38"/>
       <use xlink:href="#DejaVuSans-30" x="63.623047"/>
       <use xlink:href="#DejaVuSans-30" x="127.246094"/>
      </g>
     </g>
    </g>
    <g id="ytick_6">
     <g id="line2d_59">
      <path d="M 57.028281 139.332838 
L 670.828281 139.332838 
" clip-path="url(#pc1fdbac3ed)" style="fill: none; stroke: #e8ecf0; stroke-width: 0.8; stroke-linecap: square"/>
     </g>
     <g id="line2d_60">
      <g>
       <use xlink:href="#ma0080973bf" x="57.028281" y="139.332838" style="stroke: #000000; stroke-width: 0.8"/>
      </g>
     </g>
     <g id="text_31">
      <!-- 1000 -->
      <g transform="translate(22.033281 143.511978) scale(0.11 -0.11)">
       <use xlink:href="#DejaVuSans-31"/>
       <use xlink:href="#DejaVuSans-30" x="63.623047"/>
       <use xlink:href="#DejaVuSans-30" x="127.246094"/>
       <use xlink:href="#DejaVuSans-30" x="190.869141"/>
      </g>
     </g>
    </g>
    <g id="ytick_7">
     <g id="line2d_61">
      <path d="M 57.028281 106.900405 
L 670.828281 106.900405 
" clip-path="url(#pc1fdbac3ed)" style="fill: none; stroke: #e8ecf0; stroke-width: 0.8; stroke-linecap: square"/>
     </g>
     <g id="line2d_62">
      <g>
       <use xlink:href="#ma0080973bf" x="57.028281" y="106.900405" style="stroke: #000000; stroke-width: 0.8"/>
      </g>
     </g>
     <g id="text_32">
      <!-- 1200 -->
      <g transform="translate(22.033281 111.079546) scale(0.11 -0.11)">
       <use xlink:href="#DejaVuSans-31"/>
       <use xlink:href="#DejaVuSans-32" x="63.623047"/>
       <use xlink:href="#DejaVuSans-30" x="127.246094"/>
       <use xlink:href="#DejaVuSans-30" x="190.869141"/>
      </g>
     </g>
    </g>
    <g id="ytick_8">
     <g id="line2d_63">
      <path d="M 57.028281 74.467973 
L 670.828281 74.467973 
" clip-path="url(#pc1fdbac3ed)" style="fill: none; stroke: #e8ecf0; stroke-width: 0.8; stroke-linecap: square"/>
     </g>
     <g id="line2d_64">
      <g>
       <use xlink:href="#ma0080973bf" x="57.028281" y="74.467973" style="stroke: #000000; stroke-width: 0.8"/>
      </g>
     </g>
     <g id="text_33">
      <!-- 1400 -->
      <g transform="translate(22.033281 78.647114) scale(0.11 -0.11)">
       <use xlink:href="#DejaVuSans-31"/>
       <use xlink:href="#DejaVuSans-34" x="63.623047"/>
       <use xlink:href="#DejaVuSans-30" x="127.246094"/>
       <use xlink:href="#DejaVuSans-30" x="190.869141"/>
      </g>
     </g>
    </g>
    <g id="ytick_9">
     <g id="line2d_65">
      <path d="M 57.028281 42.035541 
L 670.828281 42.035541 
" clip-path="url(#pc1fdbac3ed)" style="fill: none; stroke: #e8ecf0; stroke-width: 0.8; stroke-linecap: square"/>
     </g>
     <g id="line2d_66">
      <g>
       <use xlink:href="#ma0080973bf" x="57.028281" y="42.035541" style="stroke: #000000; stroke-width: 0.8"/>
      </g>
     </g>
     <g id="text_34">
      <!-- 1600 -->
      <g transform="translate(22.033281 46.214681) scale(0.11 -0.11)">
       <use xlink:href="#DejaVuSans-31"/>
       <use xlink:href="#DejaVuSans-36" x="63.623047"/>
       <use xlink:href="#DejaVuSans-30" x="127.246094"/>
       <use xlink:href="#DejaVuSans-30" x="190.869141"/>
      </g>
     </g>
    </g>
    <g id="text_35">
     <!-- Обращений в месяц -->
     <g transform="translate(15.745625 221.133984) rotate(-90) scale(0.11 -0.11)">
      <defs>
       <path id="DejaVuSans-41e" d="M 2522 4238 
Q 1834 4238 1429 3725 
Q 1025 3213 1025 2328 
Q 1025 1447 1429 934 
Q 1834 422 2522 422 
Q 3209 422 3611 934 
Q 4013 1447 4013 2328 
Q 4013 3213 3611 3725 
Q 3209 4238 2522 4238 
z
M 2522 4750 
Q 3503 4750 4090 4092 
Q 4678 3434 4678 2328 
Q 4678 1225 4090 567 
Q 3503 -91 2522 -91 
Q 1538 -91 948 565 
Q 359 1222 359 2328 
Q 359 3434 948 4092 
Q 1538 4750 2522 4750 
z
" transform="scale(0.015625)"/>
       <path id="DejaVuSans-431" d="M 1991 3584 
Q 2741 3584 3169 3096 
Q 3597 2609 3597 1747 
Q 3597 888 3169 398 
Q 2741 -91 1991 -91 
Q 1238 -91 822 384 
Q 406 859 384 1747 
L 366 2463 
Q 350 2834 350 2963 
Q 350 3463 531 3831 
Q 816 4409 1308 4659 
Q 1800 4909 2625 4916 
Q 3006 4919 3175 4972 
L 3334 4516 
Q 3181 4453 3041 4450 
L 2259 4397 
Q 1866 4369 1628 4231 
Q 1006 3866 947 3388 
L 925 3213 
Q 1331 3584 1991 3584 
z
M 1991 3097 
Q 1528 3097 1259 2736 
Q 991 2375 991 1747 
Q 991 1119 1258 758 
Q 1525 397 1991 397 
Q 2450 397 2719 759 
Q 2988 1122 2988 1747 
Q 2988 2369 2719 2733 
Q 2450 3097 1991 3097 
z
" transform="scale(0.015625)"/>
       <path id="DejaVuSans-440" d="M 1159 525 
L 1159 -1331 
L 581 -1331 
L 581 3500 
L 1159 3500 
L 1159 2969 
Q 1341 3281 1617 3432 
Q 1894 3584 2278 3584 
Q 2916 3584 3314 3078 
Q 3713 2572 3713 1747 
Q 3713 922 3314 415 
Q 2916 -91 2278 -91 
Q 1894 -91 1617 61 
Q 1341 213 1159 525 
z
M 3116 1747 
Q 3116 2381 2855 2742 
Q 2594 3103 2138 3103 
Q 1681 3103 1420 2742 
Q 1159 2381 1159 1747 
Q 1159 1113 1420 752 
Q 1681 391 2138 391 
Q 2594 391 2855 752 
Q 3116 1113 3116 1747 
z
" transform="scale(0.015625)"/>
       <path id="DejaVuSans-430" d="M 2194 1759 
Q 1497 1759 1228 1600 
Q 959 1441 959 1056 
Q 959 750 1161 570 
Q 1363 391 1709 391 
Q 2188 391 2477 730 
Q 2766 1069 2766 1631 
L 2766 1759 
L 2194 1759 
z
M 3341 1997 
L 3341 0 
L 2766 0 
L 2766 531 
Q 2569 213 2275 61 
Q 1981 -91 1556 -91 
Q 1019 -91 701 211 
Q 384 513 384 1019 
Q 384 1609 779 1909 
Q 1175 2209 1959 2209 
L 2766 2209 
L 2766 2266 
Q 2766 2663 2505 2880 
Q 2244 3097 1772 3097 
Q 1472 3097 1187 3025 
Q 903 2953 641 2809 
L 641 3341 
Q 956 3463 1253 3523 
Q 1550 3584 1831 3584 
Q 2591 3584 2966 3190 
Q 3341 2797 3341 1997 
z
" transform="scale(0.015625)"/>
       <path id="DejaVuSans-449" d="M 5275 0 
L 581 0 
L 581 3500 
L 1159 3500 
L 1159 459 
L 2638 459 
L 2638 3500 
L 3216 3500 
L 3216 459 
L 4697 459 
L 4697 3500 
L 5275 3500 
L 5275 459 
L 5734 459 
L 5734 -884 
L 5275 -884 
L 5275 0 
z
" transform="scale(0.015625)"/>
       <path id="DejaVuSans-43d" d="M 581 3500 
L 1159 3500 
L 1159 2072 
L 3025 2072 
L 3025 3500 
L 3603 3500 
L 3603 0 
L 3025 0 
L 3025 1613 
L 1159 1613 
L 1159 0 
L 581 0 
L 581 3500 
z
" transform="scale(0.015625)"/>
       <path id="DejaVuSans-438" d="M 3578 3500 
L 3578 0 
L 3006 0 
L 3006 2809 
L 1319 0 
L 581 0 
L 581 3500 
L 1153 3500 
L 1153 697 
L 2838 3500 
L 3578 3500 
z
" transform="scale(0.015625)"/>
       <path id="DejaVuSans-439" d="M 3578 3500 
L 3578 0 
L 3006 0 
L 3006 2809 
L 1319 0 
L 581 0 
L 581 3500 
L 1153 3500 
L 1153 697 
L 2838 3500 
L 3578 3500 
z
M 1102 4833 
L 1471 4833 
Q 1505 4599 1656 4481 
Q 1808 4364 2080 4364 
Q 2349 4364 2499 4480 
Q 2649 4596 2689 4833 
L 3058 4833 
Q 3027 4386 2780 4161 
Q 2533 3936 2080 3936 
Q 1627 3936 1380 4161 
Q 1133 4386 1102 4833 
z
" transform="scale(0.015625)"/>
       <path id="DejaVuSans-20" transform="scale(0.015625)"/>
       <path id="DejaVuSans-432" d="M 1156 1613 
L 1156 459 
L 1975 459 
Q 2369 459 2575 607 
Q 2781 756 2781 1038 
Q 2781 1319 2575 1466 
Q 2369 1613 1975 1613 
L 1156 1613 
z
M 1156 3041 
L 1156 2072 
L 1913 2072 
Q 2238 2072 2444 2201 
Q 2650 2331 2650 2563 
Q 2650 2794 2444 2917 
Q 2238 3041 1913 3041 
L 1156 3041 
z
M 581 3500 
L 1950 3500 
Q 2566 3500 2897 3275 
Q 3228 3050 3228 2634 
Q 3228 2313 3059 2123 
Q 2891 1934 2559 1888 
Q 2956 1813 3175 1575 
Q 3394 1338 3394 981 
Q 3394 513 3033 256 
Q 2672 0 2003 0 
L 581 0 
L 581 3500 
z
" transform="scale(0.015625)"/>
       <path id="DejaVuSans-43c" d="M 581 3500 
L 1422 3500 
L 2416 1156 
L 3413 3500 
L 4247 3500 
L 4247 0 
L 3669 0 
L 3669 2950 
L 2703 672 
L 2128 672 
L 1159 2950 
L 1159 0 
L 581 0 
L 581 3500 
z
" transform="scale(0.015625)"/>
      </defs>
      <use xlink:href="#DejaVuSans-41e"/>
      <use xlink:href="#DejaVuSans-431" x="78.710938"/>
      <use xlink:href="#DejaVuSans-440" x="140.380859"/>
      <use xlink:href="#DejaVuSans-430" x="203.857422"/>
      <use xlink:href="#DejaVuSans-449" x="265.136719"/>
      <use xlink:href="#DejaVuSans-435" x="359.326172"/>
      <use xlink:href="#DejaVuSans-43d" x="420.849609"/>
      <use xlink:href="#DejaVuSans-438" x="486.230469"/>
      <use xlink:href="#DejaVuSans-439" x="551.220703"/>
      <use xlink:href="#DejaVuSans-20" x="616.210938"/>
      <use xlink:href="#DejaVuSans-432" x="647.998047"/>
      <use xlink:href="#DejaVuSans-20" x="706.933594"/>
      <use xlink:href="#DejaVuSans-43c" x="738.720703"/>
      <use xlink:href="#DejaVuSans-435" x="814.160156"/>
      <use xlink:href="#DejaVuSans-441" x="875.683594"/>
      <use xlink:href="#DejaVuSans-44f" x="930.664062"/>
      <use xlink:href="#DejaVuSans-446" x="990.820312"/>
     </g>
    </g>
   </g>
   <g id="line2d_67">
    <path d="M 57.028281 79.062568 
L 670.828281 79.062568 
" clip-path="url(#pc1fdbac3ed)" style="fill: none; stroke-dasharray: 3.7,1.6; stroke-dashoffset: 0; stroke: #1f3a5f; stroke-opacity: 0.7"/>
   </g>
   <g id="line2d_68">
    <path d="M 57.028281 73.805811 
L 670.828281 73.805811 
" clip-path="url(#pc1fdbac3ed)" style="fill: none; stroke-dasharray: 3.7,1.6; stroke-dashoffset: 0; stroke: #e8833a; stroke-opacity: 0.7"/>
   </g>
   <g id="patch_27">
    <path d="M 57.028281 301.495 
L 57.028281 24.295 
" style="fill: none; stroke: #cfd6dd; stroke-width: 0.8; stroke-linejoin: miter; stroke-linecap: square"/>
   </g>
   <g id="patch_28">
    <path d="M 670.828281 301.495 
L 670.828281 24.295 
" style="fill: none; stroke: #cfd6dd; stroke-width: 0.8; stroke-linejoin: miter; stroke-linecap: square"/>
   </g>
   <g id="patch_29">
    <path d="M 57.028281 301.495 
L 670.828281 301.495 
" style="fill: none; stroke: #cfd6dd; stroke-width: 0.8; stroke-linejoin: miter; stroke-linecap: square"/>
   </g>
   <g id="patch_30">
    <path d="M 57.028281 24.295 
L 670.828281 24.295 
" style="fill: none; stroke: #cfd6dd; stroke-width: 0.8; stroke-linejoin: miter; stroke-linecap: square"/>
   </g>
   <g id="text_36">
    <!-- Динамика числа обращений по месяцам -->
    <g transform="translate(198.712969 18.295) scale(0.14 -0.14)">
     <defs>
      <path id="DejaVuSans-Bold-414" d="M 2153 909 
L 3453 909 
L 3453 3756 
L 2444 3756 
L 2444 3472 
Q 2444 1472 2153 909 
z
M 734 909 
Q 1059 1125 1150 1442 
Q 1241 1759 1241 3784 
L 1241 4666 
L 4656 4666 
L 4656 909 
L 5316 909 
L 5316 -1003 
L 4406 -1003 
L 4406 0 
L 1294 0 
L 1294 -1003 
L 384 -1003 
L 384 909 
L 734 909 
z
" transform="scale(0.015625)"/>
      <path id="DejaVuSans-Bold-438" d="M 3947 3500 
L 3947 0 
L 2828 0 
L 2828 1863 
L 1700 0 
L 538 0 
L 538 3500 
L 1656 3500 
L 1656 1638 
L 2784 3500 
L 3947 3500 
z
" transform="scale(0.015625)"/>
      <path id="DejaVuSans-Bold-43d" d="M 538 3500 
L 1656 3500 
L 1656 2169 
L 2766 2169 
L 2766 3500 
L 3884 3500 
L 3884 0 
L 2766 0 
L 2766 1478 
L 1656 1478 
L 1656 0 
L 538 0 
L 538 3500 
z
" transform="scale(0.015625)"/>
      <path id="DejaVuSans-Bold-430" d="M 2106 1575 
Q 1756 1575 1579 1456 
Q 1403 1338 1403 1106 
Q 1403 894 1545 773 
Q 1688 653 1941 653 
Q 2256 653 2472 879 
Q 2688 1106 2688 1447 
L 2688 1575 
L 2106 1575 
z
M 3816 1997 
L 3816 0 
L 2688 0 
L 2688 519 
Q 2463 200 2181 54 
Q 1900 -91 1497 -91 
Q 953 -91 614 226 
Q 275 544 275 1050 
Q 275 1666 698 1953 
Q 1122 2241 2028 2241 
L 2688 2241 
L 2688 2328 
Q 2688 2594 2478 2717 
Q 2269 2841 1825 2841 
Q 1466 2841 1156 2769 
Q 847 2697 581 2553 
L 581 3406 
Q 941 3494 1303 3539 
Q 1666 3584 2028 3584 
Q 2975 3584 3395 3211 
Q 3816 2838 3816 1997 
z
" transform="scale(0.015625)"/>
      <path id="DejaVuSans-Bold-43c" d="M 538 3500 
L 1825 3500 
L 2613 1750 
L 3400 3500 
L 4691 3500 
L 4691 0 
L 3575 0 
L 3575 1984 
L 2984 672 
L 2250 672 
L 1656 1984 
L 1656 0 
L 538 0 
L 538 3500 
z
" transform="scale(0.015625)"/>
      <path id="DejaVuSans-Bold-43a" d="M 538 3500 
L 1656 3500 
L 1656 2316 
L 2903 3500 
L 4128 3500 
L 2634 2078 
L 4250 0 
L 3094 0 
L 1972 1447 
L 1656 1147 
L 1656 0 
L 538 0 
L 538 3500 
z
" transform="scale(0.015625)"/>
      <path id="DejaVuSans-Bold-20" transform="scale(0.015625)"/>
      <path id="DejaVuSans-Bold-447" d="M 2550 0 
L 2550 1353 
L 1400 1353 
Q 931 1353 672 1629 
Q 413 1906 413 2450 
L 413 3500 
L 1531 3500 
L 1531 2878 
Q 1531 2322 1622 2183 
Q 1713 2044 1950 2044 
L 2550 2044 
L 2550 3500 
L 3669 3500 
L 3669 0 
L 2550 0 
z
" transform="scale(0.015625)"/>
      <path id="DejaVuSans-Bold-441" d="M 3366 3391 
L 3366 2478 
Q 3138 2634 2908 2709 
Q 2678 2784 2431 2784 
Q 1963 2784 1702 2511 
Q 1441 2238 1441 1747 
Q 1441 1256 1702 982 
Q 1963 709 2431 709 
Q 2694 709 2930 787 
Q 3166 866 3366 1019 
L 3366 103 
Q 3103 6 2833 -42 
Q 2563 -91 2291 -91 
Q 1344 -91 809 395 
Q 275 881 275 1747 
Q 275 2613 809 3098 
Q 1344 3584 2291 3584 
Q 2566 3584 2833 3536 
Q 3100 3488 3366 3391 
z
" transform="scale(0.015625)"/>
      <path id="DejaVuSans-Bold-43b" d="M 353 0 
L 353 800 
Q 906 913 1031 1278 
Q 1125 1556 1125 2928 
L 1125 3500 
L 4150 3500 
L 4150 0 
L 3031 0 
L 3031 2700 
L 2244 2700 
L 2244 2584 
Q 2244 1213 2028 813 
Q 1591 0 353 0 
z
" transform="scale(0.015625)"/>
      <path id="DejaVuSans-Bold-43e" d="M 2203 2784 
Q 1831 2784 1636 2517 
Q 1441 2250 1441 1747 
Q 1441 1244 1636 976 
Q 1831 709 2203 709 
Q 2569 709 2762 976 
Q 2956 1244 2956 1747 
Q 2956 2250 2762 2517 
Q 2569 2784 2203 2784 
z
M 2203 3584 
Q 3106 3584 3614 3096 
Q 4122 2609 4122 1747 
Q 4122 884 3614 396 
Q 3106 -91 2203 -91 
Q 1297 -91 786 396 
Q 275 884 275 1747 
Q 275 2609 786 3096 
Q 1297 3584 2203 3584 
z
" transform="scale(0.015625)"/>
      <path id="DejaVuSans-Bold-431" d="M 344 1941 
L 322 2463 
Q 275 2672 275 2881 
Q 275 3494 456 3894 
Q 791 4631 1238 4781 
Q 1606 4909 3141 5031 
Q 3297 5044 3475 5072 
L 3725 4378 
Q 3488 4316 2269 4209 
Q 1734 4163 1516 4013 
Q 1153 3766 1125 3300 
Q 1584 3584 2275 3584 
Q 3178 3584 3686 3096 
Q 4194 2609 4194 1747 
Q 4194 884 3687 396 
Q 3181 -91 2275 -91 
Q 1369 -91 858 396 
Q 347 884 347 1747 
Q 347 1866 344 1941 
z
M 2272 2784 
Q 1903 2784 1708 2517 
Q 1513 2250 1513 1747 
Q 1513 1244 1708 976 
Q 1903 709 2272 709 
Q 2641 709 2834 976 
Q 3028 1244 3028 1747 
Q 3028 2250 2834 2517 
Q 2641 2784 2272 2784 
z
" transform="scale(0.015625)"/>
      <path id="DejaVuSans-Bold-440" d="M 1656 506 
L 1656 -1331 
L 538 -1331 
L 538 3500 
L 1656 3500 
L 1656 2988 
Q 1888 3294 2169 3439 
Q 2450 3584 2816 3584 
Q 3463 3584 3878 3070 
Q 4294 2556 4294 1747 
Q 4294 938 3878 423 
Q 3463 -91 2816 -91 
Q 2450 -91 2169 54 
Q 1888 200 1656 506 
z
M 2400 2772 
Q 2041 2772 1848 2508 
Q 1656 2244 1656 1747 
Q 1656 1250 1848 986 
Q 2041 722 2400 722 
Q 2759 722 2948 984 
Q 3138 1247 3138 1747 
Q 3138 2247 2948 2509 
Q 2759 2772 2400 2772 
z
" transform="scale(0.015625)"/>
      <path id="DejaVuSans-Bold-449" d="M 6000 0 
L 538 0 
L 538 3500 
L 1656 3500 
L 1656 800 
L 2819 800 
L 2819 3500 
L 3938 3500 
L 3938 800 
L 5100 800 
L 5100 3500 
L 6219 3500 
L 6219 800 
L 6800 800 
L 6800 -884 
L 6000 -884 
L 6000 0 
z
" transform="scale(0.015625)"/>
      <path id="DejaVuSans-Bold-435" d="M 4031 1759 
L 4031 1441 
L 1416 1441 
Q 1456 1047 1700 850 
Q 1944 653 2381 653 
Q 2734 653 3104 758 
Q 3475 863 3866 1075 
L 3866 213 
Q 3469 63 3072 -14 
Q 2675 -91 2278 -91 
Q 1328 -91 801 392 
Q 275 875 275 1747 
Q 275 2603 792 3093 
Q 1309 3584 2216 3584 
Q 3041 3584 3536 3087 
Q 4031 2591 4031 1759 
z
M 2881 2131 
Q 2881 2450 2695 2645 
Q 2509 2841 2209 2841 
Q 1884 2841 1681 2658 
Q 1478 2475 1428 2131 
L 2881 2131 
z
" transform="scale(0.015625)"/>
      <path id="DejaVuSans-Bold-439" d="M 3947 3500 
L 3947 0 
L 2828 0 
L 2828 1863 
L 1700 0 
L 538 0 
L 538 3500 
L 1656 3500 
L 1656 1638 
L 2784 3500 
L 3947 3500 
z
M 1190 4891 
L 1637 4891 
Q 1671 4672 1826 4556 
Q 1981 4441 2240 4441 
Q 2499 4441 2654 4556 
Q 2809 4672 2843 4891 
L 3290 4891 
Q 3271 4441 2999 4202 
Q 2728 3963 2240 3963 
Q 1753 3963 1481 4202 
Q 1209 4441 1190 4891 
z
" transform="scale(0.015625)"/>
      <path id="DejaVuSans-Bold-43f" d="M 3884 3500 
L 3884 0 
L 2766 0 
L 2766 2700 
L 1656 2700 
L 1656 0 
L 538 0 
L 538 3500 
L 3884 3500 
z
" transform="scale(0.015625)"/>
      <path id="DejaVuSans-Bold-44f" d="M 1528 2394 
Q 1528 2169 1651 2069 
Q 1775 1969 2059 1969 
L 2463 1969 
L 2463 2816 
L 2059 2816 
Q 1775 2816 1651 2719 
Q 1528 2622 1528 2394 
z
M 197 0 
L 1113 1497 
Q 847 1650 650 1917 
Q 453 2184 453 2516 
Q 453 3013 789 3256 
Q 1125 3500 1878 3500 
L 3581 3500 
L 3581 0 
L 2463 0 
L 2463 1278 
L 2069 1278 
L 1288 0 
L 197 0 
z
" transform="scale(0.015625)"/>
      <path id="DejaVuSans-Bold-446" d="M 3666 -884 
L 3666 0 
L 538 0 
L 538 3500 
L 1656 3500 
L 1656 800 
L 2766 800 
L 2766 3500 
L 3884 3500 
L 3884 800 
L 4466 800 
L 4466 -884 
L 3666 -884 
z
" transform="scale(0.015625)"/>
     </defs>
     <use xlink:href="#DejaVuSans-Bold-414"/>
     <use xlink:href="#DejaVuSans-Bold-438" x="89.0625"/>
     <use xlink:href="#DejaVuSans-Bold-43d" x="159.130859"/>
     <use xlink:href="#DejaVuSans-Bold-430" x="228.222656"/>
     <use xlink:href="#DejaVuSans-Bold-43c" x="295.703125"/>
     <use xlink:href="#DejaVuSans-Bold-438" x="377.441406"/>
     <use xlink:href="#DejaVuSans-Bold-43a" x="447.509766"/>
     <use xlink:href="#DejaVuSans-Bold-430" x="515.380859"/>
     <use xlink:href="#DejaVuSans-Bold-20" x="582.861328"/>
     <use xlink:href="#DejaVuSans-Bold-447" x="617.675781"/>
     <use xlink:href="#DejaVuSans-Bold-438" x="686.328125"/>
     <use xlink:href="#DejaVuSans-Bold-441" x="756.396484"/>
     <use xlink:href="#DejaVuSans-Bold-43b" x="815.673828"/>
     <use xlink:href="#DejaVuSans-Bold-430" x="888.916016"/>
     <use xlink:href="#DejaVuSans-Bold-20" x="956.396484"/>
     <use xlink:href="#DejaVuSans-Bold-43e" x="991.210938"/>
     <use xlink:href="#DejaVuSans-Bold-431" x="1059.912109"/>
     <use xlink:href="#DejaVuSans-Bold-440" x="1129.736328"/>
     <use xlink:href="#DejaVuSans-Bold-430" x="1201.318359"/>
     <use xlink:href="#DejaVuSans-Bold-449" x="1268.798828"/>
     <use xlink:href="#DejaVuSans-Bold-435" x="1379.345703"/>
     <use xlink:href="#DejaVuSans-Bold-43d" x="1447.167969"/>
     <use xlink:href="#DejaVuSans-Bold-438" x="1516.259766"/>
     <use xlink:href="#DejaVuSans-Bold-439" x="1586.328125"/>
     <use xlink:href="#DejaVuSans-Bold-20" x="1656.396484"/>
     <use xlink:href="#DejaVuSans-Bold-43f" x="1691.210938"/>
     <use xlink:href="#DejaVuSans-Bold-43e" x="1760.302734"/>
     <use xlink:href="#DejaVuSans-Bold-20" x="1829.003906"/>
     <use xlink:href="#DejaVuSans-Bold-43c" x="1863.818359"/>
     <use xlink:href="#DejaVuSans-Bold-435" x="1945.556641"/>
     <use xlink:href="#DejaVuSans-Bold-441" x="2013.378906"/>
     <use xlink:href="#DejaVuSans-Bold-44f" x="2072.65625"/>
     <use xlink:href="#DejaVuSans-Bold-446" x="2136.865234"/>
     <use xlink:href="#DejaVuSans-Bold-430" x="2210.986328"/>
     <use xlink:href="#DejaVuSans-Bold-43c" x="2278.466797"/>
    </g>
   </g>
   <g id="legend_1">
    <g id="patch_31">
     <path d="M 66.928281 42.553281 
L 88.928281 42.553281 
L 88.928281 34.853281 
L 66.928281 34.853281 
z
" style="fill: #1f3a5f; stroke: #1f3a5f; stroke-linejoin: miter"/>
    </g>
    <g id="text_37">
     <!-- 2024 (сред. 1372/мес) -->
     <g transform="translate(97.728281 42.553281) scale(0.11 -0.11)">
      <defs>
       <path id="DejaVuSans-28" d="M 1984 4856 
Q 1566 4138 1362 3434 
Q 1159 2731 1159 2009 
Q 1159 1288 1364 580 
Q 1569 -128 1984 -844 
L 1484 -844 
Q 1016 -109 783 600 
Q 550 1309 550 2009 
Q 550 2706 781 3412 
Q 1013 4119 1484 4856 
L 1984 4856 
z
" transform="scale(0.015625)"/>
       <path id="DejaVuSans-434" d="M 1384 459 
L 3053 459 
L 3053 3041 
L 1844 3041 
L 1844 2603 
Q 1844 1316 1475 628 
L 1384 459 
z
M 550 459 
Q 834 584 959 850 
Q 1266 1509 1266 2838 
L 1266 3500 
L 3631 3500 
L 3631 459 
L 4091 459 
L 4091 -884 
L 3631 -884 
L 3631 0 
L 794 0 
L 794 -884 
L 334 -884 
L 334 459 
L 550 459 
z
" transform="scale(0.015625)"/>
       <path id="DejaVuSans-2e" d="M 684 794 
L 1344 794 
L 1344 0 
L 684 0 
L 684 794 
z
" transform="scale(0.015625)"/>
       <path id="DejaVuSans-2f" d="M 1625 4666 
L 2156 4666 
L 531 -594 
L 0 -594 
L 1625 4666 
z
" transform="scale(0.015625)"/>
       <path id="DejaVuSans-29" d="M 513 4856 
L 1013 4856 
Q 1481 4119 1714 3412 
Q 1947 2706 1947 2009 
Q 1947 1309 1714 600 
Q 1481 -109 1013 -844 
L 513 -844 
Q 928 -128 1133 580 
Q 1338 1288 1338 2009 
Q 1338 2731 1133 3434 
Q 928 4138 513 4856 
z
" transform="scale(0.015625)"/>
      </defs>
      <use xlink:href="#DejaVuSans-32"/>
      <use xlink:href="#DejaVuSans-30" x="63.623047"/>
      <use xlink:href="#DejaVuSans-32" x="127.246094"/>
      <use xlink:href="#DejaVuSans-34" x="190.869141"/>
      <use xlink:href="#DejaVuSans-20" x="254.492188"/>
      <use xlink:href="#DejaVuSans-28" x="286.279297"/>
      <use xlink:href="#DejaVuSans-441" x="325.292969"/>
      <use xlink:href="#DejaVuSans-440" x="380.273438"/>
      <use xlink:href="#DejaVuSans-435" x="443.75"/>
      <use xlink:href="#DejaVuSans-434" x="505.273438"/>
      <use xlink:href="#DejaVuSans-2e" x="574.414062"/>
      <use xlink:href="#DejaVuSans-20" x="606.201172"/>
      <use xlink:href="#DejaVuSans-31" x="637.988281"/>
      <use xlink:href="#DejaVuSans-33" x="701.611328"/>
      <use xlink:href="#DejaVuSans-37" x="765.234375"/>
      <use xlink:href="#DejaVuSans-32" x="828.857422"/>
      <use xlink:href="#DejaVuSans-2f" x="892.480469"/>
      <use xlink:href="#DejaVuSans-43c" x="926.171875"/>
      <use xlink:href="#DejaVuSans-435" x="1001.611328"/>
      <use xlink:href="#DejaVuSans-441" x="1063.134766"/>
      <use xlink:href="#DejaVuSans-29" x="1118.115234"/>
     </g>
    </g>
    <g id="patch_32">
     <path d="M 66.928281 58.699219 
L 88.928281 58.699219 
L 88.928281 50.999219 
L 66.928281 50.999219 
z
" style="fill: #e8833a; stroke: #e8833a; stroke-linejoin: miter"/>
    </g>
    <g id="text_38">
     <!-- 2025 (сред. 1404/мес) -->
     <g transform="translate(97.728281 58.699219) scale(0.11 -0.11)">
      <use xlink:href="#DejaVuSans-32"/>
      <use xlink:href="#DejaVuSans-30" x="63.623047"/>
      <use xlink:href="#DejaVuSans-32" x="127.246094"/>
      <use xlink:href="#DejaVuSans-35" x="190.869141"/>
      <use xlink:href="#DejaVuSans-20" x="254.492188"/>
      <use xlink:href="#DejaVuSans-28" x="286.279297"/>
      <use xlink:href="#DejaVuSans-441" x="325.292969"/>
      <use xlink:href="#DejaVuSans-440" x="380.273438"/>
      <use xlink:href="#DejaVuSans-435" x="443.75"/>
      <use xlink:href="#DejaVuSans-434" x="505.273438"/>
      <use xlink:href="#DejaVuSans-2e" x="574.414062"/>
      <use xlink:href="#DejaVuSans-20" x="606.201172"/>
      <use xlink:href="#DejaVuSans-31" x="637.988281"/>
      <use xlink:href="#DejaVuSans-34" x="701.611328"/>
      <use xlink:href="#DejaVuSans-30" x="765.234375"/>
      <use xlink:href="#DejaVuSans-34" x="828.857422"/>
      <use xlink:href="#DejaVuSans-2f" x="892.480469"/>
      <use xlink:href="#DejaVuSans-43c" x="926.171875"/>
      <use xlink:href="#DejaVuSans-435" x="1001.611328"/>
      <use xlink:href="#DejaVuSans-441" x="1063.134766"/>
      <use xlink:href="#DejaVuSans-29" x="1118.115234"/>
     </g>
    </g>
   </g>
  </g>
 </g>
 <defs>
  <clipPath id="pc1fdbac3ed">
   <rect x="57.028281" y="24.295" width="613.8" height="277.2"/>
  </clipPath>
 </defs>
</svg>
