<?xml version="1.0" encoding="utf-8" standalone="no"?>
<!DOCTYPE svg PUBLIC "-//W3C//DTD SVG 1.1//EN"
  "http://www.w3.org/Graphics/SVG/1.1/DTD/svg11.dtd">
<svg xmlns:xlink="http://www.w3.org/1999/xlink" width="779.923125pt" height="423.689687pt" viewBox="0 0 779.923125 423.689687" xmlns="http://www.w3.org/2000/svg" version="1.1">
 <metadata>
  <rdf:RDF xmlns:dc="http://purl.org/dc/elements/1.1/" xmlns:cc="http://creativecommons.org/ns#" xmlns:rdf="http://www.w3.org/1999/02/22-rdf-syntax-ns#">
   <cc:Work>
    <dc:type rdf:resource="http://purl.org/dc/dcmitype/StillImage"/>
    <dc:date>2026-07-23T11:33:32.142722</dc:date>
    <dc:format>image/svg+xml</dc:format>
    <dc:creator>
     <cc:Agent>
      <dc:title>Matplotlib v3.9.4, https://matplotlib.org/</dc:title>
     </cc:Agent>
    </dc:creator>
   </cc:Work>
  </rdf:RDF>
 </metadata>
 <defs>
  <style type="text/css">*{stroke-linejoin: round; stroke-linecap: butt}</style>
 </defs>
 <g id="figure_1">
  <g id="patch_1">
   <path d="M 0 423.689687 
L 779.923125 423.689687 
L 779.923125 0 
L 0 0 
z
" style="fill: #ffffff"/>
  </g>
  <g id="axes_1">
   <g id="patch_2">
    <path d="M 214.723125 384.197812 
L 772.723125 384.197812 
L 772.723125 23.837812 
L 214.723125 23.837812 
z
" style="fill: #ffffff"/>
   </g>
   <g id="patch_3">
    <path d="M 214.723125 367.817812 
L 346.176442 367.817812 
L 346.176442 347.342812 
L 214.723125 347.342812 
z
" clip-path="url(#p163119401e)" style="fill: #2f6f9f"/>
   </g>
   <g id="patch_4">
    <path d="M 214.723125 342.224062 
L 460.231526 342.224062 
L 460.231526 321.749062 
L 214.723125 321.749062 
z
" clip-path="url(#p163119401e)" style="fill: #2f6f9f"/>
   </g>
   <g id="patch_5">
    <path d="M 214.723125 316.630312 
L 469.897211 316.630312 
L 469.897211 296.155312 
L 214.723125 296.155312 
z
" clip-path="url(#p163119401e)" style="fill: #2f6f9f"/>
   </g>
   <g id="patch_6">
    <path d="M 214.723125 291.036562 
L 477.629759 291.036562 
L 477.629759 270.561562 
L 214.723125 270.561562 
z
" clip-path="url(#p163119401e)" style="fill: #2f6f9f"/>
   </g>
   <g id="patch_7">
    <path d="M 214.723125 265.442812 
L 543.356418 265.442812 
L 543.356418 244.967812 
L 214.723125 244.967812 
z
" clip-path="url(#p163119401e)" style="fill: #2f6f9f"/>
   </g>
   <g id="patch_8">
    <path d="M 214.723125 239.849062 
L 560.754651 239.849062 
L 560.754651 219.374062 
L 214.723125 219.374062 
z
" clip-path="url(#p163119401e)" style="fill: #2f6f9f"/>
   </g>
   <g id="patch_9">
    <path d="M 214.723125 214.255312 
L 560.754651 214.255312 
L 560.754651 193.780312 
L 214.723125 193.780312 
z
" clip-path="url(#p163119401e)" style="fill: #2f6f9f"/>
   </g>
   <g id="patch_10">
    <path d="M 214.723125 188.661562 
L 578.152884 188.661562 
L 578.152884 168.186562 
L 214.723125 168.186562 
z
" clip-path="url(#p163119401e)" style="fill: #e8833a"/>
   </g>
   <g id="patch_11">
    <path d="M 214.723125 163.067812 
L 593.61798 163.067812 
L 593.61798 142.592812 
L 214.723125 142.592812 
z
" clip-path="url(#p163119401e)" style="fill: #e8833a"/>
   </g>
   <g id="patch_12">
    <path d="M 214.723125 137.474062 
L 597.484254 137.474062 
L 597.484254 116.999062 
L 214.723125 116.999062 
z
" clip-path="url(#p163119401e)" style="fill: #e8833a"/>
   </g>
   <g id="patch_13">
    <path d="M 214.723125 111.880312 
L 599.417391 111.880312 
L 599.417391 91.405312 
L 214.723125 91.405312 
z
" clip-path="url(#p163119401e)" style="fill: #e8833a"/>
   </g>
   <g id="patch_14">
    <path d="M 214.723125 86.286562 
L 655.478365 86.286562 
L 655.478365 65.811562 
L 214.723125 65.811562 
z
" clip-path="url(#p163119401e)" style="fill: #e8833a"/>
   </g>
   <g id="patch_15">
    <path d="M 214.723125 60.692812 
L 699.940516 60.692812 
L 699.940516 40.217812 
L 214.723125 40.217812 
z
" clip-path="url(#p163119401e)" style="fill: #c0392b"/>
   </g>
   <g id="matplotlib.axis_1">
    <g id="xtick_1">
     <g id="line2d_1">
      <path d="M 214.723125 384.197812 
L 214.723125 23.837812 
" clip-path="url(#p163119401e)" style="fill: none; stroke: #e8ecf0; stroke-width: 0.8; stroke-linecap: square"/>
     </g>
     <g id="line2d_2">
      <defs>
       <path id="m11cf7fe1ef" d="M 0 0 
L 0 3.5 
" style="stroke: #000000; stroke-width: 0.8"/>
      </defs>
      <g>
       <use xlink:href="#m11cf7fe1ef" x="214.723125" y="384.197812" style="stroke: #000000; stroke-width: 0.8"/>
      </g>
     </g>
     <g id="text_1">
      <!-- 0 -->
      <g transform="translate(211.22375 399.556094) scale(0.11 -0.11)">
       <defs>
        <path id="DejaVuSans-30" d="M 2034 4250 
Q 1547 4250 1301 3770 
Q 1056 3291 1056 2328 
Q 1056 1369 1301 889 
Q 1547 409 2034 409 
Q 2525 409 2770 889 
Q 3016 1369 3016 2328 
Q 3016 3291 2770 3770 
Q 2525 4250 2034 4250 
z
M 2034 4750 
Q 2819 4750 3233 4129 
Q 3647 3509 3647 2328 
Q 3647 1150 3233 529 
Q 2819 -91 2034 -91 
Q 1250 -91 836 529 
Q 422 1150 422 2328 
Q 422 3509 836 4129 
Q 1250 4750 2034 4750 
z
" transform="scale(0.015625)"/>
       </defs>
       <use xlink:href="#DejaVuSans-30"/>
      </g>
     </g>
    </g>
    <g id="xtick_2">
     <g id="line2d_3">
      <path d="M 330.711346 384.197812 
L 330.711346 23.837812 
" clip-path="url(#p163119401e)" style="fill: none; stroke: #e8ecf0; stroke-width: 0.8; stroke-linecap: square"/>
     </g>
     <g id="line2d_4">
      <g>
       <use xlink:href="#m11cf7fe1ef" x="330.711346" y="384.197812" style="stroke: #000000; stroke-width: 0.8"/>
      </g>
     </g>
     <g id="text_2">
      <!-- 1 -->
      <g transform="translate(327.211971 399.556094) scale(0.11 -0.11)">
       <defs>
        <path id="DejaVuSans-31" d="M 794 531 
L 1825 531 
L 1825 4091 
L 703 3866 
L 703 4441 
L 1819 4666 
L 2450 4666 
L 2450 531 
L 3481 531 
L 3481 0 
L 794 0 
L 794 531 
z
" transform="scale(0.015625)"/>
       </defs>
       <use xlink:href="#DejaVuSans-31"/>
      </g>
     </g>
    </g>
    <g id="xtick_3">
     <g id="line2d_5">
      <path d="M 446.699567 384.197812 
L 446.699567 23.837812 
" clip-path="url(#p163119401e)" style="fill: none; stroke: #e8ecf0; stroke-width: 0.8; stroke-linecap: square"/>
     </g>
     <g id="line2d_6">
      <g>
       <use xlink:href="#m11cf7fe1ef" x="446.699567" y="384.197812" style="stroke: #000000; stroke-width: 0.8"/>
      </g>
     </g>
     <g id="text_3">
      <!-- 2 -->
      <g transform="translate(443.200192 399.556094) scale(0.11 -0.11)">
       <defs>
        <path id="DejaVuSans-32" d="M 1228 531 
L 3431 531 
L 3431 0 
L 469 0 
L 469 531 
Q 828 903 1448 1529 
Q 2069 2156 2228 2338 
Q 2531 2678 2651 2914 
Q 2772 3150 2772 3378 
Q 2772 3750 2511 3984 
Q 2250 4219 1831 4219 
Q 1534 4219 1204 4116 
Q 875 4013 500 3803 
L 500 4441 
Q 881 4594 1212 4672 
Q 1544 4750 1819 4750 
Q 2544 4750 2975 4387 
Q 3406 4025 3406 3419 
Q 3406 3131 3298 2873 
Q 3191 2616 2906 2266 
Q 2828 2175 2409 1742 
Q 1991 1309 1228 531 
z
" transform="scale(0.015625)"/>
       </defs>
       <use xlink:href="#DejaVuSans-32"/>
      </g>
     </g>
    </g>
    <g id="xtick_4">
     <g id="line2d_7">
      <path d="M 562.687788 384.197812 
L 562.687788 23.837812 
" clip-path="url(#p163119401e)" style="fill: none; stroke: #e8ecf0; stroke-width: 0.8; stroke-linecap: square"/>
     </g>
     <g id="line2d_8">
      <g>
       <use xlink:href="#m11cf7fe1ef" x="562.687788" y="384.197812" style="stroke: #000000; stroke-width: 0.8"/>
      </g>
     </g>
     <g id="text_4">
      <!-- 3 -->
      <g transform="translate(559.188413 399.556094) scale(0.11 -0.11)">
       <defs>
        <path id="DejaVuSans-33" d="M 2597 2516 
Q 3050 2419 3304 2112 
Q 3559 1806 3559 1356 
Q 3559 666 3084 287 
Q 2609 -91 1734 -91 
Q 1441 -91 1130 -33 
Q 819 25 488 141 
L 488 750 
Q 750 597 1062 519 
Q 1375 441 1716 441 
Q 2309 441 2620 675 
Q 2931 909 2931 1356 
Q 2931 1769 2642 2001 
Q 2353 2234 1838 2234 
L 1294 2234 
L 1294 2753 
L 1863 2753 
Q 2328 2753 2575 2939 
Q 2822 3125 2822 3475 
Q 2822 3834 2567 4026 
Q 2313 4219 1838 4219 
Q 1578 4219 1281 4162 
Q 984 4106 628 3988 
L 628 4550 
Q 988 4650 1302 4700 
Q 1616 4750 1894 4750 
Q 2613 4750 3031 4423 
Q 3450 4097 3450 3541 
Q 3450 3153 3228 2886 
Q 3006 2619 2597 2516 
z
" transform="scale(0.015625)"/>
       </defs>
       <use xlink:href="#DejaVuSans-33"/>
      </g>
     </g>
    </g>
    <g id="xtick_5">
     <g id="line2d_9">
      <path d="M 678.676009 384.197812 
L 678.676009 23.837812 
" clip-path="url(#p163119401e)" style="fill: none; stroke: #e8ecf0; stroke-width: 0.8; stroke-linecap: square"/>
     </g>
     <g id="line2d_10">
      <g>
       <use xlink:href="#m11cf7fe1ef" x="678.676009" y="384.197812" style="stroke: #000000; stroke-width: 0.8"/>
      </g>
     </g>
     <g id="text_5">
      <!-- 4 -->
      <g transform="translate(675.176634 399.556094) scale(0.11 -0.11)">
       <defs>
        <path id="DejaVuSans-34" d="M 2419 4116 
L 825 1625 
L 2419 1625 
L 2419 4116 
z
M 2253 4666 
L 3047 4666 
L 3047 1625 
L 3713 1625 
L 3713 1100 
L 3047 1100 
L 3047 0 
L 2419 0 
L 2419 1100 
L 313 1100 
L 313 1709 
L 2253 4666 
z
" transform="scale(0.015625)"/>
       </defs>
       <use xlink:href="#DejaVuSans-34"/>
      </g>
     </g>
    </g>
    <g id="text_6">
     <!-- Часы -->
     <g transform="translate(479.215156 414.202031) scale(0.11 -0.11)">
      <defs>
       <path id="DejaVuSans-427" d="M 3125 0 
L 3125 1913 
L 1822 1913 
Q 1241 1913 894 2277 
Q 547 2641 547 3384 
L 547 4666 
L 1175 4666 
L 1175 3434 
Q 1175 2938 1369 2691 
Q 1563 2444 1950 2444 
L 3125 2444 
L 3125 4666 
L 3759 4666 
L 3759 0 
L 3125 0 
z
" transform="scale(0.015625)"/>
       <path id="DejaVuSans-430" d="M 2194 1759 
Q 1497 1759 1228 1600 
Q 959 1441 959 1056 
Q 959 750 1161 570 
Q 1363 391 1709 391 
Q 2188 391 2477 730 
Q 2766 1069 2766 1631 
L 2766 1759 
L 2194 1759 
z
M 3341 1997 
L 3341 0 
L 2766 0 
L 2766 531 
Q 2569 213 2275 61 
Q 1981 -91 1556 -91 
Q 1019 -91 701 211 
Q 384 513 384 1019 
Q 384 1609 779 1909 
Q 1175 2209 1959 2209 
L 2766 2209 
L 2766 2266 
Q 2766 2663 2505 2880 
Q 2244 3097 1772 3097 
Q 1472 3097 1187 3025 
Q 903 2953 641 2809 
L 641 3341 
Q 956 3463 1253 3523 
Q 1550 3584 1831 3584 
Q 2591 3584 2966 3190 
Q 3341 2797 3341 1997 
z
" transform="scale(0.015625)"/>
       <path id="DejaVuSans-441" d="M 3122 3366 
L 3122 2828 
Q 2878 2963 2633 3030 
Q 2388 3097 2138 3097 
Q 1578 3097 1268 2742 
Q 959 2388 959 1747 
Q 959 1106 1268 751 
Q 1578 397 2138 397 
Q 2388 397 2633 464 
Q 2878 531 3122 666 
L 3122 134 
Q 2881 22 2623 -34 
Q 2366 -91 2075 -91 
Q 1284 -91 818 406 
Q 353 903 353 1747 
Q 353 2603 823 3093 
Q 1294 3584 2113 3584 
Q 2378 3584 2631 3529 
Q 2884 3475 3122 3366 
z
" transform="scale(0.015625)"/>
       <path id="DejaVuSans-44b" d="M 3907 3500 
L 4482 3500 
L 4482 0 
L 3907 0 
L 3907 3500 
z
M 4195 3584 
L 4195 3584 
z
M 2781 1038 
Q 2781 1319 2576 1466 
Q 2372 1613 1978 1613 
L 1159 1613 
L 1159 459 
L 1978 459 
Q 2372 459 2576 607 
Q 2781 756 2781 1038 
z
M 581 3500 
L 1159 3500 
L 1159 2072 
L 2003 2072 
Q 2672 2072 3033 1817 
Q 3394 1563 3394 1038 
Q 3394 513 3033 256 
Q 2672 0 2003 0 
L 581 0 
L 581 3500 
z
" transform="scale(0.015625)"/>
      </defs>
      <use xlink:href="#DejaVuSans-427"/>
      <use xlink:href="#DejaVuSans-430" x="68.554688"/>
      <use xlink:href="#DejaVuSans-441" x="129.833984"/>
      <use xlink:href="#DejaVuSans-44b" x="184.814453"/>
     </g>
    </g>
   </g>
   <g id="matplotlib.axis_2">
    <g id="ytick_1">
     <g id="line2d_11">
      <path d="M 214.723125 357.580312 
L 772.723125 357.580312 
" clip-path="url(#p163119401e)" style="fill: none; stroke: #e8ecf0; stroke-width: 0.8; stroke-linecap: square"/>
     </g>
     <g id="line2d_12">
      <defs>
       <path id="m8651a3fdd7" d="M 0 0 
L -3.5 0 
" style="stroke: #000000; stroke-width: 0.8"/>
      </defs>
      <g>
       <use xlink:href="#m8651a3fdd7" x="214.723125" y="357.580312" style="stroke: #000000; stroke-width: 0.8"/>
      </g>
     </g>
     <g id="text_7">
      <!-- Принтеры посадочных талонов -->
      <g transform="translate(25.044062 361.759453) scale(0.11 -0.11)">
       <defs>
        <path id="DejaVuSans-41f" d="M 4184 4666 
L 4184 0 
L 3553 0 
L 3553 4134 
L 1259 4134 
L 1259 0 
L 628 0 
L 628 4666 
L 4184 4666 
z
" transform="scale(0.015625)"/>
        <path id="DejaVuSans-440" d="M 1159 525 
L 1159 -1331 
L 581 -1331 
L 581 3500 
L 1159 3500 
L 1159 2969 
Q 1341 3281 1617 3432 
Q 1894 3584 2278 3584 
Q 2916 3584 3314 3078 
Q 3713 2572 3713 1747 
Q 3713 922 3314 415 
Q 2916 -91 2278 -91 
Q 1894 -91 1617 61 
Q 1341 213 1159 525 
z
M 3116 1747 
Q 3116 2381 2855 2742 
Q 2594 3103 2138 3103 
Q 1681 3103 1420 2742 
Q 1159 2381 1159 1747 
Q 1159 1113 1420 752 
Q 1681 391 2138 391 
Q 2594 391 2855 752 
Q 3116 1113 3116 1747 
z
" transform="scale(0.015625)"/>
        <path id="DejaVuSans-438" d="M 3578 3500 
L 3578 0 
L 3006 0 
L 3006 2809 
L 1319 0 
L 581 0 
L 581 3500 
L 1153 3500 
L 1153 697 
L 2838 3500 
L 3578 3500 
z
" transform="scale(0.015625)"/>
        <path id="DejaVuSans-43d" d="M 581 3500 
L 1159 3500 
L 1159 2072 
L 3025 2072 
L 3025 3500 
L 3603 3500 
L 3603 0 
L 3025 0 
L 3025 1613 
L 1159 1613 
L 1159 0 
L 581 0 
L 581 3500 
z
" transform="scale(0.015625)"/>
        <path id="DejaVuSans-442" d="M 188 3500 
L 3541 3500 
L 3541 3041 
L 2147 3041 
L 2147 0 
L 1581 0 
L 1581 3041 
L 188 3041 
L 188 3500 
z
" transform="scale(0.015625)"/>
        <path id="DejaVuSans-435" d="M 3597 1894 
L 3597 1613 
L 953 1613 
Q 991 1019 1311 708 
Q 1631 397 2203 397 
Q 2534 397 2845 478 
Q 3156 559 3463 722 
L 3463 178 
Q 3153 47 2828 -22 
Q 2503 -91 2169 -91 
Q 1331 -91 842 396 
Q 353 884 353 1716 
Q 353 2575 817 3079 
Q 1281 3584 2069 3584 
Q 2775 3584 3186 3129 
Q 3597 2675 3597 1894 
z
M 3022 2063 
Q 3016 2534 2758 2815 
Q 2500 3097 2075 3097 
Q 1594 3097 1305 2825 
Q 1016 2553 972 2059 
L 3022 2063 
z
" transform="scale(0.015625)"/>
        <path id="DejaVuSans-20" transform="scale(0.015625)"/>
        <path id="DejaVuSans-43f" d="M 3603 3500 
L 3603 0 
L 3025 0 
L 3025 3041 
L 1159 3041 
L 1159 0 
L 581 0 
L 581 3500 
L 3603 3500 
z
" transform="scale(0.015625)"/>
        <path id="DejaVuSans-43e" d="M 1959 3097 
Q 1497 3097 1228 2736 
Q 959 2375 959 1747 
Q 959 1119 1226 758 
Q 1494 397 1959 397 
Q 2419 397 2687 759 
Q 2956 1122 2956 1747 
Q 2956 2369 2687 2733 
Q 2419 3097 1959 3097 
z
M 1959 3584 
Q 2709 3584 3137 3096 
Q 3566 2609 3566 1747 
Q 3566 888 3137 398 
Q 2709 -91 1959 -91 
Q 1206 -91 779 398 
Q 353 888 353 1747 
Q 353 2609 779 3096 
Q 1206 3584 1959 3584 
z
" transform="scale(0.015625)"/>
        <path id="DejaVuSans-434" d="M 1384 459 
L 3053 459 
L 3053 3041 
L 1844 3041 
L 1844 2603 
Q 1844 1316 1475 628 
L 1384 459 
z
M 550 459 
Q 834 584 959 850 
Q 1266 1509 1266 2838 
L 1266 3500 
L 3631 3500 
L 3631 459 
L 4091 459 
L 4091 -884 
L 3631 -884 
L 3631 0 
L 794 0 
L 794 -884 
L 334 -884 
L 334 459 
L 550 459 
z
" transform="scale(0.015625)"/>
        <path id="DejaVuSans-447" d="M 2625 0 
L 2625 1472 
L 1553 1472 
Q 1075 1472 756 1769 
Q 469 2038 469 2613 
L 469 3500 
L 1044 3500 
L 1044 2666 
Q 1044 2300 1206 2116 
Q 1372 1931 1697 1931 
L 2625 1931 
L 2625 3500 
L 3200 3500 
L 3200 0 
L 2625 0 
z
" transform="scale(0.015625)"/>
        <path id="DejaVuSans-445" d="M 3513 3500 
L 2247 1797 
L 3578 0 
L 2900 0 
L 1881 1375 
L 863 0 
L 184 0 
L 1544 1831 
L 300 3500 
L 978 3500 
L 1906 2253 
L 2834 3500 
L 3513 3500 
z
" transform="scale(0.015625)"/>
        <path id="DejaVuSans-43b" d="M 238 0 
L 238 478 
Q 806 566 981 959 
Q 1194 1513 1194 2928 
L 1194 3500 
L 3559 3500 
L 3559 0 
L 2984 0 
L 2984 3041 
L 1769 3041 
L 1769 2694 
Q 1769 1344 1494 738 
Q 1200 91 238 0 
z
" transform="scale(0.015625)"/>
        <path id="DejaVuSans-432" d="M 1156 1613 
L 1156 459 
L 1975 459 
Q 2369 459 2575 607 
Q 2781 756 2781 1038 
Q 2781 1319 2575 1466 
Q 2369 1613 1975 1613 
L 1156 1613 
z
M 1156 3041 
L 1156 2072 
L 1913 2072 
Q 2238 2072 2444 2201 
Q 2650 2331 2650 2563 
Q 2650 2794 2444 2917 
Q 2238 3041 1913 3041 
L 1156 3041 
z
M 581 3500 
L 1950 3500 
Q 2566 3500 2897 3275 
Q 3228 3050 3228 2634 
Q 3228 2313 3059 2123 
Q 2891 1934 2559 1888 
Q 2956 1813 3175 1575 
Q 3394 1338 3394 981 
Q 3394 513 3033 256 
Q 2672 0 2003 0 
L 581 0 
L 581 3500 
z
" transform="scale(0.015625)"/>
       </defs>
       <use xlink:href="#DejaVuSans-41f"/>
       <use xlink:href="#DejaVuSans-440" x="75.195312"/>
       <use xlink:href="#DejaVuSans-438" x="138.671875"/>
       <use xlink:href="#DejaVuSans-43d" x="203.662109"/>
       <use xlink:href="#DejaVuSans-442" x="269.042969"/>
       <use xlink:href="#DejaVuSans-435" x="327.294922"/>
       <use xlink:href="#DejaVuSans-440" x="388.818359"/>
       <use xlink:href="#DejaVuSans-44b" x="452.294922"/>
       <use xlink:href="#DejaVuSans-20" x="531.25"/>
       <use xlink:href="#DejaVuSans-43f" x="563.037109"/>
       <use xlink:href="#DejaVuSans-43e" x="628.417969"/>
       <use xlink:href="#DejaVuSans-441" x="689.599609"/>
       <use xlink:href="#DejaVuSans-430" x="744.580078"/>
       <use xlink:href="#DejaVuSans-434" x="805.859375"/>
       <use xlink:href="#DejaVuSans-43e" x="875"/>
       <use xlink:href="#DejaVuSans-447" x="936.181641"/>
       <use xlink:href="#DejaVuSans-43d" x="995.263672"/>
       <use xlink:href="#DejaVuSans-44b" x="1060.644531"/>
       <use xlink:href="#DejaVuSans-445" x="1139.599609"/>
       <use xlink:href="#DejaVuSans-20" x="1198.779297"/>
       <use xlink:href="#DejaVuSans-442" x="1230.566406"/>
       <use xlink:href="#DejaVuSans-430" x="1288.818359"/>
       <use xlink:href="#DejaVuSans-43b" x="1350.097656"/>
       <use xlink:href="#DejaVuSans-43e" x="1414.013672"/>
       <use xlink:href="#DejaVuSans-43d" x="1475.195312"/>
       <use xlink:href="#DejaVuSans-43e" x="1540.576172"/>
       <use xlink:href="#DejaVuSans-432" x="1601.757812"/>
      </g>
     </g>
    </g>
    <g id="ytick_2">
     <g id="line2d_13">
      <path d="M 214.723125 331.986562 
L 772.723125 331.986562 
" clip-path="url(#p163119401e)" style="fill: none; stroke: #e8ecf0; stroke-width: 0.8; stroke-linecap: square"/>
     </g>
     <g id="line2d_14">
      <g>
       <use xlink:href="#m8651a3fdd7" x="214.723125" y="331.986562" style="stroke: #000000; stroke-width: 0.8"/>
      </g>
     </g>
     <g id="text_8">
      <!-- Рабочие станции (АРМ) -->
      <g transform="translate(73.024687 336.165703) scale(0.11 -0.11)">
       <defs>
        <path id="DejaVuSans-420" d="M 1259 4147 
L 1259 2394 
L 2053 2394 
Q 2494 2394 2734 2622 
Q 2975 2850 2975 3272 
Q 2975 3691 2734 3919 
Q 2494 4147 2053 4147 
L 1259 4147 
z
M 628 4666 
L 2053 4666 
Q 2838 4666 3239 4311 
Q 3641 3956 3641 3272 
Q 3641 2581 3239 2228 
Q 2838 1875 2053 1875 
L 1259 1875 
L 1259 0 
L 628 0 
L 628 4666 
z
" transform="scale(0.015625)"/>
        <path id="DejaVuSans-431" d="M 1991 3584 
Q 2741 3584 3169 3096 
Q 3597 2609 3597 1747 
Q 3597 888 3169 398 
Q 2741 -91 1991 -91 
Q 1238 -91 822 384 
Q 406 859 384 1747 
L 366 2463 
Q 350 2834 350 2963 
Q 350 3463 531 3831 
Q 816 4409 1308 4659 
Q 1800 4909 2625 4916 
Q 3006 4919 3175 4972 
L 3334 4516 
Q 3181 4453 3041 4450 
L 2259 4397 
Q 1866 4369 1628 4231 
Q 1006 3866 947 3388 
L 925 3213 
Q 1331 3584 1991 3584 
z
M 1991 3097 
Q 1528 3097 1259 2736 
Q 991 2375 991 1747 
Q 991 1119 1258 758 
Q 1525 397 1991 397 
Q 2450 397 2719 759 
Q 2988 1122 2988 1747 
Q 2988 2369 2719 2733 
Q 2450 3097 1991 3097 
z
" transform="scale(0.015625)"/>
        <path id="DejaVuSans-446" d="M 3603 0 
L 581 0 
L 581 3500 
L 1159 3500 
L 1159 459 
L 3025 459 
L 3025 3500 
L 3603 3500 
L 3603 459 
L 4063 459 
L 4063 -884 
L 3603 -884 
L 3603 0 
z
" transform="scale(0.015625)"/>
        <path id="DejaVuSans-28" d="M 1984 4856 
Q 1566 4138 1362 3434 
Q 1159 2731 1159 2009 
Q 1159 1288 1364 580 
Q 1569 -128 1984 -844 
L 1484 -844 
Q 1016 -109 783 600 
Q 550 1309 550 2009 
Q 550 2706 781 3412 
Q 1013 4119 1484 4856 
L 1984 4856 
z
" transform="scale(0.015625)"/>
        <path id="DejaVuSans-410" d="M 2188 4044 
L 1331 1722 
L 3047 1722 
L 2188 4044 
z
M 1831 4666 
L 2547 4666 
L 4325 0 
L 3669 0 
L 3244 1197 
L 1141 1197 
L 716 0 
L 50 0 
L 1831 4666 
z
" transform="scale(0.015625)"/>
        <path id="DejaVuSans-41c" d="M 628 4666 
L 1569 4666 
L 2759 1491 
L 3956 4666 
L 4897 4666 
L 4897 0 
L 4281 0 
L 4281 4097 
L 3078 897 
L 2444 897 
L 1241 4097 
L 1241 0 
L 628 0 
L 628 4666 
z
" transform="scale(0.015625)"/>
        <path id="DejaVuSans-29" d="M 513 4856 
L 1013 4856 
Q 1481 4119 1714 3412 
Q 1947 2706 1947 2009 
Q 1947 1309 1714 600 
Q 1481 -109 1013 -844 
L 513 -844 
Q 928 -128 1133 580 
Q 1338 1288 1338 2009 
Q 1338 2731 1133 3434 
Q 928 4138 513 4856 
z
" transform="scale(0.015625)"/>
       </defs>
       <use xlink:href="#DejaVuSans-420"/>
       <use xlink:href="#DejaVuSans-430" x="60.302734"/>
       <use xlink:href="#DejaVuSans-431" x="121.582031"/>
       <use xlink:href="#DejaVuSans-43e" x="183.251953"/>
       <use xlink:href="#DejaVuSans-447" x="244.433594"/>
       <use xlink:href="#DejaVuSans-438" x="303.515625"/>
       <use xlink:href="#DejaVuSans-435" x="368.505859"/>
       <use xlink:href="#DejaVuSans-20" x="430.029297"/>
       <use xlink:href="#DejaVuSans-441" x="461.816406"/>
       <use xlink:href="#DejaVuSans-442" x="516.796875"/>
       <use xlink:href="#DejaVuSans-430" x="575.048828"/>
       <use xlink:href="#DejaVuSans-43d" x="636.328125"/>
       <use xlink:href="#DejaVuSans-446" x="701.708984"/>
       <use xlink:href="#DejaVuSans-438" x="769.775391"/>
       <use xlink:href="#DejaVuSans-438" x="834.765625"/>
       <use xlink:href="#DejaVuSans-20" x="899.755859"/>
       <use xlink:href="#DejaVuSans-28" x="931.542969"/>
       <use xlink:href="#DejaVuSans-410" x="970.556641"/>
       <use xlink:href="#DejaVuSans-420" x="1038.964844"/>
       <use xlink:href="#DejaVuSans-41c" x="1099.267578"/>
       <use xlink:href="#DejaVuSans-29" x="1185.546875"/>
      </g>
     </g>
    </g>
    <g id="ytick_3">
     <g id="line2d_15">
      <path d="M 214.723125 306.392812 
L 772.723125 306.392812 
" clip-path="url(#p163119401e)" style="fill: none; stroke: #e8ecf0; stroke-width: 0.8; stroke-linecap: square"/>
     </g>
     <g id="line2d_16">
      <g>
       <use xlink:href="#m8651a3fdd7" x="214.723125" y="306.392812" style="stroke: #000000; stroke-width: 0.8"/>
      </g>
     </g>
     <g id="text_9">
      <!-- Кассовые системы (POS) -->
      <g transform="translate(65.154531 310.571953) scale(0.11 -0.11)">
       <defs>
        <path id="DejaVuSans-41a" d="M 628 4666 
L 1259 4666 
L 1259 2359 
L 3516 4666 
L 4325 4666 
L 2522 2822 
L 4419 0 
L 3731 0 
L 2113 2403 
L 1259 1531 
L 1259 0 
L 628 0 
L 628 4666 
z
" transform="scale(0.015625)"/>
        <path id="DejaVuSans-43c" d="M 581 3500 
L 1422 3500 
L 2416 1156 
L 3413 3500 
L 4247 3500 
L 4247 0 
L 3669 0 
L 3669 2950 
L 2703 672 
L 2128 672 
L 1159 2950 
L 1159 0 
L 581 0 
L 581 3500 
z
" transform="scale(0.015625)"/>
        <path id="DejaVuSans-50" d="M 1259 4147 
L 1259 2394 
L 2053 2394 
Q 2494 2394 2734 2622 
Q 2975 2850 2975 3272 
Q 2975 3691 2734 3919 
Q 2494 4147 2053 4147 
L 1259 4147 
z
M 628 4666 
L 2053 4666 
Q 2838 4666 3239 4311 
Q 3641 3956 3641 3272 
Q 3641 2581 3239 2228 
Q 2838 1875 2053 1875 
L 1259 1875 
L 1259 0 
L 628 0 
L 628 4666 
z
" transform="scale(0.015625)"/>
        <path id="DejaVuSans-4f" d="M 2522 4238 
Q 1834 4238 1429 3725 
Q 1025 3213 1025 2328 
Q 1025 1447 1429 934 
Q 1834 422 2522 422 
Q 3209 422 3611 934 
Q 4013 1447 4013 2328 
Q 4013 3213 3611 3725 
Q 3209 4238 2522 4238 
z
M 2522 4750 
Q 3503 4750 4090 4092 
Q 4678 3434 4678 2328 
Q 4678 1225 4090 567 
Q 3503 -91 2522 -91 
Q 1538 -91 948 565 
Q 359 1222 359 2328 
Q 359 3434 948 4092 
Q 1538 4750 2522 4750 
z
" transform="scale(0.015625)"/>
        <path id="DejaVuSans-53" d="M 3425 4513 
L 3425 3897 
Q 3066 4069 2747 4153 
Q 2428 4238 2131 4238 
Q 1616 4238 1336 4038 
Q 1056 3838 1056 3469 
Q 1056 3159 1242 3001 
Q 1428 2844 1947 2747 
L 2328 2669 
Q 3034 2534 3370 2195 
Q 3706 1856 3706 1288 
Q 3706 609 3251 259 
Q 2797 -91 1919 -91 
Q 1588 -91 1214 -16 
Q 841 59 441 206 
L 441 856 
Q 825 641 1194 531 
Q 1563 422 1919 422 
Q 2459 422 2753 634 
Q 3047 847 3047 1241 
Q 3047 1584 2836 1778 
Q 2625 1972 2144 2069 
L 1759 2144 
Q 1053 2284 737 2584 
Q 422 2884 422 3419 
Q 422 4038 858 4394 
Q 1294 4750 2059 4750 
Q 2388 4750 2728 4690 
Q 3069 4631 3425 4513 
z
" transform="scale(0.015625)"/>
       </defs>
       <use xlink:href="#DejaVuSans-41a"/>
       <use xlink:href="#DejaVuSans-430" x="70.996094"/>
       <use xlink:href="#DejaVuSans-441" x="132.275391"/>
       <use xlink:href="#DejaVuSans-441" x="187.255859"/>
       <use xlink:href="#DejaVuSans-43e" x="242.236328"/>
       <use xlink:href="#DejaVuSans-432" x="303.417969"/>
       <use xlink:href="#DejaVuSans-44b" x="362.353516"/>
       <use xlink:href="#DejaVuSans-435" x="441.308594"/>
       <use xlink:href="#DejaVuSans-20" x="502.832031"/>
       <use xlink:href="#DejaVuSans-441" x="534.619141"/>
       <use xlink:href="#DejaVuSans-438" x="589.599609"/>
       <use xlink:href="#DejaVuSans-441" x="654.589844"/>
       <use xlink:href="#DejaVuSans-442" x="709.570312"/>
       <use xlink:href="#DejaVuSans-435" x="767.822266"/>
       <use xlink:href="#DejaVuSans-43c" x="829.345703"/>
       <use xlink:href="#DejaVuSans-44b" x="904.785156"/>
       <use xlink:href="#DejaVuSans-20" x="983.740234"/>
       <use xlink:href="#DejaVuSans-28" x="1015.527344"/>
       <use xlink:href="#DejaVuSans-50" x="1054.541016"/>
       <use xlink:href="#DejaVuSans-4f" x="1114.84375"/>
       <use xlink:href="#DejaVuSans-53" x="1193.554688"/>
       <use xlink:href="#DejaVuSans-29" x="1257.03125"/>
      </g>
     </g>
    </g>
    <g id="ytick_4">
     <g id="line2d_17">
      <path d="M 214.723125 280.799062 
L 772.723125 280.799062 
" clip-path="url(#p163119401e)" style="fill: none; stroke: #e8ecf0; stroke-width: 0.8; stroke-linecap: square"/>
     </g>
     <g id="line2d_18">
      <g>
       <use xlink:href="#m8651a3fdd7" x="214.723125" y="280.799062" style="stroke: #000000; stroke-width: 0.8"/>
      </g>
     </g>
     <g id="text_10">
      <!-- Система контроля доступа (СКУД) -->
      <g transform="translate(7.2 284.978203) scale(0.11 -0.11)">
       <defs>
        <path id="DejaVuSans-421" d="M 4122 4306 
L 4122 3641 
Q 3803 3938 3442 4084 
Q 3081 4231 2675 4231 
Q 1875 4231 1450 3742 
Q 1025 3253 1025 2328 
Q 1025 1406 1450 917 
Q 1875 428 2675 428 
Q 3081 428 3442 575 
Q 3803 722 4122 1019 
L 4122 359 
Q 3791 134 3420 21 
Q 3050 -91 2638 -91 
Q 1578 -91 968 557 
Q 359 1206 359 2328 
Q 359 3453 968 4101 
Q 1578 4750 2638 4750 
Q 3056 4750 3426 4639 
Q 3797 4528 4122 4306 
z
" transform="scale(0.015625)"/>
        <path id="DejaVuSans-43a" d="M 581 3500 
L 1153 3500 
L 1153 1856 
L 2775 3500 
L 3481 3500 
L 2144 2147 
L 3653 0 
L 3009 0 
L 1769 1766 
L 1153 1141 
L 1153 0 
L 581 0 
L 581 3500 
z
" transform="scale(0.015625)"/>
        <path id="DejaVuSans-44f" d="M 1181 2491 
Q 1181 2231 1381 2084 
Q 1581 1938 1953 1938 
L 2728 1938 
L 2728 3041 
L 1953 3041 
Q 1581 3041 1381 2897 
Q 1181 2753 1181 2491 
z
M 363 0 
L 1431 1534 
Q 1069 1616 828 1830 
Q 588 2044 588 2491 
Q 588 2997 923 3248 
Q 1259 3500 1938 3500 
L 3306 3500 
L 3306 0 
L 2728 0 
L 2728 1478 
L 2013 1478 
L 981 0 
L 363 0 
z
" transform="scale(0.015625)"/>
        <path id="DejaVuSans-443" d="M 2059 -325 
Q 1816 -950 1584 -1140 
Q 1353 -1331 966 -1331 
L 506 -1331 
L 506 -850 
L 844 -850 
Q 1081 -850 1212 -737 
Q 1344 -625 1503 -206 
L 1606 56 
L 191 3500 
L 800 3500 
L 1894 763 
L 2988 3500 
L 3597 3500 
L 2059 -325 
z
" transform="scale(0.015625)"/>
        <path id="DejaVuSans-423" d="M 2047 566 
Q 1981 409 1881 291 
Q 1634 0 850 0 
L 609 0 
L 609 531 
L 806 531 
Q 1178 531 1322 616 
Q 1409 669 1466 800 
L 1606 1131 
L 109 4666 
L 788 4666 
L 1947 1928 
L 3113 4666 
L 3791 4666 
L 2047 566 
z
" transform="scale(0.015625)"/>
        <path id="DejaVuSans-414" d="M 1459 531 
L 3522 531 
L 3522 4134 
L 2006 4134 
L 2006 3472 
Q 2006 1913 1656 878 
Q 1584 666 1459 531 
z
M 538 531 
Q 956 728 1075 1103 
Q 1378 2066 1378 3784 
L 1378 4666 
L 4153 4666 
L 4153 531 
L 4684 531 
L 4684 -1003 
L 4153 -1003 
L 4153 0 
L 847 0 
L 847 -1003 
L 316 -1003 
L 316 531 
L 538 531 
z
" transform="scale(0.015625)"/>
       </defs>
       <use xlink:href="#DejaVuSans-421"/>
       <use xlink:href="#DejaVuSans-438" x="69.824219"/>
       <use xlink:href="#DejaVuSans-441" x="134.814453"/>
       <use xlink:href="#DejaVuSans-442" x="189.794922"/>
       <use xlink:href="#DejaVuSans-435" x="248.046875"/>
       <use xlink:href="#DejaVuSans-43c" x="309.570312"/>
       <use xlink:href="#DejaVuSans-430" x="385.009766"/>
       <use xlink:href="#DejaVuSans-20" x="446.289062"/>
       <use xlink:href="#DejaVuSans-43a" x="478.076172"/>
       <use xlink:href="#DejaVuSans-43e" x="538.476562"/>
       <use xlink:href="#DejaVuSans-43d" x="599.658203"/>
       <use xlink:href="#DejaVuSans-442" x="665.039062"/>
       <use xlink:href="#DejaVuSans-440" x="723.291016"/>
       <use xlink:href="#DejaVuSans-43e" x="786.767578"/>
       <use xlink:href="#DejaVuSans-43b" x="847.949219"/>
       <use xlink:href="#DejaVuSans-44f" x="911.865234"/>
       <use xlink:href="#DejaVuSans-20" x="972.021484"/>
       <use xlink:href="#DejaVuSans-434" x="1003.808594"/>
       <use xlink:href="#DejaVuSans-43e" x="1072.949219"/>
       <use xlink:href="#DejaVuSans-441" x="1134.130859"/>
       <use xlink:href="#DejaVuSans-442" x="1189.111328"/>
       <use xlink:href="#DejaVuSans-443" x="1247.363281"/>
       <use xlink:href="#DejaVuSans-43f" x="1306.542969"/>
       <use xlink:href="#DejaVuSans-430" x="1371.923828"/>
       <use xlink:href="#DejaVuSans-20" x="1433.203125"/>
       <use xlink:href="#DejaVuSans-28" x="1464.990234"/>
       <use xlink:href="#DejaVuSans-421" x="1504.003906"/>
       <use xlink:href="#DejaVuSans-41a" x="1573.828125"/>
       <use xlink:href="#DejaVuSans-423" x="1644.824219"/>
       <use xlink:href="#DejaVuSans-414" x="1705.761719"/>
       <use xlink:href="#DejaVuSans-29" x="1783.886719"/>
      </g>
     </g>
    </g>
    <g id="ytick_5">
     <g id="line2d_19">
      <path d="M 214.723125 255.205312 
L 772.723125 255.205312 
" clip-path="url(#p163119401e)" style="fill: none; stroke: #e8ecf0; stroke-width: 0.8; stroke-linecap: square"/>
     </g>
     <g id="line2d_20">
      <g>
       <use xlink:href="#m8651a3fdd7" x="214.723125" y="255.205312" style="stroke: #000000; stroke-width: 0.8"/>
      </g>
     </g>
     <g id="text_11">
      <!-- Пассажирский Wi-Fi и сеть -->
      <g transform="translate(53.259062 259.384453) scale(0.11 -0.11)">
       <defs>
        <path id="DejaVuSans-436" d="M 2597 3500 
L 3169 3500 
L 3169 1856 
L 4697 3500 
L 5366 3500 
L 4109 2153 
L 5547 0 
L 4931 0 
L 3753 1769 
L 3169 1141 
L 3169 0 
L 2597 0 
L 2597 1141 
L 2013 1769 
L 834 0 
L 219 0 
L 1656 2153 
L 400 3500 
L 1069 3500 
L 2597 1856 
L 2597 3500 
z
" transform="scale(0.015625)"/>
        <path id="DejaVuSans-439" d="M 3578 3500 
L 3578 0 
L 3006 0 
L 3006 2809 
L 1319 0 
L 581 0 
L 581 3500 
L 1153 3500 
L 1153 697 
L 2838 3500 
L 3578 3500 
z
M 1102 4833 
L 1471 4833 
Q 1505 4599 1656 4481 
Q 1808 4364 2080 4364 
Q 2349 4364 2499 4480 
Q 2649 4596 2689 4833 
L 3058 4833 
Q 3027 4386 2780 4161 
Q 2533 3936 2080 3936 
Q 1627 3936 1380 4161 
Q 1133 4386 1102 4833 
z
" transform="scale(0.015625)"/>
        <path id="DejaVuSans-57" d="M 213 4666 
L 850 4666 
L 1831 722 
L 2809 4666 
L 3519 4666 
L 4500 722 
L 5478 4666 
L 6119 4666 
L 4947 0 
L 4153 0 
L 3169 4050 
L 2175 0 
L 1381 0 
L 213 4666 
z
" transform="scale(0.015625)"/>
        <path id="DejaVuSans-69" d="M 603 3500 
L 1178 3500 
L 1178 0 
L 603 0 
L 603 3500 
z
M 603 4863 
L 1178 4863 
L 1178 4134 
L 603 4134 
L 603 4863 
z
" transform="scale(0.015625)"/>
        <path id="DejaVuSans-2d" d="M 313 2009 
L 1997 2009 
L 1997 1497 
L 313 1497 
L 313 2009 
z
" transform="scale(0.015625)"/>
        <path id="DejaVuSans-46" d="M 628 4666 
L 3309 4666 
L 3309 4134 
L 1259 4134 
L 1259 2759 
L 3109 2759 
L 3109 2228 
L 1259 2228 
L 1259 0 
L 628 0 
L 628 4666 
z
" transform="scale(0.015625)"/>
        <path id="DejaVuSans-44c" d="M 2781 1038 
Q 2781 1319 2576 1466 
Q 2372 1613 1978 1613 
L 1159 1613 
L 1159 459 
L 1978 459 
Q 2372 459 2576 607 
Q 2781 756 2781 1038 
z
M 581 3500 
L 1159 3500 
L 1159 2072 
L 2003 2072 
Q 2672 2072 3033 1817 
Q 3394 1563 3394 1038 
Q 3394 513 3033 256 
Q 2672 0 2003 0 
L 581 0 
L 581 3500 
z
" transform="scale(0.015625)"/>
       </defs>
       <use xlink:href="#DejaVuSans-41f"/>
       <use xlink:href="#DejaVuSans-430" x="75.195312"/>
       <use xlink:href="#DejaVuSans-441" x="136.474609"/>
       <use xlink:href="#DejaVuSans-441" x="191.455078"/>
       <use xlink:href="#DejaVuSans-430" x="246.435547"/>
       <use xlink:href="#DejaVuSans-436" x="307.714844"/>
       <use xlink:href="#DejaVuSans-438" x="397.802734"/>
       <use xlink:href="#DejaVuSans-440" x="462.792969"/>
       <use xlink:href="#DejaVuSans-441" x="526.269531"/>
       <use xlink:href="#DejaVuSans-43a" x="581.25"/>
       <use xlink:href="#DejaVuSans-438" x="641.650391"/>
       <use xlink:href="#DejaVuSans-439" x="706.640625"/>
       <use xlink:href="#DejaVuSans-20" x="771.630859"/>
       <use xlink:href="#DejaVuSans-57" x="803.417969"/>
       <use xlink:href="#DejaVuSans-69" x="900.044922"/>
       <use xlink:href="#DejaVuSans-2d" x="927.828125"/>
       <use xlink:href="#DejaVuSans-46" x="963.912109"/>
       <use xlink:href="#DejaVuSans-69" x="1014.181641"/>
       <use xlink:href="#DejaVuSans-20" x="1041.964844"/>
       <use xlink:href="#DejaVuSans-438" x="1073.751953"/>
       <use xlink:href="#DejaVuSans-20" x="1138.742188"/>
       <use xlink:href="#DejaVuSans-441" x="1170.529297"/>
       <use xlink:href="#DejaVuSans-435" x="1225.509766"/>
       <use xlink:href="#DejaVuSans-442" x="1287.033203"/>
       <use xlink:href="#DejaVuSans-44c" x="1345.285156"/>
      </g>
     </g>
    </g>
    <g id="ytick_6">
     <g id="line2d_21">
      <path d="M 214.723125 229.611562 
L 772.723125 229.611562 
" clip-path="url(#p163119401e)" style="fill: none; stroke: #e8ecf0; stroke-width: 0.8; stroke-linecap: square"/>
     </g>
     <g id="line2d_22">
      <g>
       <use xlink:href="#m8651a3fdd7" x="214.723125" y="229.611562" style="stroke: #000000; stroke-width: 0.8"/>
      </g>
     </g>
     <g id="text_12">
      <!-- Стойки и киоски регистрации -->
      <g transform="translate(33.318125 233.790703) scale(0.11 -0.11)">
       <defs>
        <path id="DejaVuSans-433" d="M 581 0 
L 581 3500 
L 3050 3500 
L 3050 3041 
L 1159 3041 
L 1159 0 
L 581 0 
z
" transform="scale(0.015625)"/>
       </defs>
       <use xlink:href="#DejaVuSans-421"/>
       <use xlink:href="#DejaVuSans-442" x="69.824219"/>
       <use xlink:href="#DejaVuSans-43e" x="128.076172"/>
       <use xlink:href="#DejaVuSans-439" x="189.257812"/>
       <use xlink:href="#DejaVuSans-43a" x="254.248047"/>
       <use xlink:href="#DejaVuSans-438" x="314.648438"/>
       <use xlink:href="#DejaVuSans-20" x="379.638672"/>
       <use xlink:href="#DejaVuSans-438" x="411.425781"/>
       <use xlink:href="#DejaVuSans-20" x="476.416016"/>
       <use xlink:href="#DejaVuSans-43a" x="508.203125"/>
       <use xlink:href="#DejaVuSans-438" x="568.603516"/>
       <use xlink:href="#DejaVuSans-43e" x="633.59375"/>
       <use xlink:href="#DejaVuSans-441" x="694.775391"/>
       <use xlink:href="#DejaVuSans-43a" x="749.755859"/>
       <use xlink:href="#DejaVuSans-438" x="810.15625"/>
       <use xlink:href="#DejaVuSans-20" x="875.146484"/>
       <use xlink:href="#DejaVuSans-440" x="906.933594"/>
       <use xlink:href="#DejaVuSans-435" x="970.410156"/>
       <use xlink:href="#DejaVuSans-433" x="1031.933594"/>
       <use xlink:href="#DejaVuSans-438" x="1084.472656"/>
       <use xlink:href="#DejaVuSans-441" x="1149.462891"/>
       <use xlink:href="#DejaVuSans-442" x="1204.443359"/>
       <use xlink:href="#DejaVuSans-440" x="1262.695312"/>
       <use xlink:href="#DejaVuSans-430" x="1326.171875"/>
       <use xlink:href="#DejaVuSans-446" x="1387.451172"/>
       <use xlink:href="#DejaVuSans-438" x="1455.517578"/>
       <use xlink:href="#DejaVuSans-438" x="1520.507812"/>
      </g>
     </g>
    </g>
    <g id="ytick_7">
     <g id="line2d_23">
      <path d="M 214.723125 204.017812 
L 772.723125 204.017812 
" clip-path="url(#p163119401e)" style="fill: none; stroke: #e8ecf0; stroke-width: 0.8; stroke-linecap: square"/>
     </g>
     <g id="line2d_24">
      <g>
       <use xlink:href="#m8651a3fdd7" x="214.723125" y="204.017812" style="stroke: #000000; stroke-width: 0.8"/>
      </g>
     </g>
     <g id="text_13">
      <!-- Телефония -->
      <g transform="translate(143.343906 208.196953) scale(0.11 -0.11)">
       <defs>
        <path id="DejaVuSans-422" d="M -19 4666 
L 3928 4666 
L 3928 4134 
L 2272 4134 
L 2272 0 
L 1638 0 
L 1638 4134 
L -19 4134 
L -19 4666 
z
" transform="scale(0.015625)"/>
        <path id="DejaVuSans-444" d="M 947 1747 
Q 947 1013 1173 702 
Q 1400 391 1784 391 
Q 2091 391 2447 916 
L 2447 2578 
Q 2091 3103 1784 3103 
Q 1400 3103 1173 2792 
Q 947 2481 947 1747 
z
M 2447 -1331 
L 2447 447 
Q 2269 153 2064 31 
Q 1859 -91 1600 -91 
Q 1078 -91 714 392 
Q 350 875 350 1734 
Q 350 2594 714 3089 
Q 1078 3584 1600 3584 
Q 1859 3584 2064 3465 
Q 2269 3347 2447 3053 
L 2447 4666 
L 3025 4666 
L 3025 3053 
Q 3203 3347 3408 3465 
Q 3613 3584 3872 3584 
Q 4394 3584 4758 3089 
Q 5122 2594 5122 1734 
Q 5122 875 4758 392 
Q 4394 -91 3872 -91 
Q 3613 -91 3408 31 
Q 3203 153 3025 447 
L 3025 -1331 
L 2447 -1331 
z
M 4525 1747 
Q 4525 2481 4298 2792 
Q 4072 3103 3688 3103 
Q 3381 3103 3025 2578 
L 3025 916 
Q 3381 391 3688 391 
Q 4072 391 4298 702 
Q 4525 1013 4525 1747 
z
" transform="scale(0.015625)"/>
       </defs>
       <use xlink:href="#DejaVuSans-422"/>
       <use xlink:href="#DejaVuSans-435" x="61.083984"/>
       <use xlink:href="#DejaVuSans-43b" x="122.607422"/>
       <use xlink:href="#DejaVuSans-435" x="186.523438"/>
       <use xlink:href="#DejaVuSans-444" x="248.046875"/>
       <use xlink:href="#DejaVuSans-43e" x="333.544922"/>
       <use xlink:href="#DejaVuSans-43d" x="394.726562"/>
       <use xlink:href="#DejaVuSans-438" x="460.107422"/>
       <use xlink:href="#DejaVuSans-44f" x="525.097656"/>
      </g>
     </g>
    </g>
    <g id="ytick_8">
     <g id="line2d_25">
      <path d="M 214.723125 178.424062 
L 772.723125 178.424062 
" clip-path="url(#p163119401e)" style="fill: none; stroke: #e8ecf0; stroke-width: 0.8; stroke-linecap: square"/>
     </g>
     <g id="line2d_26">
      <g>
       <use xlink:href="#m8651a3fdd7" x="214.723125" y="178.424062" style="stroke: #000000; stroke-width: 0.8"/>
      </g>
     </g>
     <g id="text_14">
      <!-- Видеонаблюдение (CCTV) -->
      <g transform="translate(57.748437 182.603203) scale(0.11 -0.11)">
       <defs>
        <path id="DejaVuSans-412" d="M 1259 2228 
L 1259 519 
L 2272 519 
Q 2781 519 3026 730 
Q 3272 941 3272 1375 
Q 3272 1813 3026 2020 
Q 2781 2228 2272 2228 
L 1259 2228 
z
M 1259 4147 
L 1259 2741 
L 2194 2741 
Q 2656 2741 2882 2914 
Q 3109 3088 3109 3444 
Q 3109 3797 2882 3972 
Q 2656 4147 2194 4147 
L 1259 4147 
z
M 628 4666 
L 2241 4666 
Q 2963 4666 3353 4366 
Q 3744 4066 3744 3513 
Q 3744 3084 3544 2831 
Q 3344 2578 2956 2516 
Q 3422 2416 3680 2098 
Q 3938 1781 3938 1306 
Q 3938 681 3513 340 
Q 3088 0 2303 0 
L 628 0 
L 628 4666 
z
" transform="scale(0.015625)"/>
        <path id="DejaVuSans-44e" d="M 3431 3097 
Q 2969 3097 2700 2736 
Q 2431 2375 2431 1747 
Q 2431 1119 2698 758 
Q 2966 397 3431 397 
Q 3891 397 4159 759 
Q 4428 1122 4428 1747 
Q 4428 2369 4159 2733 
Q 3891 3097 3431 3097 
z
M 1844 2103 
Q 1903 2697 2292 3140 
Q 2681 3584 3431 3584 
Q 4181 3584 4609 3096 
Q 5038 2609 5038 1747 
Q 5038 888 4609 398 
Q 4181 -91 3431 -91 
Q 2678 -91 2267 381 
Q 1856 853 1828 1628 
L 1178 1628 
L 1178 0 
L 603 0 
L 603 3500 
L 1178 3500 
L 1178 2103 
L 1844 2103 
z
" transform="scale(0.015625)"/>
        <path id="DejaVuSans-43" d="M 4122 4306 
L 4122 3641 
Q 3803 3938 3442 4084 
Q 3081 4231 2675 4231 
Q 1875 4231 1450 3742 
Q 1025 3253 1025 2328 
Q 1025 1406 1450 917 
Q 1875 428 2675 428 
Q 3081 428 3442 575 
Q 3803 722 4122 1019 
L 4122 359 
Q 3791 134 3420 21 
Q 3050 -91 2638 -91 
Q 1578 -91 968 557 
Q 359 1206 359 2328 
Q 359 3453 968 4101 
Q 1578 4750 2638 4750 
Q 3056 4750 3426 4639 
Q 3797 4528 4122 4306 
z
" transform="scale(0.015625)"/>
        <path id="DejaVuSans-54" d="M -19 4666 
L 3928 4666 
L 3928 4134 
L 2272 4134 
L 2272 0 
L 1638 0 
L 1638 4134 
L -19 4134 
L -19 4666 
z
" transform="scale(0.015625)"/>
        <path id="DejaVuSans-56" d="M 1831 0 
L 50 4666 
L 709 4666 
L 2188 738 
L 3669 4666 
L 4325 4666 
L 2547 0 
L 1831 0 
z
" transform="scale(0.015625)"/>
       </defs>
       <use xlink:href="#DejaVuSans-412"/>
       <use xlink:href="#DejaVuSans-438" x="68.603516"/>
       <use xlink:href="#DejaVuSans-434" x="133.59375"/>
       <use xlink:href="#DejaVuSans-435" x="202.734375"/>
       <use xlink:href="#DejaVuSans-43e" x="264.257812"/>
       <use xlink:href="#DejaVuSans-43d" x="325.439453"/>
       <use xlink:href="#DejaVuSans-430" x="390.820312"/>
       <use xlink:href="#DejaVuSans-431" x="452.099609"/>
       <use xlink:href="#DejaVuSans-43b" x="513.769531"/>
       <use xlink:href="#DejaVuSans-44e" x="577.685547"/>
       <use xlink:href="#DejaVuSans-434" x="661.865234"/>
       <use xlink:href="#DejaVuSans-435" x="731.005859"/>
       <use xlink:href="#DejaVuSans-43d" x="792.529297"/>
       <use xlink:href="#DejaVuSans-438" x="857.910156"/>
       <use xlink:href="#DejaVuSans-435" x="922.900391"/>
       <use xlink:href="#DejaVuSans-20" x="984.423828"/>
       <use xlink:href="#DejaVuSans-28" x="1016.210938"/>
       <use xlink:href="#DejaVuSans-43" x="1055.224609"/>
       <use xlink:href="#DejaVuSans-43" x="1125.048828"/>
       <use xlink:href="#DejaVuSans-54" x="1194.873047"/>
       <use xlink:href="#DejaVuSans-56" x="1255.957031"/>
       <use xlink:href="#DejaVuSans-29" x="1324.365234"/>
      </g>
     </g>
    </g>
    <g id="ytick_9">
     <g id="line2d_27">
      <path d="M 214.723125 152.830312 
L 772.723125 152.830312 
" clip-path="url(#p163119401e)" style="fill: none; stroke: #e8ecf0; stroke-width: 0.8; stroke-linecap: square"/>
     </g>
     <g id="line2d_28">
      <g>
       <use xlink:href="#m8651a3fdd7" x="214.723125" y="152.830312" style="stroke: #000000; stroke-width: 0.8"/>
      </g>
     </g>
     <g id="text_15">
      <!-- Громкая связь (PA) -->
      <g transform="translate(98.487969 157.009453) scale(0.11 -0.11)">
       <defs>
        <path id="DejaVuSans-413" d="M 628 0 
L 628 4666 
L 3531 4666 
L 3531 4134 
L 1259 4134 
L 1259 0 
L 628 0 
z
" transform="scale(0.015625)"/>
        <path id="DejaVuSans-437" d="M 2206 1888 
Q 2594 1813 2809 1584 
Q 3025 1356 3025 1019 
Q 3025 478 2622 193 
Q 2219 -91 1475 -91 
Q 1225 -91 961 -47 
Q 697 -3 416 84 
L 416 619 
Q 638 503 903 445 
Q 1169 388 1459 388 
Q 1931 388 2195 563 
Q 2459 738 2459 1019 
Q 2459 1294 2225 1461 
Q 1991 1628 1563 1628 
L 1100 1628 
L 1100 2103 
L 1584 2103 
Q 1947 2103 2158 2242 
Q 2369 2381 2369 2600 
Q 2369 2800 2151 2944 
Q 1934 3088 1563 3088 
Q 1341 3088 1089 3047 
Q 838 3006 534 2916 
L 534 3438 
Q 841 3513 1106 3550 
Q 1372 3588 1609 3588 
Q 2222 3588 2576 3342 
Q 2931 3097 2931 2656 
Q 2931 2366 2743 2164 
Q 2556 1963 2206 1888 
z
" transform="scale(0.015625)"/>
        <path id="DejaVuSans-41" d="M 2188 4044 
L 1331 1722 
L 3047 1722 
L 2188 4044 
z
M 1831 4666 
L 2547 4666 
L 4325 0 
L 3669 0 
L 3244 1197 
L 1141 1197 
L 716 0 
L 50 0 
L 1831 4666 
z
" transform="scale(0.015625)"/>
       </defs>
       <use xlink:href="#DejaVuSans-413"/>
       <use xlink:href="#DejaVuSans-440" x="60.986328"/>
       <use xlink:href="#DejaVuSans-43e" x="124.462891"/>
       <use xlink:href="#DejaVuSans-43c" x="185.644531"/>
       <use xlink:href="#DejaVuSans-43a" x="261.083984"/>
       <use xlink:href="#DejaVuSans-430" x="321.484375"/>
       <use xlink:href="#DejaVuSans-44f" x="382.763672"/>
       <use xlink:href="#DejaVuSans-20" x="442.919922"/>
       <use xlink:href="#DejaVuSans-441" x="474.707031"/>
       <use xlink:href="#DejaVuSans-432" x="529.6875"/>
       <use xlink:href="#DejaVuSans-44f" x="588.623047"/>
       <use xlink:href="#DejaVuSans-437" x="648.779297"/>
       <use xlink:href="#DejaVuSans-44c" x="701.953125"/>
       <use xlink:href="#DejaVuSans-20" x="760.888672"/>
       <use xlink:href="#DejaVuSans-28" x="792.675781"/>
       <use xlink:href="#DejaVuSans-50" x="831.689453"/>
       <use xlink:href="#DejaVuSans-41" x="885.617188"/>
       <use xlink:href="#DejaVuSans-29" x="954.025391"/>
      </g>
     </g>
    </g>
    <g id="ytick_10">
     <g id="line2d_29">
      <path d="M 214.723125 127.236562 
L 772.723125 127.236562 
" clip-path="url(#p163119401e)" style="fill: none; stroke: #e8ecf0; stroke-width: 0.8; stroke-linecap: square"/>
     </g>
     <g id="line2d_30">
      <g>
       <use xlink:href="#m8651a3fdd7" x="214.723125" y="127.236562" style="stroke: #000000; stroke-width: 0.8"/>
      </g>
     </g>
     <g id="text_16">
      <!-- Табло вылета и прилёта (FIDS) -->
      <g transform="translate(28.589844 131.509375) scale(0.11 -0.11)">
       <defs>
        <path id="DejaVuSans-451" d="M 3597 1894 
L 3597 1613 
L 953 1613 
Q 991 1019 1311 708 
Q 1631 397 2203 397 
Q 2534 397 2845 478 
Q 3156 559 3463 722 
L 3463 178 
Q 3153 47 2828 -22 
Q 2503 -91 2169 -91 
Q 1331 -91 842 396 
Q 353 884 353 1716 
Q 353 2575 817 3079 
Q 1281 3584 2069 3584 
Q 2775 3584 3186 3129 
Q 3597 2675 3597 1894 
z
M 3022 2063 
Q 3016 2534 2758 2815 
Q 2500 3097 2075 3097 
Q 1594 3097 1305 2825 
Q 1016 2553 972 2059 
L 3022 2063 
z
M 2366 4850 
L 3000 4850 
L 3000 4219 
L 2366 4219 
L 2366 4850 
z
M 1144 4850 
L 1778 4850 
L 1778 4219 
L 1144 4219 
L 1144 4850 
z
" transform="scale(0.015625)"/>
        <path id="DejaVuSans-49" d="M 628 4666 
L 1259 4666 
L 1259 0 
L 628 0 
L 628 4666 
z
" transform="scale(0.015625)"/>
        <path id="DejaVuSans-44" d="M 1259 4147 
L 1259 519 
L 2022 519 
Q 2988 519 3436 956 
Q 3884 1394 3884 2338 
Q 3884 3275 3436 3711 
Q 2988 4147 2022 4147 
L 1259 4147 
z
M 628 4666 
L 1925 4666 
Q 3281 4666 3915 4102 
Q 4550 3538 4550 2338 
Q 4550 1131 3912 565 
Q 3275 0 1925 0 
L 628 0 
L 628 4666 
z
" transform="scale(0.015625)"/>
       </defs>
       <use xlink:href="#DejaVuSans-422"/>
       <use xlink:href="#DejaVuSans-430" x="61.083984"/>
       <use xlink:href="#DejaVuSans-431" x="122.363281"/>
       <use xlink:href="#DejaVuSans-43b" x="184.033203"/>
       <use xlink:href="#DejaVuSans-43e" x="247.949219"/>
       <use xlink:href="#DejaVuSans-20" x="309.130859"/>
       <use xlink:href="#DejaVuSans-432" x="340.917969"/>
       <use xlink:href="#DejaVuSans-44b" x="399.853516"/>
       <use xlink:href="#DejaVuSans-43b" x="478.808594"/>
       <use xlink:href="#DejaVuSans-435" x="542.724609"/>
       <use xlink:href="#DejaVuSans-442" x="604.248047"/>
       <use xlink:href="#DejaVuSans-430" x="662.5"/>
       <use xlink:href="#DejaVuSans-20" x="723.779297"/>
       <use xlink:href="#DejaVuSans-438" x="755.566406"/>
       <use xlink:href="#DejaVuSans-20" x="820.556641"/>
       <use xlink:href="#DejaVuSans-43f" x="852.34375"/>
       <use xlink:href="#DejaVuSans-440" x="917.724609"/>
       <use xlink:href="#DejaVuSans-438" x="981.201172"/>
       <use xlink:href="#DejaVuSans-43b" x="1046.191406"/>
       <use xlink:href="#DejaVuSans-451" x="1110.107422"/>
       <use xlink:href="#DejaVuSans-442" x="1171.630859"/>
       <use xlink:href="#DejaVuSans-430" x="1229.882812"/>
       <use xlink:href="#DejaVuSans-20" x="1291.162109"/>
       <use xlink:href="#DejaVuSans-28" x="1322.949219"/>
       <use xlink:href="#DejaVuSans-46" x="1361.962891"/>
       <use xlink:href="#DejaVuSans-49" x="1419.482422"/>
       <use xlink:href="#DejaVuSans-44" x="1448.974609"/>
       <use xlink:href="#DejaVuSans-53" x="1525.976562"/>
       <use xlink:href="#DejaVuSans-29" x="1589.453125"/>
      </g>
     </g>
    </g>
    <g id="ytick_11">
     <g id="line2d_31">
      <path d="M 214.723125 101.642812 
L 772.723125 101.642812 
" clip-path="url(#p163119401e)" style="fill: none; stroke: #e8ecf0; stroke-width: 0.8; stroke-linecap: square"/>
     </g>
     <g id="line2d_32">
      <g>
       <use xlink:href="#m8651a3fdd7" x="214.723125" y="101.642812" style="stroke: #000000; stroke-width: 0.8"/>
      </g>
     </g>
     <g id="text_17">
      <!-- Посадочные гейты -->
      <g transform="translate(98.166562 105.821953) scale(0.11 -0.11)">
       <use xlink:href="#DejaVuSans-41f"/>
       <use xlink:href="#DejaVuSans-43e" x="75.195312"/>
       <use xlink:href="#DejaVuSans-441" x="136.376953"/>
       <use xlink:href="#DejaVuSans-430" x="191.357422"/>
       <use xlink:href="#DejaVuSans-434" x="252.636719"/>
       <use xlink:href="#DejaVuSans-43e" x="321.777344"/>
       <use xlink:href="#DejaVuSans-447" x="382.958984"/>
       <use xlink:href="#DejaVuSans-43d" x="442.041016"/>
       <use xlink:href="#DejaVuSans-44b" x="507.421875"/>
       <use xlink:href="#DejaVuSans-435" x="586.376953"/>
       <use xlink:href="#DejaVuSans-20" x="647.900391"/>
       <use xlink:href="#DejaVuSans-433" x="679.6875"/>
       <use xlink:href="#DejaVuSans-435" x="732.226562"/>
       <use xlink:href="#DejaVuSans-439" x="793.75"/>
       <use xlink:href="#DejaVuSans-442" x="858.740234"/>
       <use xlink:href="#DejaVuSans-44b" x="916.992188"/>
      </g>
     </g>
    </g>
    <g id="ytick_12">
     <g id="line2d_33">
      <path d="M 214.723125 76.049062 
L 772.723125 76.049062 
" clip-path="url(#p163119401e)" style="fill: none; stroke: #e8ecf0; stroke-width: 0.8; stroke-linecap: square"/>
     </g>
     <g id="line2d_34">
      <g>
       <use xlink:href="#m8651a3fdd7" x="214.723125" y="76.049062" style="stroke: #000000; stroke-width: 0.8"/>
      </g>
     </g>
     <g id="text_18">
      <!-- Серверы и ЦОД -->
      <g transform="translate(117.437187 80.228203) scale(0.11 -0.11)">
       <defs>
        <path id="DejaVuSans-426" d="M 4184 0 
L 628 0 
L 628 4666 
L 1259 4666 
L 1259 531 
L 3553 531 
L 3553 4666 
L 4184 4666 
L 4184 531 
L 4716 531 
L 4716 -1003 
L 4184 -1003 
L 4184 0 
z
" transform="scale(0.015625)"/>
        <path id="DejaVuSans-41e" d="M 2522 4238 
Q 1834 4238 1429 3725 
Q 1025 3213 1025 2328 
Q 1025 1447 1429 934 
Q 1834 422 2522 422 
Q 3209 422 3611 934 
Q 4013 1447 4013 2328 
Q 4013 3213 3611 3725 
Q 3209 4238 2522 4238 
z
M 2522 4750 
Q 3503 4750 4090 4092 
Q 4678 3434 4678 2328 
Q 4678 1225 4090 567 
Q 3503 -91 2522 -91 
Q 1538 -91 948 565 
Q 359 1222 359 2328 
Q 359 3434 948 4092 
Q 1538 4750 2522 4750 
z
" transform="scale(0.015625)"/>
       </defs>
       <use xlink:href="#DejaVuSans-421"/>
       <use xlink:href="#DejaVuSans-435" x="69.824219"/>
       <use xlink:href="#DejaVuSans-440" x="131.347656"/>
       <use xlink:href="#DejaVuSans-432" x="194.824219"/>
       <use xlink:href="#DejaVuSans-435" x="253.759766"/>
       <use xlink:href="#DejaVuSans-440" x="315.283203"/>
       <use xlink:href="#DejaVuSans-44b" x="378.759766"/>
       <use xlink:href="#DejaVuSans-20" x="457.714844"/>
       <use xlink:href="#DejaVuSans-438" x="489.501953"/>
       <use xlink:href="#DejaVuSans-20" x="554.492188"/>
       <use xlink:href="#DejaVuSans-426" x="586.279297"/>
       <use xlink:href="#DejaVuSans-41e" x="663.916016"/>
       <use xlink:href="#DejaVuSans-414" x="742.626953"/>
      </g>
     </g>
    </g>
    <g id="ytick_13">
     <g id="line2d_35">
      <path d="M 214.723125 50.455312 
L 772.723125 50.455312 
" clip-path="url(#p163119401e)" style="fill: none; stroke: #e8ecf0; stroke-width: 0.8; stroke-linecap: square"/>
     </g>
     <g id="line2d_36">
      <g>
       <use xlink:href="#m8651a3fdd7" x="214.723125" y="50.455312" style="stroke: #000000; stroke-width: 0.8"/>
      </g>
     </g>
     <g id="text_19">
      <!-- Система обработки багажа (BHS) -->
      <g transform="translate(13.105625 54.728125) scale(0.11 -0.11)">
       <defs>
        <path id="DejaVuSans-42" d="M 1259 2228 
L 1259 519 
L 2272 519 
Q 2781 519 3026 730 
Q 3272 941 3272 1375 
Q 3272 1813 3026 2020 
Q 2781 2228 2272 2228 
L 1259 2228 
z
M 1259 4147 
L 1259 2741 
L 2194 2741 
Q 2656 2741 2882 2914 
Q 3109 3088 3109 3444 
Q 3109 3797 2882 3972 
Q 2656 4147 2194 4147 
L 1259 4147 
z
M 628 4666 
L 2241 4666 
Q 2963 4666 3353 4366 
Q 3744 4066 3744 3513 
Q 3744 3084 3544 2831 
Q 3344 2578 2956 2516 
Q 3422 2416 3680 2098 
Q 3938 1781 3938 1306 
Q 3938 681 3513 340 
Q 3088 0 2303 0 
L 628 0 
L 628 4666 
z
" transform="scale(0.015625)"/>
        <path id="DejaVuSans-48" d="M 628 4666 
L 1259 4666 
L 1259 2753 
L 3553 2753 
L 3553 4666 
L 4184 4666 
L 4184 0 
L 3553 0 
L 3553 2222 
L 1259 2222 
L 1259 0 
L 628 0 
L 628 4666 
z
" transform="scale(0.015625)"/>
       </defs>
       <use xlink:href="#DejaVuSans-421"/>
       <use xlink:href="#DejaVuSans-438" x="69.824219"/>
       <use xlink:href="#DejaVuSans-441" x="134.814453"/>
       <use xlink:href="#DejaVuSans-442" x="189.794922"/>
       <use xlink:href="#DejaVuSans-435" x="248.046875"/>
       <use xlink:href="#DejaVuSans-43c" x="309.570312"/>
       <use xlink:href="#DejaVuSans-430" x="385.009766"/>
       <use xlink:href="#DejaVuSans-20" x="446.289062"/>
       <use xlink:href="#DejaVuSans-43e" x="478.076172"/>
       <use xlink:href="#DejaVuSans-431" x="539.257812"/>
       <use xlink:href="#DejaVuSans-440" x="600.927734"/>
       <use xlink:href="#DejaVuSans-430" x="664.404297"/>
       <use xlink:href="#DejaVuSans-431" x="725.683594"/>
       <use xlink:href="#DejaVuSans-43e" x="787.353516"/>
       <use xlink:href="#DejaVuSans-442" x="848.535156"/>
       <use xlink:href="#DejaVuSans-43a" x="906.787109"/>
       <use xlink:href="#DejaVuSans-438" x="967.1875"/>
       <use xlink:href="#DejaVuSans-20" x="1032.177734"/>
       <use xlink:href="#DejaVuSans-431" x="1063.964844"/>
       <use xlink:href="#DejaVuSans-430" x="1125.634766"/>
       <use xlink:href="#DejaVuSans-433" x="1186.914062"/>
       <use xlink:href="#DejaVuSans-430" x="1239.453125"/>
       <use xlink:href="#DejaVuSans-436" x="1300.732422"/>
       <use xlink:href="#DejaVuSans-430" x="1390.820312"/>
       <use xlink:href="#DejaVuSans-20" x="1452.099609"/>
       <use xlink:href="#DejaVuSans-28" x="1483.886719"/>
       <use xlink:href="#DejaVuSans-42" x="1522.900391"/>
       <use xlink:href="#DejaVuSans-48" x="1591.503906"/>
       <use xlink:href="#DejaVuSans-53" x="1666.699219"/>
       <use xlink:href="#DejaVuSans-29" x="1730.175781"/>
      </g>
     </g>
    </g>
   </g>
   <g id="patch_16">
    <path d="M 214.723125 384.197812 
L 214.723125 23.837812 
" style="fill: none; stroke: #cfd6dd; stroke-width: 0.8; stroke-linejoin: miter; stroke-linecap: square"/>
   </g>
   <g id="patch_17">
    <path d="M 772.723125 384.197812 
L 772.723125 23.837812 
" style="fill: none; stroke: #cfd6dd; stroke-width: 0.8; stroke-linejoin: miter; stroke-linecap: square"/>
   </g>
   <g id="patch_18">
    <path d="M 214.723125 384.197812 
L 772.723125 384.197812 
" style="fill: none; stroke: #cfd6dd; stroke-width: 0.8; stroke-linejoin: miter; stroke-linecap: square"/>
   </g>
   <g id="patch_19">
    <path d="M 214.723125 23.837812 
L 772.723125 23.837812 
" style="fill: none; stroke: #cfd6dd; stroke-width: 0.8; stroke-linejoin: miter; stroke-linecap: square"/>
   </g>
   <g id="text_20">
    <!-- 1.1 ч -->
    <g transform="translate(351.975853 360.06375) scale(0.09 -0.09)">
     <defs>
      <path id="DejaVuSans-2e" d="M 684 794 
L 1344 794 
L 1344 0 
L 684 0 
L 684 794 
z
" transform="scale(0.015625)"/>
     </defs>
     <use xlink:href="#DejaVuSans-31"/>
     <use xlink:href="#DejaVuSans-2e" x="63.623047"/>
     <use xlink:href="#DejaVuSans-31" x="95.410156"/>
     <use xlink:href="#DejaVuSans-20" x="159.033203"/>
     <use xlink:href="#DejaVuSans-447" x="190.820312"/>
    </g>
   </g>
   <g id="text_21">
    <!-- 2.1 ч -->
    <g transform="translate(466.030937 334.47) scale(0.09 -0.09)">
     <use xlink:href="#DejaVuSans-32"/>
     <use xlink:href="#DejaVuSans-2e" x="63.623047"/>
     <use xlink:href="#DejaVuSans-31" x="95.410156"/>
     <use xlink:href="#DejaVuSans-20" x="159.033203"/>
     <use xlink:href="#DejaVuSans-447" x="190.820312"/>
    </g>
   </g>
   <g id="text_22">
    <!-- 2.2 ч -->
    <g transform="translate(475.696622 308.87625) scale(0.09 -0.09)">
     <use xlink:href="#DejaVuSans-32"/>
     <use xlink:href="#DejaVuSans-2e" x="63.623047"/>
     <use xlink:href="#DejaVuSans-32" x="95.410156"/>
     <use xlink:href="#DejaVuSans-20" x="159.033203"/>
     <use xlink:href="#DejaVuSans-447" x="190.820312"/>
    </g>
   </g>
   <g id="text_23">
    <!-- 2.3 ч -->
    <g transform="translate(483.42917 283.2825) scale(0.09 -0.09)">
     <use xlink:href="#DejaVuSans-32"/>
     <use xlink:href="#DejaVuSans-2e" x="63.623047"/>
     <use xlink:href="#DejaVuSans-33" x="95.410156"/>
     <use xlink:href="#DejaVuSans-20" x="159.033203"/>
     <use xlink:href="#DejaVuSans-447" x="190.820312"/>
    </g>
   </g>
   <g id="text_24">
    <!-- 2.8 ч -->
    <g transform="translate(549.155829 257.68875) scale(0.09 -0.09)">
     <defs>
      <path id="DejaVuSans-38" d="M 2034 2216 
Q 1584 2216 1326 1975 
Q 1069 1734 1069 1313 
Q 1069 891 1326 650 
Q 1584 409 2034 409 
Q 2484 409 2743 651 
Q 3003 894 3003 1313 
Q 3003 1734 2745 1975 
Q 2488 2216 2034 2216 
z
M 1403 2484 
Q 997 2584 770 2862 
Q 544 3141 544 3541 
Q 544 4100 942 4425 
Q 1341 4750 2034 4750 
Q 2731 4750 3128 4425 
Q 3525 4100 3525 3541 
Q 3525 3141 3298 2862 
Q 3072 2584 2669 2484 
Q 3125 2378 3379 2068 
Q 3634 1759 3634 1313 
Q 3634 634 3220 271 
Q 2806 -91 2034 -91 
Q 1263 -91 848 271 
Q 434 634 434 1313 
Q 434 1759 690 2068 
Q 947 2378 1403 2484 
z
M 1172 3481 
Q 1172 3119 1398 2916 
Q 1625 2713 2034 2713 
Q 2441 2713 2670 2916 
Q 2900 3119 2900 3481 
Q 2900 3844 2670 4047 
Q 2441 4250 2034 4250 
Q 1625 4250 1398 4047 
Q 1172 3844 1172 3481 
z
" transform="scale(0.015625)"/>
     </defs>
     <use xlink:href="#DejaVuSans-32"/>
     <use xlink:href="#DejaVuSans-2e" x="63.623047"/>
     <use xlink:href="#DejaVuSans-38" x="95.410156"/>
     <use xlink:href="#DejaVuSans-20" x="159.033203"/>
     <use xlink:href="#DejaVuSans-447" x="190.820312"/>
    </g>
   </g>
   <g id="text_25">
    <!-- 3.0 ч -->
    <g transform="translate(566.554062 232.095) scale(0.09 -0.09)">
     <use xlink:href="#DejaVuSans-33"/>
     <use xlink:href="#DejaVuSans-2e" x="63.623047"/>
     <use xlink:href="#DejaVuSans-30" x="95.410156"/>
     <use xlink:href="#DejaVuSans-20" x="159.033203"/>
     <use xlink:href="#DejaVuSans-447" x="190.820312"/>
    </g>
   </g>
   <g id="text_26">
    <!-- 3.0 ч -->
    <g transform="translate(566.554062 206.50125) scale(0.09 -0.09)">
     <use xlink:href="#DejaVuSans-33"/>
     <use xlink:href="#DejaVuSans-2e" x="63.623047"/>
     <use xlink:href="#DejaVuSans-30" x="95.410156"/>
     <use xlink:href="#DejaVuSans-20" x="159.033203"/>
     <use xlink:href="#DejaVuSans-447" x="190.820312"/>
    </g>
   </g>
   <g id="text_27">
    <!-- 3.1 ч -->
    <g transform="translate(583.952295 180.9075) scale(0.09 -0.09)">
     <use xlink:href="#DejaVuSans-33"/>
     <use xlink:href="#DejaVuSans-2e" x="63.623047"/>
     <use xlink:href="#DejaVuSans-31" x="95.410156"/>
     <use xlink:href="#DejaVuSans-20" x="159.033203"/>
     <use xlink:href="#DejaVuSans-447" x="190.820312"/>
    </g>
   </g>
   <g id="text_28">
    <!-- 3.3 ч -->
    <g transform="translate(599.417391 155.31375) scale(0.09 -0.09)">
     <use xlink:href="#DejaVuSans-33"/>
     <use xlink:href="#DejaVuSans-2e" x="63.623047"/>
     <use xlink:href="#DejaVuSans-33" x="95.410156"/>
     <use xlink:href="#DejaVuSans-20" x="159.033203"/>
     <use xlink:href="#DejaVuSans-447" x="190.820312"/>
    </g>
   </g>
   <g id="text_29">
    <!-- 3.3 ч -->
    <g transform="translate(603.283665 129.72) scale(0.09 -0.09)">
     <use xlink:href="#DejaVuSans-33"/>
     <use xlink:href="#DejaVuSans-2e" x="63.623047"/>
     <use xlink:href="#DejaVuSans-33" x="95.410156"/>
     <use xlink:href="#DejaVuSans-20" x="159.033203"/>
     <use xlink:href="#DejaVuSans-447" x="190.820312"/>
    </g>
   </g>
   <g id="text_30">
    <!-- 3.3 ч -->
    <g transform="translate(605.216802 104.12625) scale(0.09 -0.09)">
     <use xlink:href="#DejaVuSans-33"/>
     <use xlink:href="#DejaVuSans-2e" x="63.623047"/>
     <use xlink:href="#DejaVuSans-33" x="95.410156"/>
     <use xlink:href="#DejaVuSans-20" x="159.033203"/>
     <use xlink:href="#DejaVuSans-447" x="190.820312"/>
    </g>
   </g>
   <g id="text_31">
    <!-- 3.8 ч -->
    <g transform="translate(661.277776 78.5325) scale(0.09 -0.09)">
     <use xlink:href="#DejaVuSans-33"/>
     <use xlink:href="#DejaVuSans-2e" x="63.623047"/>
     <use xlink:href="#DejaVuSans-38" x="95.410156"/>
     <use xlink:href="#DejaVuSans-20" x="159.033203"/>
     <use xlink:href="#DejaVuSans-447" x="190.820312"/>
    </g>
   </g>
   <g id="text_32">
    <!-- 4.2 ч -->
    <g transform="translate(705.739927 52.93875) scale(0.09 -0.09)">
     <use xlink:href="#DejaVuSans-34"/>
     <use xlink:href="#DejaVuSans-2e" x="63.623047"/>
     <use xlink:href="#DejaVuSans-32" x="95.410156"/>
     <use xlink:href="#DejaVuSans-20" x="159.033203"/>
     <use xlink:href="#DejaVuSans-447" x="190.820312"/>
    </g>
   </g>
   <g id="text_33">
    <!-- Медианное время решения по системам -->
    <g transform="translate(329.348906 17.837812) scale(0.14 -0.14)">
     <defs>
      <path id="DejaVuSans-Bold-41c" d="M 588 4666 
L 2119 4666 
L 3181 2169 
L 4250 4666 
L 5778 4666 
L 5778 0 
L 4641 0 
L 4641 3413 
L 3566 897 
L 2803 897 
L 1728 3413 
L 1728 0 
L 588 0 
L 588 4666 
z
" transform="scale(0.015625)"/>
      <path id="DejaVuSans-Bold-435" d="M 4031 1759 
L 4031 1441 
L 1416 1441 
Q 1456 1047 1700 850 
Q 1944 653 2381 653 
Q 2734 653 3104 758 
Q 3475 863 3866 1075 
L 3866 213 
Q 3469 63 3072 -14 
Q 2675 -91 2278 -91 
Q 1328 -91 801 392 
Q 275 875 275 1747 
Q 275 2603 792 3093 
Q 1309 3584 2216 3584 
Q 3041 3584 3536 3087 
Q 4031 2591 4031 1759 
z
M 2881 2131 
Q 2881 2450 2695 2645 
Q 2509 2841 2209 2841 
Q 1884 2841 1681 2658 
Q 1478 2475 1428 2131 
L 2881 2131 
z
" transform="scale(0.015625)"/>
      <path id="DejaVuSans-Bold-434" d="M 547 800 
Q 903 919 1053 1314 
Q 1203 1709 1203 2838 
L 1203 3500 
L 4228 3500 
L 4228 800 
L 4809 800 
L 4809 -884 
L 4009 -884 
L 4009 0 
L 1159 0 
L 1159 -884 
L 359 -884 
L 359 800 
L 547 800 
z
M 3109 2700 
L 2322 2700 
L 2322 2603 
Q 2322 1456 2063 800 
L 3109 800 
L 3109 2700 
z
" transform="scale(0.015625)"/>
      <path id="DejaVuSans-Bold-438" d="M 3947 3500 
L 3947 0 
L 2828 0 
L 2828 1863 
L 1700 0 
L 538 0 
L 538 3500 
L 1656 3500 
L 1656 1638 
L 2784 3500 
L 3947 3500 
z
" transform="scale(0.015625)"/>
      <path id="DejaVuSans-Bold-430" d="M 2106 1575 
Q 1756 1575 1579 1456 
Q 1403 1338 1403 1106 
Q 1403 894 1545 773 
Q 1688 653 1941 653 
Q 2256 653 2472 879 
Q 2688 1106 2688 1447 
L 2688 1575 
L 2106 1575 
z
M 3816 1997 
L 3816 0 
L 2688 0 
L 2688 519 
Q 2463 200 2181 54 
Q 1900 -91 1497 -91 
Q 953 -91 614 226 
Q 275 544 275 1050 
Q 275 1666 698 1953 
Q 1122 2241 2028 2241 
L 2688 2241 
L 2688 2328 
Q 2688 2594 2478 2717 
Q 2269 2841 1825 2841 
Q 1466 2841 1156 2769 
Q 847 2697 581 2553 
L 581 3406 
Q 941 3494 1303 3539 
Q 1666 3584 2028 3584 
Q 2975 3584 3395 3211 
Q 3816 2838 3816 1997 
z
" transform="scale(0.015625)"/>
      <path id="DejaVuSans-Bold-43d" d="M 538 3500 
L 1656 3500 
L 1656 2169 
L 2766 2169 
L 2766 3500 
L 3884 3500 
L 3884 0 
L 2766 0 
L 2766 1478 
L 1656 1478 
L 1656 0 
L 538 0 
L 538 3500 
z
" transform="scale(0.015625)"/>
      <path id="DejaVuSans-Bold-43e" d="M 2203 2784 
Q 1831 2784 1636 2517 
Q 1441 2250 1441 1747 
Q 1441 1244 1636 976 
Q 1831 709 2203 709 
Q 2569 709 2762 976 
Q 2956 1244 2956 1747 
Q 2956 2250 2762 2517 
Q 2569 2784 2203 2784 
z
M 2203 3584 
Q 3106 3584 3614 3096 
Q 4122 2609 4122 1747 
Q 4122 884 3614 396 
Q 3106 -91 2203 -91 
Q 1297 -91 786 396 
Q 275 884 275 1747 
Q 275 2609 786 3096 
Q 1297 3584 2203 3584 
z
" transform="scale(0.015625)"/>
      <path id="DejaVuSans-Bold-20" transform="scale(0.015625)"/>
      <path id="DejaVuSans-Bold-432" d="M 2184 2181 
Q 2378 2181 2478 2261 
Q 2578 2341 2578 2497 
Q 2578 2653 2478 2731 
Q 2378 2809 2184 2809 
L 1656 2809 
L 1656 2181 
L 2184 2181 
z
M 2222 700 
Q 2469 700 2594 798 
Q 2719 897 2719 1094 
Q 2719 1288 2594 1384 
Q 2469 1481 2222 1481 
L 1656 1481 
L 1656 700 
L 2222 700 
z
M 538 3500 
L 2141 3500 
Q 2919 3500 3267 3279 
Q 3616 3059 3616 2575 
Q 3616 2319 3487 2139 
Q 3359 1959 3119 1872 
Q 3428 1788 3598 1561 
Q 3769 1334 3769 1003 
Q 3769 497 3403 248 
Q 3038 0 2294 0 
L 538 0 
L 538 3500 
z
" transform="scale(0.015625)"/>
      <path id="DejaVuSans-Bold-440" d="M 1656 506 
L 1656 -1331 
L 538 -1331 
L 538 3500 
L 1656 3500 
L 1656 2988 
Q 1888 3294 2169 3439 
Q 2450 3584 2816 3584 
Q 3463 3584 3878 3070 
Q 4294 2556 4294 1747 
Q 4294 938 3878 423 
Q 3463 -91 2816 -91 
Q 2450 -91 2169 54 
Q 1888 200 1656 506 
z
M 2400 2772 
Q 2041 2772 1848 2508 
Q 1656 2244 1656 1747 
Q 1656 1250 1848 986 
Q 2041 722 2400 722 
Q 2759 722 2948 984 
Q 3138 1247 3138 1747 
Q 3138 2247 2948 2509 
Q 2759 2772 2400 2772 
z
" transform="scale(0.015625)"/>
      <path id="DejaVuSans-Bold-43c" d="M 538 3500 
L 1825 3500 
L 2613 1750 
L 3400 3500 
L 4691 3500 
L 4691 0 
L 3575 0 
L 3575 1984 
L 2984 672 
L 2250 672 
L 1656 1984 
L 1656 0 
L 538 0 
L 538 3500 
z
" transform="scale(0.015625)"/>
      <path id="DejaVuSans-Bold-44f" d="M 1528 2394 
Q 1528 2169 1651 2069 
Q 1775 1969 2059 1969 
L 2463 1969 
L 2463 2816 
L 2059 2816 
Q 1775 2816 1651 2719 
Q 1528 2622 1528 2394 
z
M 197 0 
L 1113 1497 
Q 847 1650 650 1917 
Q 453 2184 453 2516 
Q 453 3013 789 3256 
Q 1125 3500 1878 3500 
L 3581 3500 
L 3581 0 
L 2463 0 
L 2463 1278 
L 2069 1278 
L 1288 0 
L 197 0 
z
" transform="scale(0.015625)"/>
      <path id="DejaVuSans-Bold-448" d="M 3938 800 
L 5100 800 
L 5100 3500 
L 6219 3500 
L 6219 0 
L 538 0 
L 538 3500 
L 1656 3500 
L 1656 800 
L 2819 800 
L 2819 3500 
L 3938 3500 
L 3938 800 
z
" transform="scale(0.015625)"/>
      <path id="DejaVuSans-Bold-43f" d="M 3884 3500 
L 3884 0 
L 2766 0 
L 2766 2700 
L 1656 2700 
L 1656 0 
L 538 0 
L 538 3500 
L 3884 3500 
z
" transform="scale(0.015625)"/>
      <path id="DejaVuSans-Bold-441" d="M 3366 3391 
L 3366 2478 
Q 3138 2634 2908 2709 
Q 2678 2784 2431 2784 
Q 1963 2784 1702 2511 
Q 1441 2238 1441 1747 
Q 1441 1256 1702 982 
Q 1963 709 2431 709 
Q 2694 709 2930 787 
Q 3166 866 3366 1019 
L 3366 103 
Q 3103 6 2833 -42 
Q 2563 -91 2291 -91 
Q 1344 -91 809 395 
Q 275 881 275 1747 
Q 275 2613 809 3098 
Q 1344 3584 2291 3584 
Q 2566 3584 2833 3536 
Q 3100 3488 3366 3391 
z
" transform="scale(0.015625)"/>
      <path id="DejaVuSans-Bold-442" d="M 25 3500 
L 3681 3500 
L 3681 2809 
L 2413 2809 
L 2413 0 
L 1297 0 
L 1297 2809 
L 25 2809 
L 25 3500 
z
" transform="scale(0.015625)"/>
     </defs>
     <use xlink:href="#DejaVuSans-Bold-41c"/>
     <use xlink:href="#DejaVuSans-Bold-435" x="99.511719"/>
     <use xlink:href="#DejaVuSans-Bold-434" x="167.333984"/>
     <use xlink:href="#DejaVuSans-Bold-438" x="248.095703"/>
     <use xlink:href="#DejaVuSans-Bold-430" x="318.164062"/>
     <use xlink:href="#DejaVuSans-Bold-43d" x="385.644531"/>
     <use xlink:href="#DejaVuSans-Bold-43d" x="454.736328"/>
     <use xlink:href="#DejaVuSans-Bold-43e" x="523.828125"/>
     <use xlink:href="#DejaVuSans-Bold-435" x="592.529297"/>
     <use xlink:href="#DejaVuSans-Bold-20" x="660.351562"/>
     <use xlink:href="#DejaVuSans-Bold-432" x="695.166016"/>
     <use xlink:href="#DejaVuSans-Bold-440" x="758.447266"/>
     <use xlink:href="#DejaVuSans-Bold-435" x="830.029297"/>
     <use xlink:href="#DejaVuSans-Bold-43c" x="897.851562"/>
     <use xlink:href="#DejaVuSans-Bold-44f" x="979.589844"/>
     <use xlink:href="#DejaVuSans-Bold-20" x="1043.798828"/>
     <use xlink:href="#DejaVuSans-Bold-440" x="1078.613281"/>
     <use xlink:href="#DejaVuSans-Bold-435" x="1150.195312"/>
     <use xlink:href="#DejaVuSans-Bold-448" x="1218.017578"/>
     <use xlink:href="#DejaVuSans-Bold-435" x="1324.21875"/>
     <use xlink:href="#DejaVuSans-Bold-43d" x="1392.041016"/>
     <use xlink:href="#DejaVuSans-Bold-438" x="1461.132812"/>
     <use xlink:href="#DejaVuSans-Bold-44f" x="1531.201172"/>
     <use xlink:href="#DejaVuSans-Bold-20" x="1595.410156"/>
     <use xlink:href="#DejaVuSans-Bold-43f" x="1630.224609"/>
     <use xlink:href="#DejaVuSans-Bold-43e" x="1699.316406"/>
     <use xlink:href="#DejaVuSans-Bold-20" x="1768.017578"/>
     <use xlink:href="#DejaVuSans-Bold-441" x="1802.832031"/>
     <use xlink:href="#DejaVuSans-Bold-438" x="1862.109375"/>
     <use xlink:href="#DejaVuSans-Bold-441" x="1932.177734"/>
     <use xlink:href="#DejaVuSans-Bold-442" x="1991.455078"/>
     <use xlink:href="#DejaVuSans-Bold-435" x="2049.414062"/>
     <use xlink:href="#DejaVuSans-Bold-43c" x="2117.236328"/>
     <use xlink:href="#DejaVuSans-Bold-430" x="2198.974609"/>
     <use xlink:href="#DejaVuSans-Bold-43c" x="2266.455078"/>
    </g>
   </g>
  </g>
 </g>
 <defs>
  <clipPath id="p163119401e">
   <rect x="214.723125" y="23.837812" width="558" height="360.36"/>
  </clipPath>
 </defs>
</svg>
