<?xml version="1.0" encoding="utf-8" standalone="no"?>
<!DOCTYPE svg PUBLIC "-//W3C//DTD SVG 1.1//EN"
  "http://www.w3.org/Graphics/SVG/1.1/DTD/svg11.dtd">
<svg xmlns:xlink="http://www.w3.org/1999/xlink" width="947.323125pt" height="391.211875pt" viewBox="0 0 947.323125 391.211875" xmlns="http://www.w3.org/2000/svg" version="1.1">
 <metadata>
  <rdf:RDF xmlns:dc="http://purl.org/dc/elements/1.1/" xmlns:cc="http://creativecommons.org/ns#" xmlns:rdf="http://www.w3.org/1999/02/22-rdf-syntax-ns#">
   <cc:Work>
    <dc:type rdf:resource="http://purl.org/dc/dcmitype/StillImage"/>
    <dc:date>2026-07-23T11:33:33.407546</dc:date>
    <dc:format>image/svg+xml</dc:format>
    <dc:creator>
     <cc:Agent>
      <dc:title>Matplotlib v3.9.4, https://matplotlib.org/</dc:title>
     </cc:Agent>
    </dc:creator>
   </cc:Work>
  </rdf:RDF>
 </metadata>
 <defs>
  <style type="text/css">*{stroke-linejoin: round; stroke-linecap: butt}</style>
 </defs>
 <g id="figure_1">
  <g id="patch_1">
   <path d="M 0 391.211875 
L 947.323125 391.211875 
L 947.323125 0 
L 0 0 
z
" style="fill: #ffffff"/>
  </g>
  <g id="axes_1">
   <g id="patch_2">
    <path d="M 214.723125 351.72 
L 544.450398 351.72 
L 544.450398 46.8 
L 214.723125 46.8 
z
" style="fill: #ffffff"/>
   </g>
   <g id="patch_3">
    <path d="M 214.723125 337.86 
L 222.590164 337.86 
L 222.590164 305.248235 
L 214.723125 305.248235 
z
" clip-path="url(#p33596f662f)" style="fill: #c0392b"/>
   </g>
   <g id="patch_4">
    <path d="M 214.723125 297.095294 
L 246.846868 297.095294 
L 246.846868 264.483529 
L 214.723125 264.483529 
z
" clip-path="url(#p33596f662f)" style="fill: #c0392b"/>
   </g>
   <g id="patch_5">
    <path d="M 214.723125 256.330588 
L 313.716699 256.330588 
L 313.716699 223.718824 
L 214.723125 223.718824 
z
" clip-path="url(#p33596f662f)" style="fill: #c0392b"/>
   </g>
   <g id="patch_6">
    <path d="M 214.723125 215.565882 
L 326.828431 215.565882 
L 326.828431 182.954118 
L 214.723125 182.954118 
z
" clip-path="url(#p33596f662f)" style="fill: #c0392b"/>
   </g>
   <g id="patch_7">
    <path d="M 214.723125 174.801176 
L 360.918933 174.801176 
L 360.918933 142.189412 
L 214.723125 142.189412 
z
" clip-path="url(#p33596f662f)" style="fill: #c0392b"/>
   </g>
   <g id="patch_8">
    <path d="M 214.723125 134.036471 
L 362.230107 134.036471 
L 362.230107 101.424706 
L 214.723125 101.424706 
z
" clip-path="url(#p33596f662f)" style="fill: #c0392b"/>
   </g>
   <g id="patch_9">
    <path d="M 214.723125 93.271765 
L 528.749099 93.271765 
L 528.749099 60.66 
L 214.723125 60.66 
z
" clip-path="url(#p33596f662f)" style="fill: #c0392b"/>
   </g>
   <g id="matplotlib.axis_1">
    <g id="xtick_1">
     <g id="line2d_1">
      <path d="M 214.723125 351.72 
L 214.723125 46.8 
" clip-path="url(#p33596f662f)" style="fill: none; stroke: #e8ecf0; stroke-width: 0.8; stroke-linecap: square"/>
     </g>
     <g id="line2d_2">
      <defs>
       <path id="m39b1843822" d="M 0 0 
L 0 3.5 
" style="stroke: #000000; stroke-width: 0.8"/>
      </defs>
      <g>
       <use xlink:href="#m39b1843822" x="214.723125" y="351.72" style="stroke: #000000; stroke-width: 0.8"/>
      </g>
     </g>
     <g id="text_1">
      <!-- 0 -->
      <g transform="translate(211.22375 367.078281) scale(0.11 -0.11)">
       <defs>
        <path id="DejaVuSans-30" d="M 2034 4250 
Q 1547 4250 1301 3770 
Q 1056 3291 1056 2328 
Q 1056 1369 1301 889 
Q 1547 409 2034 409 
Q 2525 409 2770 889 
Q 3016 1369 3016 2328 
Q 3016 3291 2770 3770 
Q 2525 4250 2034 4250 
z
M 2034 4750 
Q 2819 4750 3233 4129 
Q 3647 3509 3647 2328 
Q 3647 1150 3233 529 
Q 2819 -91 2034 -91 
Q 1250 -91 836 529 
Q 422 1150 422 2328 
Q 422 3509 836 4129 
Q 1250 4750 2034 4750 
z
" transform="scale(0.015625)"/>
       </defs>
       <use xlink:href="#DejaVuSans-30"/>
      </g>
     </g>
    </g>
    <g id="xtick_2">
     <g id="line2d_3">
      <path d="M 280.281783 351.72 
L 280.281783 46.8 
" clip-path="url(#p33596f662f)" style="fill: none; stroke: #e8ecf0; stroke-width: 0.8; stroke-linecap: square"/>
     </g>
     <g id="line2d_4">
      <g>
       <use xlink:href="#m39b1843822" x="280.281783" y="351.72" style="stroke: #000000; stroke-width: 0.8"/>
      </g>
     </g>
     <g id="text_2">
      <!-- 100 -->
      <g transform="translate(269.783658 367.078281) scale(0.11 -0.11)">
       <defs>
        <path id="DejaVuSans-31" d="M 794 531 
L 1825 531 
L 1825 4091 
L 703 3866 
L 703 4441 
L 1819 4666 
L 2450 4666 
L 2450 531 
L 3481 531 
L 3481 0 
L 794 0 
L 794 531 
z
" transform="scale(0.015625)"/>
       </defs>
       <use xlink:href="#DejaVuSans-31"/>
       <use xlink:href="#DejaVuSans-30" x="63.623047"/>
       <use xlink:href="#DejaVuSans-30" x="127.246094"/>
      </g>
     </g>
    </g>
    <g id="xtick_3">
     <g id="line2d_5">
      <path d="M 345.840442 351.72 
L 345.840442 46.8 
" clip-path="url(#p33596f662f)" style="fill: none; stroke: #e8ecf0; stroke-width: 0.8; stroke-linecap: square"/>
     </g>
     <g id="line2d_6">
      <g>
       <use xlink:href="#m39b1843822" x="345.840442" y="351.72" style="stroke: #000000; stroke-width: 0.8"/>
      </g>
     </g>
     <g id="text_3">
      <!-- 200 -->
      <g transform="translate(335.342317 367.078281) scale(0.11 -0.11)">
       <defs>
        <path id="DejaVuSans-32" d="M 1228 531 
L 3431 531 
L 3431 0 
L 469 0 
L 469 531 
Q 828 903 1448 1529 
Q 2069 2156 2228 2338 
Q 2531 2678 2651 2914 
Q 2772 3150 2772 3378 
Q 2772 3750 2511 3984 
Q 2250 4219 1831 4219 
Q 1534 4219 1204 4116 
Q 875 4013 500 3803 
L 500 4441 
Q 881 4594 1212 4672 
Q 1544 4750 1819 4750 
Q 2544 4750 2975 4387 
Q 3406 4025 3406 3419 
Q 3406 3131 3298 2873 
Q 3191 2616 2906 2266 
Q 2828 2175 2409 1742 
Q 1991 1309 1228 531 
z
" transform="scale(0.015625)"/>
       </defs>
       <use xlink:href="#DejaVuSans-32"/>
       <use xlink:href="#DejaVuSans-30" x="63.623047"/>
       <use xlink:href="#DejaVuSans-30" x="127.246094"/>
      </g>
     </g>
    </g>
    <g id="xtick_4">
     <g id="line2d_7">
      <path d="M 411.3991 351.72 
L 411.3991 46.8 
" clip-path="url(#p33596f662f)" style="fill: none; stroke: #e8ecf0; stroke-width: 0.8; stroke-linecap: square"/>
     </g>
     <g id="line2d_8">
      <g>
       <use xlink:href="#m39b1843822" x="411.3991" y="351.72" style="stroke: #000000; stroke-width: 0.8"/>
      </g>
     </g>
     <g id="text_4">
      <!-- 300 -->
      <g transform="translate(400.900975 367.078281) scale(0.11 -0.11)">
       <defs>
        <path id="DejaVuSans-33" d="M 2597 2516 
Q 3050 2419 3304 2112 
Q 3559 1806 3559 1356 
Q 3559 666 3084 287 
Q 2609 -91 1734 -91 
Q 1441 -91 1130 -33 
Q 819 25 488 141 
L 488 750 
Q 750 597 1062 519 
Q 1375 441 1716 441 
Q 2309 441 2620 675 
Q 2931 909 2931 1356 
Q 2931 1769 2642 2001 
Q 2353 2234 1838 2234 
L 1294 2234 
L 1294 2753 
L 1863 2753 
Q 2328 2753 2575 2939 
Q 2822 3125 2822 3475 
Q 2822 3834 2567 4026 
Q 2313 4219 1838 4219 
Q 1578 4219 1281 4162 
Q 984 4106 628 3988 
L 628 4550 
Q 988 4650 1302 4700 
Q 1616 4750 1894 4750 
Q 2613 4750 3031 4423 
Q 3450 4097 3450 3541 
Q 3450 3153 3228 2886 
Q 3006 2619 2597 2516 
z
" transform="scale(0.015625)"/>
       </defs>
       <use xlink:href="#DejaVuSans-33"/>
       <use xlink:href="#DejaVuSans-30" x="63.623047"/>
       <use xlink:href="#DejaVuSans-30" x="127.246094"/>
      </g>
     </g>
    </g>
    <g id="xtick_5">
     <g id="line2d_9">
      <path d="M 476.957759 351.72 
L 476.957759 46.8 
" clip-path="url(#p33596f662f)" style="fill: none; stroke: #e8ecf0; stroke-width: 0.8; stroke-linecap: square"/>
     </g>
     <g id="line2d_10">
      <g>
       <use xlink:href="#m39b1843822" x="476.957759" y="351.72" style="stroke: #000000; stroke-width: 0.8"/>
      </g>
     </g>
     <g id="text_5">
      <!-- 400 -->
      <g transform="translate(466.459634 367.078281) scale(0.11 -0.11)">
       <defs>
        <path id="DejaVuSans-34" d="M 2419 4116 
L 825 1625 
L 2419 1625 
L 2419 4116 
z
M 2253 4666 
L 3047 4666 
L 3047 1625 
L 3713 1625 
L 3713 1100 
L 3047 1100 
L 3047 0 
L 2419 0 
L 2419 1100 
L 313 1100 
L 313 1709 
L 2253 4666 
z
" transform="scale(0.015625)"/>
       </defs>
       <use xlink:href="#DejaVuSans-34"/>
       <use xlink:href="#DejaVuSans-30" x="63.623047"/>
       <use xlink:href="#DejaVuSans-30" x="127.246094"/>
      </g>
     </g>
    </g>
    <g id="xtick_6">
     <g id="line2d_11">
      <path d="M 542.516417 351.72 
L 542.516417 46.8 
" clip-path="url(#p33596f662f)" style="fill: none; stroke: #e8ecf0; stroke-width: 0.8; stroke-linecap: square"/>
     </g>
     <g id="line2d_12">
      <g>
       <use xlink:href="#m39b1843822" x="542.516417" y="351.72" style="stroke: #000000; stroke-width: 0.8"/>
      </g>
     </g>
     <g id="text_6">
      <!-- 500 -->
      <g transform="translate(532.018292 367.078281) scale(0.11 -0.11)">
       <defs>
        <path id="DejaVuSans-35" d="M 691 4666 
L 3169 4666 
L 3169 4134 
L 1269 4134 
L 1269 2991 
Q 1406 3038 1543 3061 
Q 1681 3084 1819 3084 
Q 2600 3084 3056 2656 
Q 3513 2228 3513 1497 
Q 3513 744 3044 326 
Q 2575 -91 1722 -91 
Q 1428 -91 1123 -41 
Q 819 9 494 109 
L 494 744 
Q 775 591 1075 516 
Q 1375 441 1709 441 
Q 2250 441 2565 725 
Q 2881 1009 2881 1497 
Q 2881 1984 2565 2268 
Q 2250 2553 1709 2553 
Q 1456 2553 1204 2497 
Q 953 2441 691 2322 
L 691 4666 
z
" transform="scale(0.015625)"/>
       </defs>
       <use xlink:href="#DejaVuSans-35"/>
       <use xlink:href="#DejaVuSans-30" x="63.623047"/>
       <use xlink:href="#DejaVuSans-30" x="127.246094"/>
      </g>
     </g>
    </g>
    <g id="text_7">
     <!-- Рейсов (сумма за 2 года) -->
     <g transform="translate(307.226527 381.724219) scale(0.11 -0.11)">
      <defs>
       <path id="DejaVuSans-420" d="M 1259 4147 
L 1259 2394 
L 2053 2394 
Q 2494 2394 2734 2622 
Q 2975 2850 2975 3272 
Q 2975 3691 2734 3919 
Q 2494 4147 2053 4147 
L 1259 4147 
z
M 628 4666 
L 2053 4666 
Q 2838 4666 3239 4311 
Q 3641 3956 3641 3272 
Q 3641 2581 3239 2228 
Q 2838 1875 2053 1875 
L 1259 1875 
L 1259 0 
L 628 0 
L 628 4666 
z
" transform="scale(0.015625)"/>
       <path id="DejaVuSans-435" d="M 3597 1894 
L 3597 1613 
L 953 1613 
Q 991 1019 1311 708 
Q 1631 397 2203 397 
Q 2534 397 2845 478 
Q 3156 559 3463 722 
L 3463 178 
Q 3153 47 2828 -22 
Q 2503 -91 2169 -91 
Q 1331 -91 842 396 
Q 353 884 353 1716 
Q 353 2575 817 3079 
Q 1281 3584 2069 3584 
Q 2775 3584 3186 3129 
Q 3597 2675 3597 1894 
z
M 3022 2063 
Q 3016 2534 2758 2815 
Q 2500 3097 2075 3097 
Q 1594 3097 1305 2825 
Q 1016 2553 972 2059 
L 3022 2063 
z
" transform="scale(0.015625)"/>
       <path id="DejaVuSans-439" d="M 3578 3500 
L 3578 0 
L 3006 0 
L 3006 2809 
L 1319 0 
L 581 0 
L 581 3500 
L 1153 3500 
L 1153 697 
L 2838 3500 
L 3578 3500 
z
M 1102 4833 
L 1471 4833 
Q 1505 4599 1656 4481 
Q 1808 4364 2080 4364 
Q 2349 4364 2499 4480 
Q 2649 4596 2689 4833 
L 3058 4833 
Q 3027 4386 2780 4161 
Q 2533 3936 2080 3936 
Q 1627 3936 1380 4161 
Q 1133 4386 1102 4833 
z
" transform="scale(0.015625)"/>
       <path id="DejaVuSans-441" d="M 3122 3366 
L 3122 2828 
Q 2878 2963 2633 3030 
Q 2388 3097 2138 3097 
Q 1578 3097 1268 2742 
Q 959 2388 959 1747 
Q 959 1106 1268 751 
Q 1578 397 2138 397 
Q 2388 397 2633 464 
Q 2878 531 3122 666 
L 3122 134 
Q 2881 22 2623 -34 
Q 2366 -91 2075 -91 
Q 1284 -91 818 406 
Q 353 903 353 1747 
Q 353 2603 823 3093 
Q 1294 3584 2113 3584 
Q 2378 3584 2631 3529 
Q 2884 3475 3122 3366 
z
" transform="scale(0.015625)"/>
       <path id="DejaVuSans-43e" d="M 1959 3097 
Q 1497 3097 1228 2736 
Q 959 2375 959 1747 
Q 959 1119 1226 758 
Q 1494 397 1959 397 
Q 2419 397 2687 759 
Q 2956 1122 2956 1747 
Q 2956 2369 2687 2733 
Q 2419 3097 1959 3097 
z
M 1959 3584 
Q 2709 3584 3137 3096 
Q 3566 2609 3566 1747 
Q 3566 888 3137 398 
Q 2709 -91 1959 -91 
Q 1206 -91 779 398 
Q 353 888 353 1747 
Q 353 2609 779 3096 
Q 1206 3584 1959 3584 
z
" transform="scale(0.015625)"/>
       <path id="DejaVuSans-432" d="M 1156 1613 
L 1156 459 
L 1975 459 
Q 2369 459 2575 607 
Q 2781 756 2781 1038 
Q 2781 1319 2575 1466 
Q 2369 1613 1975 1613 
L 1156 1613 
z
M 1156 3041 
L 1156 2072 
L 1913 2072 
Q 2238 2072 2444 2201 
Q 2650 2331 2650 2563 
Q 2650 2794 2444 2917 
Q 2238 3041 1913 3041 
L 1156 3041 
z
M 581 3500 
L 1950 3500 
Q 2566 3500 2897 3275 
Q 3228 3050 3228 2634 
Q 3228 2313 3059 2123 
Q 2891 1934 2559 1888 
Q 2956 1813 3175 1575 
Q 3394 1338 3394 981 
Q 3394 513 3033 256 
Q 2672 0 2003 0 
L 581 0 
L 581 3500 
z
" transform="scale(0.015625)"/>
       <path id="DejaVuSans-20" transform="scale(0.015625)"/>
       <path id="DejaVuSans-28" d="M 1984 4856 
Q 1566 4138 1362 3434 
Q 1159 2731 1159 2009 
Q 1159 1288 1364 580 
Q 1569 -128 1984 -844 
L 1484 -844 
Q 1016 -109 783 600 
Q 550 1309 550 2009 
Q 550 2706 781 3412 
Q 1013 4119 1484 4856 
L 1984 4856 
z
" transform="scale(0.015625)"/>
       <path id="DejaVuSans-443" d="M 2059 -325 
Q 1816 -950 1584 -1140 
Q 1353 -1331 966 -1331 
L 506 -1331 
L 506 -850 
L 844 -850 
Q 1081 -850 1212 -737 
Q 1344 -625 1503 -206 
L 1606 56 
L 191 3500 
L 800 3500 
L 1894 763 
L 2988 3500 
L 3597 3500 
L 2059 -325 
z
" transform="scale(0.015625)"/>
       <path id="DejaVuSans-43c" d="M 581 3500 
L 1422 3500 
L 2416 1156 
L 3413 3500 
L 4247 3500 
L 4247 0 
L 3669 0 
L 3669 2950 
L 2703 672 
L 2128 672 
L 1159 2950 
L 1159 0 
L 581 0 
L 581 3500 
z
" transform="scale(0.015625)"/>
       <path id="DejaVuSans-430" d="M 2194 1759 
Q 1497 1759 1228 1600 
Q 959 1441 959 1056 
Q 959 750 1161 570 
Q 1363 391 1709 391 
Q 2188 391 2477 730 
Q 2766 1069 2766 1631 
L 2766 1759 
L 2194 1759 
z
M 3341 1997 
L 3341 0 
L 2766 0 
L 2766 531 
Q 2569 213 2275 61 
Q 1981 -91 1556 -91 
Q 1019 -91 701 211 
Q 384 513 384 1019 
Q 384 1609 779 1909 
Q 1175 2209 1959 2209 
L 2766 2209 
L 2766 2266 
Q 2766 2663 2505 2880 
Q 2244 3097 1772 3097 
Q 1472 3097 1187 3025 
Q 903 2953 641 2809 
L 641 3341 
Q 956 3463 1253 3523 
Q 1550 3584 1831 3584 
Q 2591 3584 2966 3190 
Q 3341 2797 3341 1997 
z
" transform="scale(0.015625)"/>
       <path id="DejaVuSans-437" d="M 2206 1888 
Q 2594 1813 2809 1584 
Q 3025 1356 3025 1019 
Q 3025 478 2622 193 
Q 2219 -91 1475 -91 
Q 1225 -91 961 -47 
Q 697 -3 416 84 
L 416 619 
Q 638 503 903 445 
Q 1169 388 1459 388 
Q 1931 388 2195 563 
Q 2459 738 2459 1019 
Q 2459 1294 2225 1461 
Q 1991 1628 1563 1628 
L 1100 1628 
L 1100 2103 
L 1584 2103 
Q 1947 2103 2158 2242 
Q 2369 2381 2369 2600 
Q 2369 2800 2151 2944 
Q 1934 3088 1563 3088 
Q 1341 3088 1089 3047 
Q 838 3006 534 2916 
L 534 3438 
Q 841 3513 1106 3550 
Q 1372 3588 1609 3588 
Q 2222 3588 2576 3342 
Q 2931 3097 2931 2656 
Q 2931 2366 2743 2164 
Q 2556 1963 2206 1888 
z
" transform="scale(0.015625)"/>
       <path id="DejaVuSans-433" d="M 581 0 
L 581 3500 
L 3050 3500 
L 3050 3041 
L 1159 3041 
L 1159 0 
L 581 0 
z
" transform="scale(0.015625)"/>
       <path id="DejaVuSans-434" d="M 1384 459 
L 3053 459 
L 3053 3041 
L 1844 3041 
L 1844 2603 
Q 1844 1316 1475 628 
L 1384 459 
z
M 550 459 
Q 834 584 959 850 
Q 1266 1509 1266 2838 
L 1266 3500 
L 3631 3500 
L 3631 459 
L 4091 459 
L 4091 -884 
L 3631 -884 
L 3631 0 
L 794 0 
L 794 -884 
L 334 -884 
L 334 459 
L 550 459 
z
" transform="scale(0.015625)"/>
       <path id="DejaVuSans-29" d="M 513 4856 
L 1013 4856 
Q 1481 4119 1714 3412 
Q 1947 2706 1947 2009 
Q 1947 1309 1714 600 
Q 1481 -109 1013 -844 
L 513 -844 
Q 928 -128 1133 580 
Q 1338 1288 1338 2009 
Q 1338 2731 1133 3434 
Q 928 4138 513 4856 
z
" transform="scale(0.015625)"/>
      </defs>
      <use xlink:href="#DejaVuSans-420"/>
      <use xlink:href="#DejaVuSans-435" x="60.302734"/>
      <use xlink:href="#DejaVuSans-439" x="121.826172"/>
      <use xlink:href="#DejaVuSans-441" x="186.816406"/>
      <use xlink:href="#DejaVuSans-43e" x="241.796875"/>
      <use xlink:href="#DejaVuSans-432" x="302.978516"/>
      <use xlink:href="#DejaVuSans-20" x="361.914062"/>
      <use xlink:href="#DejaVuSans-28" x="393.701172"/>
      <use xlink:href="#DejaVuSans-441" x="432.714844"/>
      <use xlink:href="#DejaVuSans-443" x="487.695312"/>
      <use xlink:href="#DejaVuSans-43c" x="546.875"/>
      <use xlink:href="#DejaVuSans-43c" x="622.314453"/>
      <use xlink:href="#DejaVuSans-430" x="697.753906"/>
      <use xlink:href="#DejaVuSans-20" x="759.033203"/>
      <use xlink:href="#DejaVuSans-437" x="790.820312"/>
      <use xlink:href="#DejaVuSans-430" x="843.994141"/>
      <use xlink:href="#DejaVuSans-20" x="905.273438"/>
      <use xlink:href="#DejaVuSans-32" x="937.060547"/>
      <use xlink:href="#DejaVuSans-20" x="1000.683594"/>
      <use xlink:href="#DejaVuSans-433" x="1032.470703"/>
      <use xlink:href="#DejaVuSans-43e" x="1085.009766"/>
      <use xlink:href="#DejaVuSans-434" x="1146.191406"/>
      <use xlink:href="#DejaVuSans-430" x="1215.332031"/>
      <use xlink:href="#DejaVuSans-29" x="1276.611328"/>
     </g>
    </g>
   </g>
   <g id="matplotlib.axis_2">
    <g id="ytick_1">
     <g id="line2d_13">
      <path d="M 214.723125 321.554118 
L 544.450398 321.554118 
" clip-path="url(#p33596f662f)" style="fill: none; stroke: #e8ecf0; stroke-width: 0.8; stroke-linecap: square"/>
     </g>
     <g id="line2d_14">
      <defs>
       <path id="m7bf96e8b42" d="M 0 0 
L -3.5 0 
" style="stroke: #000000; stroke-width: 0.8"/>
      </defs>
      <g>
       <use xlink:href="#m7bf96e8b42" x="214.723125" y="321.554118" style="stroke: #000000; stroke-width: 0.8"/>
      </g>
     </g>
     <g id="text_8">
      <!-- Принтеры посадочных талонов -->
      <g transform="translate(25.044062 325.733258) scale(0.11 -0.11)">
       <defs>
        <path id="DejaVuSans-41f" d="M 4184 4666 
L 4184 0 
L 3553 0 
L 3553 4134 
L 1259 4134 
L 1259 0 
L 628 0 
L 628 4666 
L 4184 4666 
z
" transform="scale(0.015625)"/>
        <path id="DejaVuSans-440" d="M 1159 525 
L 1159 -1331 
L 581 -1331 
L 581 3500 
L 1159 3500 
L 1159 2969 
Q 1341 3281 1617 3432 
Q 1894 3584 2278 3584 
Q 2916 3584 3314 3078 
Q 3713 2572 3713 1747 
Q 3713 922 3314 415 
Q 2916 -91 2278 -91 
Q 1894 -91 1617 61 
Q 1341 213 1159 525 
z
M 3116 1747 
Q 3116 2381 2855 2742 
Q 2594 3103 2138 3103 
Q 1681 3103 1420 2742 
Q 1159 2381 1159 1747 
Q 1159 1113 1420 752 
Q 1681 391 2138 391 
Q 2594 391 2855 752 
Q 3116 1113 3116 1747 
z
" transform="scale(0.015625)"/>
        <path id="DejaVuSans-438" d="M 3578 3500 
L 3578 0 
L 3006 0 
L 3006 2809 
L 1319 0 
L 581 0 
L 581 3500 
L 1153 3500 
L 1153 697 
L 2838 3500 
L 3578 3500 
z
" transform="scale(0.015625)"/>
        <path id="DejaVuSans-43d" d="M 581 3500 
L 1159 3500 
L 1159 2072 
L 3025 2072 
L 3025 3500 
L 3603 3500 
L 3603 0 
L 3025 0 
L 3025 1613 
L 1159 1613 
L 1159 0 
L 581 0 
L 581 3500 
z
" transform="scale(0.015625)"/>
        <path id="DejaVuSans-442" d="M 188 3500 
L 3541 3500 
L 3541 3041 
L 2147 3041 
L 2147 0 
L 1581 0 
L 1581 3041 
L 188 3041 
L 188 3500 
z
" transform="scale(0.015625)"/>
        <path id="DejaVuSans-44b" d="M 3907 3500 
L 4482 3500 
L 4482 0 
L 3907 0 
L 3907 3500 
z
M 4195 3584 
L 4195 3584 
z
M 2781 1038 
Q 2781 1319 2576 1466 
Q 2372 1613 1978 1613 
L 1159 1613 
L 1159 459 
L 1978 459 
Q 2372 459 2576 607 
Q 2781 756 2781 1038 
z
M 581 3500 
L 1159 3500 
L 1159 2072 
L 2003 2072 
Q 2672 2072 3033 1817 
Q 3394 1563 3394 1038 
Q 3394 513 3033 256 
Q 2672 0 2003 0 
L 581 0 
L 581 3500 
z
" transform="scale(0.015625)"/>
        <path id="DejaVuSans-43f" d="M 3603 3500 
L 3603 0 
L 3025 0 
L 3025 3041 
L 1159 3041 
L 1159 0 
L 581 0 
L 581 3500 
L 3603 3500 
z
" transform="scale(0.015625)"/>
        <path id="DejaVuSans-447" d="M 2625 0 
L 2625 1472 
L 1553 1472 
Q 1075 1472 756 1769 
Q 469 2038 469 2613 
L 469 3500 
L 1044 3500 
L 1044 2666 
Q 1044 2300 1206 2116 
Q 1372 1931 1697 1931 
L 2625 1931 
L 2625 3500 
L 3200 3500 
L 3200 0 
L 2625 0 
z
" transform="scale(0.015625)"/>
        <path id="DejaVuSans-445" d="M 3513 3500 
L 2247 1797 
L 3578 0 
L 2900 0 
L 1881 1375 
L 863 0 
L 184 0 
L 1544 1831 
L 300 3500 
L 978 3500 
L 1906 2253 
L 2834 3500 
L 3513 3500 
z
" transform="scale(0.015625)"/>
        <path id="DejaVuSans-43b" d="M 238 0 
L 238 478 
Q 806 566 981 959 
Q 1194 1513 1194 2928 
L 1194 3500 
L 3559 3500 
L 3559 0 
L 2984 0 
L 2984 3041 
L 1769 3041 
L 1769 2694 
Q 1769 1344 1494 738 
Q 1200 91 238 0 
z
" transform="scale(0.015625)"/>
       </defs>
       <use xlink:href="#DejaVuSans-41f"/>
       <use xlink:href="#DejaVuSans-440" x="75.195312"/>
       <use xlink:href="#DejaVuSans-438" x="138.671875"/>
       <use xlink:href="#DejaVuSans-43d" x="203.662109"/>
       <use xlink:href="#DejaVuSans-442" x="269.042969"/>
       <use xlink:href="#DejaVuSans-435" x="327.294922"/>
       <use xlink:href="#DejaVuSans-440" x="388.818359"/>
       <use xlink:href="#DejaVuSans-44b" x="452.294922"/>
       <use xlink:href="#DejaVuSans-20" x="531.25"/>
       <use xlink:href="#DejaVuSans-43f" x="563.037109"/>
       <use xlink:href="#DejaVuSans-43e" x="628.417969"/>
       <use xlink:href="#DejaVuSans-441" x="689.599609"/>
       <use xlink:href="#DejaVuSans-430" x="744.580078"/>
       <use xlink:href="#DejaVuSans-434" x="805.859375"/>
       <use xlink:href="#DejaVuSans-43e" x="875"/>
       <use xlink:href="#DejaVuSans-447" x="936.181641"/>
       <use xlink:href="#DejaVuSans-43d" x="995.263672"/>
       <use xlink:href="#DejaVuSans-44b" x="1060.644531"/>
       <use xlink:href="#DejaVuSans-445" x="1139.599609"/>
       <use xlink:href="#DejaVuSans-20" x="1198.779297"/>
       <use xlink:href="#DejaVuSans-442" x="1230.566406"/>
       <use xlink:href="#DejaVuSans-430" x="1288.818359"/>
       <use xlink:href="#DejaVuSans-43b" x="1350.097656"/>
       <use xlink:href="#DejaVuSans-43e" x="1414.013672"/>
       <use xlink:href="#DejaVuSans-43d" x="1475.195312"/>
       <use xlink:href="#DejaVuSans-43e" x="1540.576172"/>
       <use xlink:href="#DejaVuSans-432" x="1601.757812"/>
      </g>
     </g>
    </g>
    <g id="ytick_2">
     <g id="line2d_15">
      <path d="M 214.723125 280.789412 
L 544.450398 280.789412 
" clip-path="url(#p33596f662f)" style="fill: none; stroke: #e8ecf0; stroke-width: 0.8; stroke-linecap: square"/>
     </g>
     <g id="line2d_16">
      <g>
       <use xlink:href="#m7bf96e8b42" x="214.723125" y="280.789412" style="stroke: #000000; stroke-width: 0.8"/>
      </g>
     </g>
     <g id="text_9">
      <!-- Система контроля доступа (СКУД) -->
      <g transform="translate(7.2 284.968552) scale(0.11 -0.11)">
       <defs>
        <path id="DejaVuSans-421" d="M 4122 4306 
L 4122 3641 
Q 3803 3938 3442 4084 
Q 3081 4231 2675 4231 
Q 1875 4231 1450 3742 
Q 1025 3253 1025 2328 
Q 1025 1406 1450 917 
Q 1875 428 2675 428 
Q 3081 428 3442 575 
Q 3803 722 4122 1019 
L 4122 359 
Q 3791 134 3420 21 
Q 3050 -91 2638 -91 
Q 1578 -91 968 557 
Q 359 1206 359 2328 
Q 359 3453 968 4101 
Q 1578 4750 2638 4750 
Q 3056 4750 3426 4639 
Q 3797 4528 4122 4306 
z
" transform="scale(0.015625)"/>
        <path id="DejaVuSans-43a" d="M 581 3500 
L 1153 3500 
L 1153 1856 
L 2775 3500 
L 3481 3500 
L 2144 2147 
L 3653 0 
L 3009 0 
L 1769 1766 
L 1153 1141 
L 1153 0 
L 581 0 
L 581 3500 
z
" transform="scale(0.015625)"/>
        <path id="DejaVuSans-44f" d="M 1181 2491 
Q 1181 2231 1381 2084 
Q 1581 1938 1953 1938 
L 2728 1938 
L 2728 3041 
L 1953 3041 
Q 1581 3041 1381 2897 
Q 1181 2753 1181 2491 
z
M 363 0 
L 1431 1534 
Q 1069 1616 828 1830 
Q 588 2044 588 2491 
Q 588 2997 923 3248 
Q 1259 3500 1938 3500 
L 3306 3500 
L 3306 0 
L 2728 0 
L 2728 1478 
L 2013 1478 
L 981 0 
L 363 0 
z
" transform="scale(0.015625)"/>
        <path id="DejaVuSans-41a" d="M 628 4666 
L 1259 4666 
L 1259 2359 
L 3516 4666 
L 4325 4666 
L 2522 2822 
L 4419 0 
L 3731 0 
L 2113 2403 
L 1259 1531 
L 1259 0 
L 628 0 
L 628 4666 
z
" transform="scale(0.015625)"/>
        <path id="DejaVuSans-423" d="M 2047 566 
Q 1981 409 1881 291 
Q 1634 0 850 0 
L 609 0 
L 609 531 
L 806 531 
Q 1178 531 1322 616 
Q 1409 669 1466 800 
L 1606 1131 
L 109 4666 
L 788 4666 
L 1947 1928 
L 3113 4666 
L 3791 4666 
L 2047 566 
z
" transform="scale(0.015625)"/>
        <path id="DejaVuSans-414" d="M 1459 531 
L 3522 531 
L 3522 4134 
L 2006 4134 
L 2006 3472 
Q 2006 1913 1656 878 
Q 1584 666 1459 531 
z
M 538 531 
Q 956 728 1075 1103 
Q 1378 2066 1378 3784 
L 1378 4666 
L 4153 4666 
L 4153 531 
L 4684 531 
L 4684 -1003 
L 4153 -1003 
L 4153 0 
L 847 0 
L 847 -1003 
L 316 -1003 
L 316 531 
L 538 531 
z
" transform="scale(0.015625)"/>
       </defs>
       <use xlink:href="#DejaVuSans-421"/>
       <use xlink:href="#DejaVuSans-438" x="69.824219"/>
       <use xlink:href="#DejaVuSans-441" x="134.814453"/>
       <use xlink:href="#DejaVuSans-442" x="189.794922"/>
       <use xlink:href="#DejaVuSans-435" x="248.046875"/>
       <use xlink:href="#DejaVuSans-43c" x="309.570312"/>
       <use xlink:href="#DejaVuSans-430" x="385.009766"/>
       <use xlink:href="#DejaVuSans-20" x="446.289062"/>
       <use xlink:href="#DejaVuSans-43a" x="478.076172"/>
       <use xlink:href="#DejaVuSans-43e" x="538.476562"/>
       <use xlink:href="#DejaVuSans-43d" x="599.658203"/>
       <use xlink:href="#DejaVuSans-442" x="665.039062"/>
       <use xlink:href="#DejaVuSans-440" x="723.291016"/>
       <use xlink:href="#DejaVuSans-43e" x="786.767578"/>
       <use xlink:href="#DejaVuSans-43b" x="847.949219"/>
       <use xlink:href="#DejaVuSans-44f" x="911.865234"/>
       <use xlink:href="#DejaVuSans-20" x="972.021484"/>
       <use xlink:href="#DejaVuSans-434" x="1003.808594"/>
       <use xlink:href="#DejaVuSans-43e" x="1072.949219"/>
       <use xlink:href="#DejaVuSans-441" x="1134.130859"/>
       <use xlink:href="#DejaVuSans-442" x="1189.111328"/>
       <use xlink:href="#DejaVuSans-443" x="1247.363281"/>
       <use xlink:href="#DejaVuSans-43f" x="1306.542969"/>
       <use xlink:href="#DejaVuSans-430" x="1371.923828"/>
       <use xlink:href="#DejaVuSans-20" x="1433.203125"/>
       <use xlink:href="#DejaVuSans-28" x="1464.990234"/>
       <use xlink:href="#DejaVuSans-421" x="1504.003906"/>
       <use xlink:href="#DejaVuSans-41a" x="1573.828125"/>
       <use xlink:href="#DejaVuSans-423" x="1644.824219"/>
       <use xlink:href="#DejaVuSans-414" x="1705.761719"/>
       <use xlink:href="#DejaVuSans-29" x="1783.886719"/>
      </g>
     </g>
    </g>
    <g id="ytick_3">
     <g id="line2d_17">
      <path d="M 214.723125 240.024706 
L 544.450398 240.024706 
" clip-path="url(#p33596f662f)" style="fill: none; stroke: #e8ecf0; stroke-width: 0.8; stroke-linecap: square"/>
     </g>
     <g id="line2d_18">
      <g>
       <use xlink:href="#m7bf96e8b42" x="214.723125" y="240.024706" style="stroke: #000000; stroke-width: 0.8"/>
      </g>
     </g>
     <g id="text_10">
      <!-- Табло вылета и прилёта (FIDS) -->
      <g transform="translate(28.589844 244.297518) scale(0.11 -0.11)">
       <defs>
        <path id="DejaVuSans-422" d="M -19 4666 
L 3928 4666 
L 3928 4134 
L 2272 4134 
L 2272 0 
L 1638 0 
L 1638 4134 
L -19 4134 
L -19 4666 
z
" transform="scale(0.015625)"/>
        <path id="DejaVuSans-431" d="M 1991 3584 
Q 2741 3584 3169 3096 
Q 3597 2609 3597 1747 
Q 3597 888 3169 398 
Q 2741 -91 1991 -91 
Q 1238 -91 822 384 
Q 406 859 384 1747 
L 366 2463 
Q 350 2834 350 2963 
Q 350 3463 531 3831 
Q 816 4409 1308 4659 
Q 1800 4909 2625 4916 
Q 3006 4919 3175 4972 
L 3334 4516 
Q 3181 4453 3041 4450 
L 2259 4397 
Q 1866 4369 1628 4231 
Q 1006 3866 947 3388 
L 925 3213 
Q 1331 3584 1991 3584 
z
M 1991 3097 
Q 1528 3097 1259 2736 
Q 991 2375 991 1747 
Q 991 1119 1258 758 
Q 1525 397 1991 397 
Q 2450 397 2719 759 
Q 2988 1122 2988 1747 
Q 2988 2369 2719 2733 
Q 2450 3097 1991 3097 
z
" transform="scale(0.015625)"/>
        <path id="DejaVuSans-451" d="M 3597 1894 
L 3597 1613 
L 953 1613 
Q 991 1019 1311 708 
Q 1631 397 2203 397 
Q 2534 397 2845 478 
Q 3156 559 3463 722 
L 3463 178 
Q 3153 47 2828 -22 
Q 2503 -91 2169 -91 
Q 1331 -91 842 396 
Q 353 884 353 1716 
Q 353 2575 817 3079 
Q 1281 3584 2069 3584 
Q 2775 3584 3186 3129 
Q 3597 2675 3597 1894 
z
M 3022 2063 
Q 3016 2534 2758 2815 
Q 2500 3097 2075 3097 
Q 1594 3097 1305 2825 
Q 1016 2553 972 2059 
L 3022 2063 
z
M 2366 4850 
L 3000 4850 
L 3000 4219 
L 2366 4219 
L 2366 4850 
z
M 1144 4850 
L 1778 4850 
L 1778 4219 
L 1144 4219 
L 1144 4850 
z
" transform="scale(0.015625)"/>
        <path id="DejaVuSans-46" d="M 628 4666 
L 3309 4666 
L 3309 4134 
L 1259 4134 
L 1259 2759 
L 3109 2759 
L 3109 2228 
L 1259 2228 
L 1259 0 
L 628 0 
L 628 4666 
z
" transform="scale(0.015625)"/>
        <path id="DejaVuSans-49" d="M 628 4666 
L 1259 4666 
L 1259 0 
L 628 0 
L 628 4666 
z
" transform="scale(0.015625)"/>
        <path id="DejaVuSans-44" d="M 1259 4147 
L 1259 519 
L 2022 519 
Q 2988 519 3436 956 
Q 3884 1394 3884 2338 
Q 3884 3275 3436 3711 
Q 2988 4147 2022 4147 
L 1259 4147 
z
M 628 4666 
L 1925 4666 
Q 3281 4666 3915 4102 
Q 4550 3538 4550 2338 
Q 4550 1131 3912 565 
Q 3275 0 1925 0 
L 628 0 
L 628 4666 
z
" transform="scale(0.015625)"/>
        <path id="DejaVuSans-53" d="M 3425 4513 
L 3425 3897 
Q 3066 4069 2747 4153 
Q 2428 4238 2131 4238 
Q 1616 4238 1336 4038 
Q 1056 3838 1056 3469 
Q 1056 3159 1242 3001 
Q 1428 2844 1947 2747 
L 2328 2669 
Q 3034 2534 3370 2195 
Q 3706 1856 3706 1288 
Q 3706 609 3251 259 
Q 2797 -91 1919 -91 
Q 1588 -91 1214 -16 
Q 841 59 441 206 
L 441 856 
Q 825 641 1194 531 
Q 1563 422 1919 422 
Q 2459 422 2753 634 
Q 3047 847 3047 1241 
Q 3047 1584 2836 1778 
Q 2625 1972 2144 2069 
L 1759 2144 
Q 1053 2284 737 2584 
Q 422 2884 422 3419 
Q 422 4038 858 4394 
Q 1294 4750 2059 4750 
Q 2388 4750 2728 4690 
Q 3069 4631 3425 4513 
z
" transform="scale(0.015625)"/>
       </defs>
       <use xlink:href="#DejaVuSans-422"/>
       <use xlink:href="#DejaVuSans-430" x="61.083984"/>
       <use xlink:href="#DejaVuSans-431" x="122.363281"/>
       <use xlink:href="#DejaVuSans-43b" x="184.033203"/>
       <use xlink:href="#DejaVuSans-43e" x="247.949219"/>
       <use xlink:href="#DejaVuSans-20" x="309.130859"/>
       <use xlink:href="#DejaVuSans-432" x="340.917969"/>
       <use xlink:href="#DejaVuSans-44b" x="399.853516"/>
       <use xlink:href="#DejaVuSans-43b" x="478.808594"/>
       <use xlink:href="#DejaVuSans-435" x="542.724609"/>
       <use xlink:href="#DejaVuSans-442" x="604.248047"/>
       <use xlink:href="#DejaVuSans-430" x="662.5"/>
       <use xlink:href="#DejaVuSans-20" x="723.779297"/>
       <use xlink:href="#DejaVuSans-438" x="755.566406"/>
       <use xlink:href="#DejaVuSans-20" x="820.556641"/>
       <use xlink:href="#DejaVuSans-43f" x="852.34375"/>
       <use xlink:href="#DejaVuSans-440" x="917.724609"/>
       <use xlink:href="#DejaVuSans-438" x="981.201172"/>
       <use xlink:href="#DejaVuSans-43b" x="1046.191406"/>
       <use xlink:href="#DejaVuSans-451" x="1110.107422"/>
       <use xlink:href="#DejaVuSans-442" x="1171.630859"/>
       <use xlink:href="#DejaVuSans-430" x="1229.882812"/>
       <use xlink:href="#DejaVuSans-20" x="1291.162109"/>
       <use xlink:href="#DejaVuSans-28" x="1322.949219"/>
       <use xlink:href="#DejaVuSans-46" x="1361.962891"/>
       <use xlink:href="#DejaVuSans-49" x="1419.482422"/>
       <use xlink:href="#DejaVuSans-44" x="1448.974609"/>
       <use xlink:href="#DejaVuSans-53" x="1525.976562"/>
       <use xlink:href="#DejaVuSans-29" x="1589.453125"/>
      </g>
     </g>
    </g>
    <g id="ytick_4">
     <g id="line2d_19">
      <path d="M 214.723125 199.26 
L 544.450398 199.26 
" clip-path="url(#p33596f662f)" style="fill: none; stroke: #e8ecf0; stroke-width: 0.8; stroke-linecap: square"/>
     </g>
     <g id="line2d_20">
      <g>
       <use xlink:href="#m7bf96e8b42" x="214.723125" y="199.26" style="stroke: #000000; stroke-width: 0.8"/>
      </g>
     </g>
     <g id="text_11">
      <!-- Посадочные гейты -->
      <g transform="translate(98.166562 203.439141) scale(0.11 -0.11)">
       <use xlink:href="#DejaVuSans-41f"/>
       <use xlink:href="#DejaVuSans-43e" x="75.195312"/>
       <use xlink:href="#DejaVuSans-441" x="136.376953"/>
       <use xlink:href="#DejaVuSans-430" x="191.357422"/>
       <use xlink:href="#DejaVuSans-434" x="252.636719"/>
       <use xlink:href="#DejaVuSans-43e" x="321.777344"/>
       <use xlink:href="#DejaVuSans-447" x="382.958984"/>
       <use xlink:href="#DejaVuSans-43d" x="442.041016"/>
       <use xlink:href="#DejaVuSans-44b" x="507.421875"/>
       <use xlink:href="#DejaVuSans-435" x="586.376953"/>
       <use xlink:href="#DejaVuSans-20" x="647.900391"/>
       <use xlink:href="#DejaVuSans-433" x="679.6875"/>
       <use xlink:href="#DejaVuSans-435" x="732.226562"/>
       <use xlink:href="#DejaVuSans-439" x="793.75"/>
       <use xlink:href="#DejaVuSans-442" x="858.740234"/>
       <use xlink:href="#DejaVuSans-44b" x="916.992188"/>
      </g>
     </g>
    </g>
    <g id="ytick_5">
     <g id="line2d_21">
      <path d="M 214.723125 158.495294 
L 544.450398 158.495294 
" clip-path="url(#p33596f662f)" style="fill: none; stroke: #e8ecf0; stroke-width: 0.8; stroke-linecap: square"/>
     </g>
     <g id="line2d_22">
      <g>
       <use xlink:href="#m7bf96e8b42" x="214.723125" y="158.495294" style="stroke: #000000; stroke-width: 0.8"/>
      </g>
     </g>
     <g id="text_12">
      <!-- Стойки и киоски регистрации -->
      <g transform="translate(33.318125 162.674435) scale(0.11 -0.11)">
       <defs>
        <path id="DejaVuSans-446" d="M 3603 0 
L 581 0 
L 581 3500 
L 1159 3500 
L 1159 459 
L 3025 459 
L 3025 3500 
L 3603 3500 
L 3603 459 
L 4063 459 
L 4063 -884 
L 3603 -884 
L 3603 0 
z
" transform="scale(0.015625)"/>
       </defs>
       <use xlink:href="#DejaVuSans-421"/>
       <use xlink:href="#DejaVuSans-442" x="69.824219"/>
       <use xlink:href="#DejaVuSans-43e" x="128.076172"/>
       <use xlink:href="#DejaVuSans-439" x="189.257812"/>
       <use xlink:href="#DejaVuSans-43a" x="254.248047"/>
       <use xlink:href="#DejaVuSans-438" x="314.648438"/>
       <use xlink:href="#DejaVuSans-20" x="379.638672"/>
       <use xlink:href="#DejaVuSans-438" x="411.425781"/>
       <use xlink:href="#DejaVuSans-20" x="476.416016"/>
       <use xlink:href="#DejaVuSans-43a" x="508.203125"/>
       <use xlink:href="#DejaVuSans-438" x="568.603516"/>
       <use xlink:href="#DejaVuSans-43e" x="633.59375"/>
       <use xlink:href="#DejaVuSans-441" x="694.775391"/>
       <use xlink:href="#DejaVuSans-43a" x="749.755859"/>
       <use xlink:href="#DejaVuSans-438" x="810.15625"/>
       <use xlink:href="#DejaVuSans-20" x="875.146484"/>
       <use xlink:href="#DejaVuSans-440" x="906.933594"/>
       <use xlink:href="#DejaVuSans-435" x="970.410156"/>
       <use xlink:href="#DejaVuSans-433" x="1031.933594"/>
       <use xlink:href="#DejaVuSans-438" x="1084.472656"/>
       <use xlink:href="#DejaVuSans-441" x="1149.462891"/>
       <use xlink:href="#DejaVuSans-442" x="1204.443359"/>
       <use xlink:href="#DejaVuSans-440" x="1262.695312"/>
       <use xlink:href="#DejaVuSans-430" x="1326.171875"/>
       <use xlink:href="#DejaVuSans-446" x="1387.451172"/>
       <use xlink:href="#DejaVuSans-438" x="1455.517578"/>
       <use xlink:href="#DejaVuSans-438" x="1520.507812"/>
      </g>
     </g>
    </g>
    <g id="ytick_6">
     <g id="line2d_23">
      <path d="M 214.723125 117.730588 
L 544.450398 117.730588 
" clip-path="url(#p33596f662f)" style="fill: none; stroke: #e8ecf0; stroke-width: 0.8; stroke-linecap: square"/>
     </g>
     <g id="line2d_24">
      <g>
       <use xlink:href="#m7bf96e8b42" x="214.723125" y="117.730588" style="stroke: #000000; stroke-width: 0.8"/>
      </g>
     </g>
     <g id="text_13">
      <!-- Серверы и ЦОД -->
      <g transform="translate(117.437187 121.909729) scale(0.11 -0.11)">
       <defs>
        <path id="DejaVuSans-426" d="M 4184 0 
L 628 0 
L 628 4666 
L 1259 4666 
L 1259 531 
L 3553 531 
L 3553 4666 
L 4184 4666 
L 4184 531 
L 4716 531 
L 4716 -1003 
L 4184 -1003 
L 4184 0 
z
" transform="scale(0.015625)"/>
        <path id="DejaVuSans-41e" d="M 2522 4238 
Q 1834 4238 1429 3725 
Q 1025 3213 1025 2328 
Q 1025 1447 1429 934 
Q 1834 422 2522 422 
Q 3209 422 3611 934 
Q 4013 1447 4013 2328 
Q 4013 3213 3611 3725 
Q 3209 4238 2522 4238 
z
M 2522 4750 
Q 3503 4750 4090 4092 
Q 4678 3434 4678 2328 
Q 4678 1225 4090 567 
Q 3503 -91 2522 -91 
Q 1538 -91 948 565 
Q 359 1222 359 2328 
Q 359 3434 948 4092 
Q 1538 4750 2522 4750 
z
" transform="scale(0.015625)"/>
       </defs>
       <use xlink:href="#DejaVuSans-421"/>
       <use xlink:href="#DejaVuSans-435" x="69.824219"/>
       <use xlink:href="#DejaVuSans-440" x="131.347656"/>
       <use xlink:href="#DejaVuSans-432" x="194.824219"/>
       <use xlink:href="#DejaVuSans-435" x="253.759766"/>
       <use xlink:href="#DejaVuSans-440" x="315.283203"/>
       <use xlink:href="#DejaVuSans-44b" x="378.759766"/>
       <use xlink:href="#DejaVuSans-20" x="457.714844"/>
       <use xlink:href="#DejaVuSans-438" x="489.501953"/>
       <use xlink:href="#DejaVuSans-20" x="554.492188"/>
       <use xlink:href="#DejaVuSans-426" x="586.279297"/>
       <use xlink:href="#DejaVuSans-41e" x="663.916016"/>
       <use xlink:href="#DejaVuSans-414" x="742.626953"/>
      </g>
     </g>
    </g>
    <g id="ytick_7">
     <g id="line2d_25">
      <path d="M 214.723125 76.965882 
L 544.450398 76.965882 
" clip-path="url(#p33596f662f)" style="fill: none; stroke: #e8ecf0; stroke-width: 0.8; stroke-linecap: square"/>
     </g>
     <g id="line2d_26">
      <g>
       <use xlink:href="#m7bf96e8b42" x="214.723125" y="76.965882" style="stroke: #000000; stroke-width: 0.8"/>
      </g>
     </g>
     <g id="text_14">
      <!-- Система обработки багажа (BHS) -->
      <g transform="translate(13.105625 81.238695) scale(0.11 -0.11)">
       <defs>
        <path id="DejaVuSans-436" d="M 2597 3500 
L 3169 3500 
L 3169 1856 
L 4697 3500 
L 5366 3500 
L 4109 2153 
L 5547 0 
L 4931 0 
L 3753 1769 
L 3169 1141 
L 3169 0 
L 2597 0 
L 2597 1141 
L 2013 1769 
L 834 0 
L 219 0 
L 1656 2153 
L 400 3500 
L 1069 3500 
L 2597 1856 
L 2597 3500 
z
" transform="scale(0.015625)"/>
        <path id="DejaVuSans-42" d="M 1259 2228 
L 1259 519 
L 2272 519 
Q 2781 519 3026 730 
Q 3272 941 3272 1375 
Q 3272 1813 3026 2020 
Q 2781 2228 2272 2228 
L 1259 2228 
z
M 1259 4147 
L 1259 2741 
L 2194 2741 
Q 2656 2741 2882 2914 
Q 3109 3088 3109 3444 
Q 3109 3797 2882 3972 
Q 2656 4147 2194 4147 
L 1259 4147 
z
M 628 4666 
L 2241 4666 
Q 2963 4666 3353 4366 
Q 3744 4066 3744 3513 
Q 3744 3084 3544 2831 
Q 3344 2578 2956 2516 
Q 3422 2416 3680 2098 
Q 3938 1781 3938 1306 
Q 3938 681 3513 340 
Q 3088 0 2303 0 
L 628 0 
L 628 4666 
z
" transform="scale(0.015625)"/>
        <path id="DejaVuSans-48" d="M 628 4666 
L 1259 4666 
L 1259 2753 
L 3553 2753 
L 3553 4666 
L 4184 4666 
L 4184 0 
L 3553 0 
L 3553 2222 
L 1259 2222 
L 1259 0 
L 628 0 
L 628 4666 
z
" transform="scale(0.015625)"/>
       </defs>
       <use xlink:href="#DejaVuSans-421"/>
       <use xlink:href="#DejaVuSans-438" x="69.824219"/>
       <use xlink:href="#DejaVuSans-441" x="134.814453"/>
       <use xlink:href="#DejaVuSans-442" x="189.794922"/>
       <use xlink:href="#DejaVuSans-435" x="248.046875"/>
       <use xlink:href="#DejaVuSans-43c" x="309.570312"/>
       <use xlink:href="#DejaVuSans-430" x="385.009766"/>
       <use xlink:href="#DejaVuSans-20" x="446.289062"/>
       <use xlink:href="#DejaVuSans-43e" x="478.076172"/>
       <use xlink:href="#DejaVuSans-431" x="539.257812"/>
       <use xlink:href="#DejaVuSans-440" x="600.927734"/>
       <use xlink:href="#DejaVuSans-430" x="664.404297"/>
       <use xlink:href="#DejaVuSans-431" x="725.683594"/>
       <use xlink:href="#DejaVuSans-43e" x="787.353516"/>
       <use xlink:href="#DejaVuSans-442" x="848.535156"/>
       <use xlink:href="#DejaVuSans-43a" x="906.787109"/>
       <use xlink:href="#DejaVuSans-438" x="967.1875"/>
       <use xlink:href="#DejaVuSans-20" x="1032.177734"/>
       <use xlink:href="#DejaVuSans-431" x="1063.964844"/>
       <use xlink:href="#DejaVuSans-430" x="1125.634766"/>
       <use xlink:href="#DejaVuSans-433" x="1186.914062"/>
       <use xlink:href="#DejaVuSans-430" x="1239.453125"/>
       <use xlink:href="#DejaVuSans-436" x="1300.732422"/>
       <use xlink:href="#DejaVuSans-430" x="1390.820312"/>
       <use xlink:href="#DejaVuSans-20" x="1452.099609"/>
       <use xlink:href="#DejaVuSans-28" x="1483.886719"/>
       <use xlink:href="#DejaVuSans-42" x="1522.900391"/>
       <use xlink:href="#DejaVuSans-48" x="1591.503906"/>
       <use xlink:href="#DejaVuSans-53" x="1666.699219"/>
       <use xlink:href="#DejaVuSans-29" x="1730.175781"/>
      </g>
     </g>
    </g>
   </g>
   <g id="patch_10">
    <path d="M 214.723125 351.72 
L 214.723125 46.8 
" style="fill: none; stroke: #cfd6dd; stroke-width: 0.8; stroke-linejoin: miter; stroke-linecap: square"/>
   </g>
   <g id="patch_11">
    <path d="M 544.450398 351.72 
L 544.450398 46.8 
" style="fill: none; stroke: #cfd6dd; stroke-width: 0.8; stroke-linejoin: miter; stroke-linecap: square"/>
   </g>
   <g id="patch_12">
    <path d="M 214.723125 351.72 
L 544.450398 351.72 
" style="fill: none; stroke: #cfd6dd; stroke-width: 0.8; stroke-linejoin: miter; stroke-linecap: square"/>
   </g>
   <g id="patch_13">
    <path d="M 214.723125 46.8 
L 544.450398 46.8 
" style="fill: none; stroke: #cfd6dd; stroke-width: 0.8; stroke-linejoin: miter; stroke-linecap: square"/>
   </g>
   <g id="text_15">
    <!-- 12 -->
    <g transform="translate(224.556924 324.037555) scale(0.09 -0.09)">
     <use xlink:href="#DejaVuSans-31"/>
     <use xlink:href="#DejaVuSans-32" x="63.623047"/>
    </g>
   </g>
   <g id="text_16">
    <!-- 49 -->
    <g transform="translate(248.813627 283.272849) scale(0.09 -0.09)">
     <defs>
      <path id="DejaVuSans-39" d="M 703 97 
L 703 672 
Q 941 559 1184 500 
Q 1428 441 1663 441 
Q 2288 441 2617 861 
Q 2947 1281 2994 2138 
Q 2813 1869 2534 1725 
Q 2256 1581 1919 1581 
Q 1219 1581 811 2004 
Q 403 2428 403 3163 
Q 403 3881 828 4315 
Q 1253 4750 1959 4750 
Q 2769 4750 3195 4129 
Q 3622 3509 3622 2328 
Q 3622 1225 3098 567 
Q 2575 -91 1691 -91 
Q 1453 -91 1209 -44 
Q 966 3 703 97 
z
M 1959 2075 
Q 2384 2075 2632 2365 
Q 2881 2656 2881 3163 
Q 2881 3666 2632 3958 
Q 2384 4250 1959 4250 
Q 1534 4250 1286 3958 
Q 1038 3666 1038 3163 
Q 1038 2656 1286 2365 
Q 1534 2075 1959 2075 
z
" transform="scale(0.015625)"/>
     </defs>
     <use xlink:href="#DejaVuSans-34"/>
     <use xlink:href="#DejaVuSans-39" x="63.623047"/>
    </g>
   </g>
   <g id="text_17">
    <!-- 151 -->
    <g transform="translate(315.683459 242.508143) scale(0.09 -0.09)">
     <use xlink:href="#DejaVuSans-31"/>
     <use xlink:href="#DejaVuSans-35" x="63.623047"/>
     <use xlink:href="#DejaVuSans-31" x="127.246094"/>
    </g>
   </g>
   <g id="text_18">
    <!-- 171 -->
    <g transform="translate(328.795191 201.743437) scale(0.09 -0.09)">
     <defs>
      <path id="DejaVuSans-37" d="M 525 4666 
L 3525 4666 
L 3525 4397 
L 1831 0 
L 1172 0 
L 2766 4134 
L 525 4134 
L 525 4666 
z
" transform="scale(0.015625)"/>
     </defs>
     <use xlink:href="#DejaVuSans-31"/>
     <use xlink:href="#DejaVuSans-37" x="63.623047"/>
     <use xlink:href="#DejaVuSans-31" x="127.246094"/>
    </g>
   </g>
   <g id="text_19">
    <!-- 223 -->
    <g transform="translate(362.885693 160.978732) scale(0.09 -0.09)">
     <use xlink:href="#DejaVuSans-32"/>
     <use xlink:href="#DejaVuSans-32" x="63.623047"/>
     <use xlink:href="#DejaVuSans-33" x="127.246094"/>
    </g>
   </g>
   <g id="text_20">
    <!-- 225 -->
    <g transform="translate(364.196866 120.214026) scale(0.09 -0.09)">
     <use xlink:href="#DejaVuSans-32"/>
     <use xlink:href="#DejaVuSans-32" x="63.623047"/>
     <use xlink:href="#DejaVuSans-35" x="127.246094"/>
    </g>
   </g>
   <g id="text_21">
    <!-- 479 -->
    <g transform="translate(530.715859 79.44932) scale(0.09 -0.09)">
     <use xlink:href="#DejaVuSans-34"/>
     <use xlink:href="#DejaVuSans-37" x="63.623047"/>
     <use xlink:href="#DejaVuSans-39" x="127.246094"/>
    </g>
   </g>
   <g id="text_22">
    <!-- Задержано рейсов по системам -->
    <g transform="translate(249.958793 40.8) scale(0.14 -0.14)">
     <defs>
      <path id="DejaVuSans-Bold-417" d="M 3163 2516 
Q 3634 2394 3879 2092 
Q 4125 1791 4125 1325 
Q 4125 631 3594 270 
Q 3063 -91 1950 -91 
Q 1491 -91 1125 -31 
Q 759 28 422 141 
L 422 1069 
Q 759 900 1092 814 
Q 1425 728 1903 728 
Q 2413 728 2667 893 
Q 2922 1059 2922 1369 
Q 2922 1688 2661 1852 
Q 2400 2016 1797 2016 
L 1222 2016 
L 1222 2791 
L 1822 2791 
Q 2369 2791 2591 2933 
Q 2813 3075 2813 3366 
Q 2813 3634 2597 3781 
Q 2381 3928 1956 3928 
Q 1513 3928 1128 3851 
Q 744 3775 528 3669 
L 528 4550 
Q 738 4622 1198 4686 
Q 1659 4750 1953 4750 
Q 2975 4750 3495 4451 
Q 4016 4153 4016 3553 
Q 4016 3144 3800 2883 
Q 3584 2622 3163 2516 
z
" transform="scale(0.015625)"/>
      <path id="DejaVuSans-Bold-430" d="M 2106 1575 
Q 1756 1575 1579 1456 
Q 1403 1338 1403 1106 
Q 1403 894 1545 773 
Q 1688 653 1941 653 
Q 2256 653 2472 879 
Q 2688 1106 2688 1447 
L 2688 1575 
L 2106 1575 
z
M 3816 1997 
L 3816 0 
L 2688 0 
L 2688 519 
Q 2463 200 2181 54 
Q 1900 -91 1497 -91 
Q 953 -91 614 226 
Q 275 544 275 1050 
Q 275 1666 698 1953 
Q 1122 2241 2028 2241 
L 2688 2241 
L 2688 2328 
Q 2688 2594 2478 2717 
Q 2269 2841 1825 2841 
Q 1466 2841 1156 2769 
Q 847 2697 581 2553 
L 581 3406 
Q 941 3494 1303 3539 
Q 1666 3584 2028 3584 
Q 2975 3584 3395 3211 
Q 3816 2838 3816 1997 
z
" transform="scale(0.015625)"/>
      <path id="DejaVuSans-Bold-434" d="M 547 800 
Q 903 919 1053 1314 
Q 1203 1709 1203 2838 
L 1203 3500 
L 4228 3500 
L 4228 800 
L 4809 800 
L 4809 -884 
L 4009 -884 
L 4009 0 
L 1159 0 
L 1159 -884 
L 359 -884 
L 359 800 
L 547 800 
z
M 3109 2700 
L 2322 2700 
L 2322 2603 
Q 2322 1456 2063 800 
L 3109 800 
L 3109 2700 
z
" transform="scale(0.015625)"/>
      <path id="DejaVuSans-Bold-435" d="M 4031 1759 
L 4031 1441 
L 1416 1441 
Q 1456 1047 1700 850 
Q 1944 653 2381 653 
Q 2734 653 3104 758 
Q 3475 863 3866 1075 
L 3866 213 
Q 3469 63 3072 -14 
Q 2675 -91 2278 -91 
Q 1328 -91 801 392 
Q 275 875 275 1747 
Q 275 2603 792 3093 
Q 1309 3584 2216 3584 
Q 3041 3584 3536 3087 
Q 4031 2591 4031 1759 
z
M 2881 2131 
Q 2881 2450 2695 2645 
Q 2509 2841 2209 2841 
Q 1884 2841 1681 2658 
Q 1478 2475 1428 2131 
L 2881 2131 
z
" transform="scale(0.015625)"/>
      <path id="DejaVuSans-Bold-440" d="M 1656 506 
L 1656 -1331 
L 538 -1331 
L 538 3500 
L 1656 3500 
L 1656 2988 
Q 1888 3294 2169 3439 
Q 2450 3584 2816 3584 
Q 3463 3584 3878 3070 
Q 4294 2556 4294 1747 
Q 4294 938 3878 423 
Q 3463 -91 2816 -91 
Q 2450 -91 2169 54 
Q 1888 200 1656 506 
z
M 2400 2772 
Q 2041 2772 1848 2508 
Q 1656 2244 1656 1747 
Q 1656 1250 1848 986 
Q 2041 722 2400 722 
Q 2759 722 2948 984 
Q 3138 1247 3138 1747 
Q 3138 2247 2948 2509 
Q 2759 2772 2400 2772 
z
" transform="scale(0.015625)"/>
      <path id="DejaVuSans-Bold-436" d="M 94 0 
L 1678 2078 
L 216 3500 
L 1441 3500 
L 2625 2347 
L 2625 3500 
L 3744 3500 
L 3744 2347 
L 4928 3500 
L 6153 3500 
L 4691 2078 
L 6275 0 
L 5119 0 
L 4025 1431 
L 3744 1159 
L 3744 0 
L 2625 0 
L 2625 1159 
L 2344 1431 
L 1250 0 
L 94 0 
z
" transform="scale(0.015625)"/>
      <path id="DejaVuSans-Bold-43d" d="M 538 3500 
L 1656 3500 
L 1656 2169 
L 2766 2169 
L 2766 3500 
L 3884 3500 
L 3884 0 
L 2766 0 
L 2766 1478 
L 1656 1478 
L 1656 0 
L 538 0 
L 538 3500 
z
" transform="scale(0.015625)"/>
      <path id="DejaVuSans-Bold-43e" d="M 2203 2784 
Q 1831 2784 1636 2517 
Q 1441 2250 1441 1747 
Q 1441 1244 1636 976 
Q 1831 709 2203 709 
Q 2569 709 2762 976 
Q 2956 1244 2956 1747 
Q 2956 2250 2762 2517 
Q 2569 2784 2203 2784 
z
M 2203 3584 
Q 3106 3584 3614 3096 
Q 4122 2609 4122 1747 
Q 4122 884 3614 396 
Q 3106 -91 2203 -91 
Q 1297 -91 786 396 
Q 275 884 275 1747 
Q 275 2609 786 3096 
Q 1297 3584 2203 3584 
z
" transform="scale(0.015625)"/>
      <path id="DejaVuSans-Bold-20" transform="scale(0.015625)"/>
      <path id="DejaVuSans-Bold-439" d="M 3947 3500 
L 3947 0 
L 2828 0 
L 2828 1863 
L 1700 0 
L 538 0 
L 538 3500 
L 1656 3500 
L 1656 1638 
L 2784 3500 
L 3947 3500 
z
M 1190 4891 
L 1637 4891 
Q 1671 4672 1826 4556 
Q 1981 4441 2240 4441 
Q 2499 4441 2654 4556 
Q 2809 4672 2843 4891 
L 3290 4891 
Q 3271 4441 2999 4202 
Q 2728 3963 2240 3963 
Q 1753 3963 1481 4202 
Q 1209 4441 1190 4891 
z
" transform="scale(0.015625)"/>
      <path id="DejaVuSans-Bold-441" d="M 3366 3391 
L 3366 2478 
Q 3138 2634 2908 2709 
Q 2678 2784 2431 2784 
Q 1963 2784 1702 2511 
Q 1441 2238 1441 1747 
Q 1441 1256 1702 982 
Q 1963 709 2431 709 
Q 2694 709 2930 787 
Q 3166 866 3366 1019 
L 3366 103 
Q 3103 6 2833 -42 
Q 2563 -91 2291 -91 
Q 1344 -91 809 395 
Q 275 881 275 1747 
Q 275 2613 809 3098 
Q 1344 3584 2291 3584 
Q 2566 3584 2833 3536 
Q 3100 3488 3366 3391 
z
" transform="scale(0.015625)"/>
      <path id="DejaVuSans-Bold-432" d="M 2184 2181 
Q 2378 2181 2478 2261 
Q 2578 2341 2578 2497 
Q 2578 2653 2478 2731 
Q 2378 2809 2184 2809 
L 1656 2809 
L 1656 2181 
L 2184 2181 
z
M 2222 700 
Q 2469 700 2594 798 
Q 2719 897 2719 1094 
Q 2719 1288 2594 1384 
Q 2469 1481 2222 1481 
L 1656 1481 
L 1656 700 
L 2222 700 
z
M 538 3500 
L 2141 3500 
Q 2919 3500 3267 3279 
Q 3616 3059 3616 2575 
Q 3616 2319 3487 2139 
Q 3359 1959 3119 1872 
Q 3428 1788 3598 1561 
Q 3769 1334 3769 1003 
Q 3769 497 3403 248 
Q 3038 0 2294 0 
L 538 0 
L 538 3500 
z
" transform="scale(0.015625)"/>
      <path id="DejaVuSans-Bold-43f" d="M 3884 3500 
L 3884 0 
L 2766 0 
L 2766 2700 
L 1656 2700 
L 1656 0 
L 538 0 
L 538 3500 
L 3884 3500 
z
" transform="scale(0.015625)"/>
      <path id="DejaVuSans-Bold-438" d="M 3947 3500 
L 3947 0 
L 2828 0 
L 2828 1863 
L 1700 0 
L 538 0 
L 538 3500 
L 1656 3500 
L 1656 1638 
L 2784 3500 
L 3947 3500 
z
" transform="scale(0.015625)"/>
      <path id="DejaVuSans-Bold-442" d="M 25 3500 
L 3681 3500 
L 3681 2809 
L 2413 2809 
L 2413 0 
L 1297 0 
L 1297 2809 
L 25 2809 
L 25 3500 
z
" transform="scale(0.015625)"/>
      <path id="DejaVuSans-Bold-43c" d="M 538 3500 
L 1825 3500 
L 2613 1750 
L 3400 3500 
L 4691 3500 
L 4691 0 
L 3575 0 
L 3575 1984 
L 2984 672 
L 2250 672 
L 1656 1984 
L 1656 0 
L 538 0 
L 538 3500 
z
" transform="scale(0.015625)"/>
     </defs>
     <use xlink:href="#DejaVuSans-Bold-417"/>
     <use xlink:href="#DejaVuSans-Bold-430" x="71.044922"/>
     <use xlink:href="#DejaVuSans-Bold-434" x="138.525391"/>
     <use xlink:href="#DejaVuSans-Bold-435" x="219.287109"/>
     <use xlink:href="#DejaVuSans-Bold-440" x="287.109375"/>
     <use xlink:href="#DejaVuSans-Bold-436" x="358.691406"/>
     <use xlink:href="#DejaVuSans-Bold-430" x="458.203125"/>
     <use xlink:href="#DejaVuSans-Bold-43d" x="525.683594"/>
     <use xlink:href="#DejaVuSans-Bold-43e" x="594.775391"/>
     <use xlink:href="#DejaVuSans-Bold-20" x="663.476562"/>
     <use xlink:href="#DejaVuSans-Bold-440" x="698.291016"/>
     <use xlink:href="#DejaVuSans-Bold-435" x="769.873047"/>
     <use xlink:href="#DejaVuSans-Bold-439" x="837.695312"/>
     <use xlink:href="#DejaVuSans-Bold-441" x="907.763672"/>
     <use xlink:href="#DejaVuSans-Bold-43e" x="967.041016"/>
     <use xlink:href="#DejaVuSans-Bold-432" x="1035.742188"/>
     <use xlink:href="#DejaVuSans-Bold-20" x="1099.023438"/>
     <use xlink:href="#DejaVuSans-Bold-43f" x="1133.837891"/>
     <use xlink:href="#DejaVuSans-Bold-43e" x="1202.929688"/>
     <use xlink:href="#DejaVuSans-Bold-20" x="1271.630859"/>
     <use xlink:href="#DejaVuSans-Bold-441" x="1306.445312"/>
     <use xlink:href="#DejaVuSans-Bold-438" x="1365.722656"/>
     <use xlink:href="#DejaVuSans-Bold-441" x="1435.791016"/>
     <use xlink:href="#DejaVuSans-Bold-442" x="1495.068359"/>
     <use xlink:href="#DejaVuSans-Bold-435" x="1553.027344"/>
     <use xlink:href="#DejaVuSans-Bold-43c" x="1620.849609"/>
     <use xlink:href="#DejaVuSans-Bold-430" x="1702.587891"/>
     <use xlink:href="#DejaVuSans-Bold-43c" x="1770.068359"/>
    </g>
   </g>
  </g>
  <g id="axes_2">
   <g id="patch_14">
    <path d="M 610.395852 351.72 
L 940.123125 351.72 
L 940.123125 46.8 
L 610.395852 46.8 
z
" style="fill: #ffffff"/>
   </g>
   <g id="matplotlib.axis_3">
    <g id="xtick_7">
     <g id="line2d_27">
      <path d="M 625.383456 351.72 
L 625.383456 46.8 
" clip-path="url(#p0e1c44df10)" style="fill: none; stroke: #e8ecf0; stroke-width: 0.8; stroke-linecap: square"/>
     </g>
     <g id="line2d_28">
      <g>
       <use xlink:href="#m39b1843822" x="625.383456" y="351.72" style="stroke: #000000; stroke-width: 0.8"/>
      </g>
     </g>
     <g id="text_23">
      <!-- 24-01 -->
      <g transform="translate(607.769426 379.455906) rotate(-45) scale(0.08 -0.08)">
       <defs>
        <path id="DejaVuSans-2d" d="M 313 2009 
L 1997 2009 
L 1997 1497 
L 313 1497 
L 313 2009 
z
" transform="scale(0.015625)"/>
       </defs>
       <use xlink:href="#DejaVuSans-32"/>
       <use xlink:href="#DejaVuSans-34" x="63.623047"/>
       <use xlink:href="#DejaVuSans-2d" x="127.246094"/>
       <use xlink:href="#DejaVuSans-30" x="163.330078"/>
       <use xlink:href="#DejaVuSans-31" x="226.953125"/>
      </g>
     </g>
    </g>
    <g id="xtick_8">
     <g id="line2d_29">
      <path d="M 638.416154 351.72 
L 638.416154 46.8 
" clip-path="url(#p0e1c44df10)" style="fill: none; stroke: #e8ecf0; stroke-width: 0.8; stroke-linecap: square"/>
     </g>
     <g id="line2d_30">
      <g>
       <use xlink:href="#m39b1843822" x="638.416154" y="351.72" style="stroke: #000000; stroke-width: 0.8"/>
      </g>
     </g>
     <g id="text_24">
      <!-- 24-02 -->
      <g transform="translate(620.802124 379.455906) rotate(-45) scale(0.08 -0.08)">
       <use xlink:href="#DejaVuSans-32"/>
       <use xlink:href="#DejaVuSans-34" x="63.623047"/>
       <use xlink:href="#DejaVuSans-2d" x="127.246094"/>
       <use xlink:href="#DejaVuSans-30" x="163.330078"/>
       <use xlink:href="#DejaVuSans-32" x="226.953125"/>
      </g>
     </g>
    </g>
    <g id="xtick_9">
     <g id="line2d_31">
      <path d="M 651.448853 351.72 
L 651.448853 46.8 
" clip-path="url(#p0e1c44df10)" style="fill: none; stroke: #e8ecf0; stroke-width: 0.8; stroke-linecap: square"/>
     </g>
     <g id="line2d_32">
      <g>
       <use xlink:href="#m39b1843822" x="651.448853" y="351.72" style="stroke: #000000; stroke-width: 0.8"/>
      </g>
     </g>
     <g id="text_25">
      <!-- 24-03 -->
      <g transform="translate(633.834823 379.455906) rotate(-45) scale(0.08 -0.08)">
       <use xlink:href="#DejaVuSans-32"/>
       <use xlink:href="#DejaVuSans-34" x="63.623047"/>
       <use xlink:href="#DejaVuSans-2d" x="127.246094"/>
       <use xlink:href="#DejaVuSans-30" x="163.330078"/>
       <use xlink:href="#DejaVuSans-33" x="226.953125"/>
      </g>
     </g>
    </g>
    <g id="xtick_10">
     <g id="line2d_33">
      <path d="M 664.481551 351.72 
L 664.481551 46.8 
" clip-path="url(#p0e1c44df10)" style="fill: none; stroke: #e8ecf0; stroke-width: 0.8; stroke-linecap: square"/>
     </g>
     <g id="line2d_34">
      <g>
       <use xlink:href="#m39b1843822" x="664.481551" y="351.72" style="stroke: #000000; stroke-width: 0.8"/>
      </g>
     </g>
     <g id="text_26">
      <!-- 24-04 -->
      <g transform="translate(646.867521 379.455906) rotate(-45) scale(0.08 -0.08)">
       <use xlink:href="#DejaVuSans-32"/>
       <use xlink:href="#DejaVuSans-34" x="63.623047"/>
       <use xlink:href="#DejaVuSans-2d" x="127.246094"/>
       <use xlink:href="#DejaVuSans-30" x="163.330078"/>
       <use xlink:href="#DejaVuSans-34" x="226.953125"/>
      </g>
     </g>
    </g>
    <g id="xtick_11">
     <g id="line2d_35">
      <path d="M 677.51425 351.72 
L 677.51425 46.8 
" clip-path="url(#p0e1c44df10)" style="fill: none; stroke: #e8ecf0; stroke-width: 0.8; stroke-linecap: square"/>
     </g>
     <g id="line2d_36">
      <g>
       <use xlink:href="#m39b1843822" x="677.51425" y="351.72" style="stroke: #000000; stroke-width: 0.8"/>
      </g>
     </g>
     <g id="text_27">
      <!-- 24-05 -->
      <g transform="translate(659.90022 379.455906) rotate(-45) scale(0.08 -0.08)">
       <use xlink:href="#DejaVuSans-32"/>
       <use xlink:href="#DejaVuSans-34" x="63.623047"/>
       <use xlink:href="#DejaVuSans-2d" x="127.246094"/>
       <use xlink:href="#DejaVuSans-30" x="163.330078"/>
       <use xlink:href="#DejaVuSans-35" x="226.953125"/>
      </g>
     </g>
    </g>
    <g id="xtick_12">
     <g id="line2d_37">
      <path d="M 690.546948 351.72 
L 690.546948 46.8 
" clip-path="url(#p0e1c44df10)" style="fill: none; stroke: #e8ecf0; stroke-width: 0.8; stroke-linecap: square"/>
     </g>
     <g id="line2d_38">
      <g>
       <use xlink:href="#m39b1843822" x="690.546948" y="351.72" style="stroke: #000000; stroke-width: 0.8"/>
      </g>
     </g>
     <g id="text_28">
      <!-- 24-06 -->
      <g transform="translate(672.932918 379.455906) rotate(-45) scale(0.08 -0.08)">
       <defs>
        <path id="DejaVuSans-36" d="M 2113 2584 
Q 1688 2584 1439 2293 
Q 1191 2003 1191 1497 
Q 1191 994 1439 701 
Q 1688 409 2113 409 
Q 2538 409 2786 701 
Q 3034 994 3034 1497 
Q 3034 2003 2786 2293 
Q 2538 2584 2113 2584 
z
M 3366 4563 
L 3366 3988 
Q 3128 4100 2886 4159 
Q 2644 4219 2406 4219 
Q 1781 4219 1451 3797 
Q 1122 3375 1075 2522 
Q 1259 2794 1537 2939 
Q 1816 3084 2150 3084 
Q 2853 3084 3261 2657 
Q 3669 2231 3669 1497 
Q 3669 778 3244 343 
Q 2819 -91 2113 -91 
Q 1303 -91 875 529 
Q 447 1150 447 2328 
Q 447 3434 972 4092 
Q 1497 4750 2381 4750 
Q 2619 4750 2861 4703 
Q 3103 4656 3366 4563 
z
" transform="scale(0.015625)"/>
       </defs>
       <use xlink:href="#DejaVuSans-32"/>
       <use xlink:href="#DejaVuSans-34" x="63.623047"/>
       <use xlink:href="#DejaVuSans-2d" x="127.246094"/>
       <use xlink:href="#DejaVuSans-30" x="163.330078"/>
       <use xlink:href="#DejaVuSans-36" x="226.953125"/>
      </g>
     </g>
    </g>
    <g id="xtick_13">
     <g id="line2d_39">
      <path d="M 703.579647 351.72 
L 703.579647 46.8 
" clip-path="url(#p0e1c44df10)" style="fill: none; stroke: #e8ecf0; stroke-width: 0.8; stroke-linecap: square"/>
     </g>
     <g id="line2d_40">
      <g>
       <use xlink:href="#m39b1843822" x="703.579647" y="351.72" style="stroke: #000000; stroke-width: 0.8"/>
      </g>
     </g>
     <g id="text_29">
      <!-- 24-07 -->
      <g transform="translate(685.965617 379.455906) rotate(-45) scale(0.08 -0.08)">
       <use xlink:href="#DejaVuSans-32"/>
       <use xlink:href="#DejaVuSans-34" x="63.623047"/>
       <use xlink:href="#DejaVuSans-2d" x="127.246094"/>
       <use xlink:href="#DejaVuSans-30" x="163.330078"/>
       <use xlink:href="#DejaVuSans-37" x="226.953125"/>
      </g>
     </g>
    </g>
    <g id="xtick_14">
     <g id="line2d_41">
      <path d="M 716.612345 351.72 
L 716.612345 46.8 
" clip-path="url(#p0e1c44df10)" style="fill: none; stroke: #e8ecf0; stroke-width: 0.8; stroke-linecap: square"/>
     </g>
     <g id="line2d_42">
      <g>
       <use xlink:href="#m39b1843822" x="716.612345" y="351.72" style="stroke: #000000; stroke-width: 0.8"/>
      </g>
     </g>
     <g id="text_30">
      <!-- 24-08 -->
      <g transform="translate(698.998315 379.455906) rotate(-45) scale(0.08 -0.08)">
       <defs>
        <path id="DejaVuSans-38" d="M 2034 2216 
Q 1584 2216 1326 1975 
Q 1069 1734 1069 1313 
Q 1069 891 1326 650 
Q 1584 409 2034 409 
Q 2484 409 2743 651 
Q 3003 894 3003 1313 
Q 3003 1734 2745 1975 
Q 2488 2216 2034 2216 
z
M 1403 2484 
Q 997 2584 770 2862 
Q 544 3141 544 3541 
Q 544 4100 942 4425 
Q 1341 4750 2034 4750 
Q 2731 4750 3128 4425 
Q 3525 4100 3525 3541 
Q 3525 3141 3298 2862 
Q 3072 2584 2669 2484 
Q 3125 2378 3379 2068 
Q 3634 1759 3634 1313 
Q 3634 634 3220 271 
Q 2806 -91 2034 -91 
Q 1263 -91 848 271 
Q 434 634 434 1313 
Q 434 1759 690 2068 
Q 947 2378 1403 2484 
z
M 1172 3481 
Q 1172 3119 1398 2916 
Q 1625 2713 2034 2713 
Q 2441 2713 2670 2916 
Q 2900 3119 2900 3481 
Q 2900 3844 2670 4047 
Q 2441 4250 2034 4250 
Q 1625 4250 1398 4047 
Q 1172 3844 1172 3481 
z
" transform="scale(0.015625)"/>
       </defs>
       <use xlink:href="#DejaVuSans-32"/>
       <use xlink:href="#DejaVuSans-34" x="63.623047"/>
       <use xlink:href="#DejaVuSans-2d" x="127.246094"/>
       <use xlink:href="#DejaVuSans-30" x="163.330078"/>
       <use xlink:href="#DejaVuSans-38" x="226.953125"/>
      </g>
     </g>
    </g>
    <g id="xtick_15">
     <g id="line2d_43">
      <path d="M 729.645044 351.72 
L 729.645044 46.8 
" clip-path="url(#p0e1c44df10)" style="fill: none; stroke: #e8ecf0; stroke-width: 0.8; stroke-linecap: square"/>
     </g>
     <g id="line2d_44">
      <g>
       <use xlink:href="#m39b1843822" x="729.645044" y="351.72" style="stroke: #000000; stroke-width: 0.8"/>
      </g>
     </g>
     <g id="text_31">
      <!-- 24-09 -->
      <g transform="translate(712.031014 379.455906) rotate(-45) scale(0.08 -0.08)">
       <use xlink:href="#DejaVuSans-32"/>
       <use xlink:href="#DejaVuSans-34" x="63.623047"/>
       <use xlink:href="#DejaVuSans-2d" x="127.246094"/>
       <use xlink:href="#DejaVuSans-30" x="163.330078"/>
       <use xlink:href="#DejaVuSans-39" x="226.953125"/>
      </g>
     </g>
    </g>
    <g id="xtick_16">
     <g id="line2d_45">
      <path d="M 742.677742 351.72 
L 742.677742 46.8 
" clip-path="url(#p0e1c44df10)" style="fill: none; stroke: #e8ecf0; stroke-width: 0.8; stroke-linecap: square"/>
     </g>
     <g id="line2d_46">
      <g>
       <use xlink:href="#m39b1843822" x="742.677742" y="351.72" style="stroke: #000000; stroke-width: 0.8"/>
      </g>
     </g>
     <g id="text_32">
      <!-- 24-10 -->
      <g transform="translate(725.063712 379.455906) rotate(-45) scale(0.08 -0.08)">
       <use xlink:href="#DejaVuSans-32"/>
       <use xlink:href="#DejaVuSans-34" x="63.623047"/>
       <use xlink:href="#DejaVuSans-2d" x="127.246094"/>
       <use xlink:href="#DejaVuSans-31" x="163.330078"/>
       <use xlink:href="#DejaVuSans-30" x="226.953125"/>
      </g>
     </g>
    </g>
    <g id="xtick_17">
     <g id="line2d_47">
      <path d="M 755.710441 351.72 
L 755.710441 46.8 
" clip-path="url(#p0e1c44df10)" style="fill: none; stroke: #e8ecf0; stroke-width: 0.8; stroke-linecap: square"/>
     </g>
     <g id="line2d_48">
      <g>
       <use xlink:href="#m39b1843822" x="755.710441" y="351.72" style="stroke: #000000; stroke-width: 0.8"/>
      </g>
     </g>
     <g id="text_33">
      <!-- 24-11 -->
      <g transform="translate(738.096411 379.455906) rotate(-45) scale(0.08 -0.08)">
       <use xlink:href="#DejaVuSans-32"/>
       <use xlink:href="#DejaVuSans-34" x="63.623047"/>
       <use xlink:href="#DejaVuSans-2d" x="127.246094"/>
       <use xlink:href="#DejaVuSans-31" x="163.330078"/>
       <use xlink:href="#DejaVuSans-31" x="226.953125"/>
      </g>
     </g>
    </g>
    <g id="xtick_18">
     <g id="line2d_49">
      <path d="M 768.743139 351.72 
L 768.743139 46.8 
" clip-path="url(#p0e1c44df10)" style="fill: none; stroke: #e8ecf0; stroke-width: 0.8; stroke-linecap: square"/>
     </g>
     <g id="line2d_50">
      <g>
       <use xlink:href="#m39b1843822" x="768.743139" y="351.72" style="stroke: #000000; stroke-width: 0.8"/>
      </g>
     </g>
     <g id="text_34">
      <!-- 24-12 -->
      <g transform="translate(751.129109 379.455906) rotate(-45) scale(0.08 -0.08)">
       <use xlink:href="#DejaVuSans-32"/>
       <use xlink:href="#DejaVuSans-34" x="63.623047"/>
       <use xlink:href="#DejaVuSans-2d" x="127.246094"/>
       <use xlink:href="#DejaVuSans-31" x="163.330078"/>
       <use xlink:href="#DejaVuSans-32" x="226.953125"/>
      </g>
     </g>
    </g>
    <g id="xtick_19">
     <g id="line2d_51">
      <path d="M 781.775838 351.72 
L 781.775838 46.8 
" clip-path="url(#p0e1c44df10)" style="fill: none; stroke: #e8ecf0; stroke-width: 0.8; stroke-linecap: square"/>
     </g>
     <g id="line2d_52">
      <g>
       <use xlink:href="#m39b1843822" x="781.775838" y="351.72" style="stroke: #000000; stroke-width: 0.8"/>
      </g>
     </g>
     <g id="text_35">
      <!-- 25-01 -->
      <g transform="translate(764.161808 379.455906) rotate(-45) scale(0.08 -0.08)">
       <use xlink:href="#DejaVuSans-32"/>
       <use xlink:href="#DejaVuSans-35" x="63.623047"/>
       <use xlink:href="#DejaVuSans-2d" x="127.246094"/>
       <use xlink:href="#DejaVuSans-30" x="163.330078"/>
       <use xlink:href="#DejaVuSans-31" x="226.953125"/>
      </g>
     </g>
    </g>
    <g id="xtick_20">
     <g id="line2d_53">
      <path d="M 794.808536 351.72 
L 794.808536 46.8 
" clip-path="url(#p0e1c44df10)" style="fill: none; stroke: #e8ecf0; stroke-width: 0.8; stroke-linecap: square"/>
     </g>
     <g id="line2d_54">
      <g>
       <use xlink:href="#m39b1843822" x="794.808536" y="351.72" style="stroke: #000000; stroke-width: 0.8"/>
      </g>
     </g>
     <g id="text_36">
      <!-- 25-02 -->
      <g transform="translate(777.194507 379.455906) rotate(-45) scale(0.08 -0.08)">
       <use xlink:href="#DejaVuSans-32"/>
       <use xlink:href="#DejaVuSans-35" x="63.623047"/>
       <use xlink:href="#DejaVuSans-2d" x="127.246094"/>
       <use xlink:href="#DejaVuSans-30" x="163.330078"/>
       <use xlink:href="#DejaVuSans-32" x="226.953125"/>
      </g>
     </g>
    </g>
    <g id="xtick_21">
     <g id="line2d_55">
      <path d="M 807.841235 351.72 
L 807.841235 46.8 
" clip-path="url(#p0e1c44df10)" style="fill: none; stroke: #e8ecf0; stroke-width: 0.8; stroke-linecap: square"/>
     </g>
     <g id="line2d_56">
      <g>
       <use xlink:href="#m39b1843822" x="807.841235" y="351.72" style="stroke: #000000; stroke-width: 0.8"/>
      </g>
     </g>
     <g id="text_37">
      <!-- 25-03 -->
      <g transform="translate(790.227205 379.455906) rotate(-45) scale(0.08 -0.08)">
       <use xlink:href="#DejaVuSans-32"/>
       <use xlink:href="#DejaVuSans-35" x="63.623047"/>
       <use xlink:href="#DejaVuSans-2d" x="127.246094"/>
       <use xlink:href="#DejaVuSans-30" x="163.330078"/>
       <use xlink:href="#DejaVuSans-33" x="226.953125"/>
      </g>
     </g>
    </g>
    <g id="xtick_22">
     <g id="line2d_57">
      <path d="M 820.873933 351.72 
L 820.873933 46.8 
" clip-path="url(#p0e1c44df10)" style="fill: none; stroke: #e8ecf0; stroke-width: 0.8; stroke-linecap: square"/>
     </g>
     <g id="line2d_58">
      <g>
       <use xlink:href="#m39b1843822" x="820.873933" y="351.72" style="stroke: #000000; stroke-width: 0.8"/>
      </g>
     </g>
     <g id="text_38">
      <!-- 25-04 -->
      <g transform="translate(803.259904 379.455906) rotate(-45) scale(0.08 -0.08)">
       <use xlink:href="#DejaVuSans-32"/>
       <use xlink:href="#DejaVuSans-35" x="63.623047"/>
       <use xlink:href="#DejaVuSans-2d" x="127.246094"/>
       <use xlink:href="#DejaVuSans-30" x="163.330078"/>
       <use xlink:href="#DejaVuSans-34" x="226.953125"/>
      </g>
     </g>
    </g>
    <g id="xtick_23">
     <g id="line2d_59">
      <path d="M 833.906632 351.72 
L 833.906632 46.8 
" clip-path="url(#p0e1c44df10)" style="fill: none; stroke: #e8ecf0; stroke-width: 0.8; stroke-linecap: square"/>
     </g>
     <g id="line2d_60">
      <g>
       <use xlink:href="#m39b1843822" x="833.906632" y="351.72" style="stroke: #000000; stroke-width: 0.8"/>
      </g>
     </g>
     <g id="text_39">
      <!-- 25-05 -->
      <g transform="translate(816.292602 379.455906) rotate(-45) scale(0.08 -0.08)">
       <use xlink:href="#DejaVuSans-32"/>
       <use xlink:href="#DejaVuSans-35" x="63.623047"/>
       <use xlink:href="#DejaVuSans-2d" x="127.246094"/>
       <use xlink:href="#DejaVuSans-30" x="163.330078"/>
       <use xlink:href="#DejaVuSans-35" x="226.953125"/>
      </g>
     </g>
    </g>
    <g id="xtick_24">
     <g id="line2d_61">
      <path d="M 846.939331 351.72 
L 846.939331 46.8 
" clip-path="url(#p0e1c44df10)" style="fill: none; stroke: #e8ecf0; stroke-width: 0.8; stroke-linecap: square"/>
     </g>
     <g id="line2d_62">
      <g>
       <use xlink:href="#m39b1843822" x="846.939331" y="351.72" style="stroke: #000000; stroke-width: 0.8"/>
      </g>
     </g>
     <g id="text_40">
      <!-- 25-06 -->
      <g transform="translate(829.325301 379.455906) rotate(-45) scale(0.08 -0.08)">
       <use xlink:href="#DejaVuSans-32"/>
       <use xlink:href="#DejaVuSans-35" x="63.623047"/>
       <use xlink:href="#DejaVuSans-2d" x="127.246094"/>
       <use xlink:href="#DejaVuSans-30" x="163.330078"/>
       <use xlink:href="#DejaVuSans-36" x="226.953125"/>
      </g>
     </g>
    </g>
    <g id="xtick_25">
     <g id="line2d_63">
      <path d="M 859.972029 351.72 
L 859.972029 46.8 
" clip-path="url(#p0e1c44df10)" style="fill: none; stroke: #e8ecf0; stroke-width: 0.8; stroke-linecap: square"/>
     </g>
     <g id="line2d_64">
      <g>
       <use xlink:href="#m39b1843822" x="859.972029" y="351.72" style="stroke: #000000; stroke-width: 0.8"/>
      </g>
     </g>
     <g id="text_41">
      <!-- 25-07 -->
      <g transform="translate(842.357999 379.455906) rotate(-45) scale(0.08 -0.08)">
       <use xlink:href="#DejaVuSans-32"/>
       <use xlink:href="#DejaVuSans-35" x="63.623047"/>
       <use xlink:href="#DejaVuSans-2d" x="127.246094"/>
       <use xlink:href="#DejaVuSans-30" x="163.330078"/>
       <use xlink:href="#DejaVuSans-37" x="226.953125"/>
      </g>
     </g>
    </g>
    <g id="xtick_26">
     <g id="line2d_65">
      <path d="M 873.004728 351.72 
L 873.004728 46.8 
" clip-path="url(#p0e1c44df10)" style="fill: none; stroke: #e8ecf0; stroke-width: 0.8; stroke-linecap: square"/>
     </g>
     <g id="line2d_66">
      <g>
       <use xlink:href="#m39b1843822" x="873.004728" y="351.72" style="stroke: #000000; stroke-width: 0.8"/>
      </g>
     </g>
     <g id="text_42">
      <!-- 25-08 -->
      <g transform="translate(855.390698 379.455906) rotate(-45) scale(0.08 -0.08)">
       <use xlink:href="#DejaVuSans-32"/>
       <use xlink:href="#DejaVuSans-35" x="63.623047"/>
       <use xlink:href="#DejaVuSans-2d" x="127.246094"/>
       <use xlink:href="#DejaVuSans-30" x="163.330078"/>
       <use xlink:href="#DejaVuSans-38" x="226.953125"/>
      </g>
     </g>
    </g>
    <g id="xtick_27">
     <g id="line2d_67">
      <path d="M 886.037426 351.72 
L 886.037426 46.8 
" clip-path="url(#p0e1c44df10)" style="fill: none; stroke: #e8ecf0; stroke-width: 0.8; stroke-linecap: square"/>
     </g>
     <g id="line2d_68">
      <g>
       <use xlink:href="#m39b1843822" x="886.037426" y="351.72" style="stroke: #000000; stroke-width: 0.8"/>
      </g>
     </g>
     <g id="text_43">
      <!-- 25-09 -->
      <g transform="translate(868.423396 379.455906) rotate(-45) scale(0.08 -0.08)">
       <use xlink:href="#DejaVuSans-32"/>
       <use xlink:href="#DejaVuSans-35" x="63.623047"/>
       <use xlink:href="#DejaVuSans-2d" x="127.246094"/>
       <use xlink:href="#DejaVuSans-30" x="163.330078"/>
       <use xlink:href="#DejaVuSans-39" x="226.953125"/>
      </g>
     </g>
    </g>
    <g id="xtick_28">
     <g id="line2d_69">
      <path d="M 899.070125 351.72 
L 899.070125 46.8 
" clip-path="url(#p0e1c44df10)" style="fill: none; stroke: #e8ecf0; stroke-width: 0.8; stroke-linecap: square"/>
     </g>
     <g id="line2d_70">
      <g>
       <use xlink:href="#m39b1843822" x="899.070125" y="351.72" style="stroke: #000000; stroke-width: 0.8"/>
      </g>
     </g>
     <g id="text_44">
      <!-- 25-10 -->
      <g transform="translate(881.456095 379.455906) rotate(-45) scale(0.08 -0.08)">
       <use xlink:href="#DejaVuSans-32"/>
       <use xlink:href="#DejaVuSans-35" x="63.623047"/>
       <use xlink:href="#DejaVuSans-2d" x="127.246094"/>
       <use xlink:href="#DejaVuSans-31" x="163.330078"/>
       <use xlink:href="#DejaVuSans-30" x="226.953125"/>
      </g>
     </g>
    </g>
    <g id="xtick_29">
     <g id="line2d_71">
      <path d="M 912.102823 351.72 
L 912.102823 46.8 
" clip-path="url(#p0e1c44df10)" style="fill: none; stroke: #e8ecf0; stroke-width: 0.8; stroke-linecap: square"/>
     </g>
     <g id="line2d_72">
      <g>
       <use xlink:href="#m39b1843822" x="912.102823" y="351.72" style="stroke: #000000; stroke-width: 0.8"/>
      </g>
     </g>
     <g id="text_45">
      <!-- 25-11 -->
      <g transform="translate(894.488793 379.455906) rotate(-45) scale(0.08 -0.08)">
       <use xlink:href="#DejaVuSans-32"/>
       <use xlink:href="#DejaVuSans-35" x="63.623047"/>
       <use xlink:href="#DejaVuSans-2d" x="127.246094"/>
       <use xlink:href="#DejaVuSans-31" x="163.330078"/>
       <use xlink:href="#DejaVuSans-31" x="226.953125"/>
      </g>
     </g>
    </g>
    <g id="xtick_30">
     <g id="line2d_73">
      <path d="M 925.135522 351.72 
L 925.135522 46.8 
" clip-path="url(#p0e1c44df10)" style="fill: none; stroke: #e8ecf0; stroke-width: 0.8; stroke-linecap: square"/>
     </g>
     <g id="line2d_74">
      <g>
       <use xlink:href="#m39b1843822" x="925.135522" y="351.72" style="stroke: #000000; stroke-width: 0.8"/>
      </g>
     </g>
     <g id="text_46">
      <!-- 25-12 -->
      <g transform="translate(907.521492 379.455906) rotate(-45) scale(0.08 -0.08)">
       <use xlink:href="#DejaVuSans-32"/>
       <use xlink:href="#DejaVuSans-35" x="63.623047"/>
       <use xlink:href="#DejaVuSans-2d" x="127.246094"/>
       <use xlink:href="#DejaVuSans-31" x="163.330078"/>
       <use xlink:href="#DejaVuSans-32" x="226.953125"/>
      </g>
     </g>
    </g>
   </g>
   <g id="matplotlib.axis_4">
    <g id="ytick_8">
     <g id="line2d_75">
      <path d="M 610.395852 332.316 
L 940.123125 332.316 
" clip-path="url(#p0e1c44df10)" style="fill: none; stroke: #e8ecf0; stroke-width: 0.8; stroke-linecap: square"/>
     </g>
     <g id="line2d_76">
      <g>
       <use xlink:href="#m7bf96e8b42" x="610.395852" y="332.316" style="stroke: #000000; stroke-width: 0.8"/>
      </g>
     </g>
     <g id="text_47">
      <!-- 30 -->
      <g transform="translate(589.398352 336.495141) scale(0.11 -0.11)">
       <use xlink:href="#DejaVuSans-33"/>
       <use xlink:href="#DejaVuSans-30" x="63.623047"/>
      </g>
     </g>
    </g>
    <g id="ytick_9">
     <g id="line2d_77">
      <path d="M 610.395852 276.876 
L 940.123125 276.876 
" clip-path="url(#p0e1c44df10)" style="fill: none; stroke: #e8ecf0; stroke-width: 0.8; stroke-linecap: square"/>
     </g>
     <g id="line2d_78">
      <g>
       <use xlink:href="#m7bf96e8b42" x="610.395852" y="276.876" style="stroke: #000000; stroke-width: 0.8"/>
      </g>
     </g>
     <g id="text_48">
      <!-- 40 -->
      <g transform="translate(589.398352 281.055141) scale(0.11 -0.11)">
       <use xlink:href="#DejaVuSans-34"/>
       <use xlink:href="#DejaVuSans-30" x="63.623047"/>
      </g>
     </g>
    </g>
    <g id="ytick_10">
     <g id="line2d_79">
      <path d="M 610.395852 221.436 
L 940.123125 221.436 
" clip-path="url(#p0e1c44df10)" style="fill: none; stroke: #e8ecf0; stroke-width: 0.8; stroke-linecap: square"/>
     </g>
     <g id="line2d_80">
      <g>
       <use xlink:href="#m7bf96e8b42" x="610.395852" y="221.436" style="stroke: #000000; stroke-width: 0.8"/>
      </g>
     </g>
     <g id="text_49">
      <!-- 50 -->
      <g transform="translate(589.398352 225.615141) scale(0.11 -0.11)">
       <use xlink:href="#DejaVuSans-35"/>
       <use xlink:href="#DejaVuSans-30" x="63.623047"/>
      </g>
     </g>
    </g>
    <g id="ytick_11">
     <g id="line2d_81">
      <path d="M 610.395852 165.996 
L 940.123125 165.996 
" clip-path="url(#p0e1c44df10)" style="fill: none; stroke: #e8ecf0; stroke-width: 0.8; stroke-linecap: square"/>
     </g>
     <g id="line2d_82">
      <g>
       <use xlink:href="#m7bf96e8b42" x="610.395852" y="165.996" style="stroke: #000000; stroke-width: 0.8"/>
      </g>
     </g>
     <g id="text_50">
      <!-- 60 -->
      <g transform="translate(589.398352 170.175141) scale(0.11 -0.11)">
       <use xlink:href="#DejaVuSans-36"/>
       <use xlink:href="#DejaVuSans-30" x="63.623047"/>
      </g>
     </g>
    </g>
    <g id="ytick_12">
     <g id="line2d_83">
      <path d="M 610.395852 110.556 
L 940.123125 110.556 
" clip-path="url(#p0e1c44df10)" style="fill: none; stroke: #e8ecf0; stroke-width: 0.8; stroke-linecap: square"/>
     </g>
     <g id="line2d_84">
      <g>
       <use xlink:href="#m7bf96e8b42" x="610.395852" y="110.556" style="stroke: #000000; stroke-width: 0.8"/>
      </g>
     </g>
     <g id="text_51">
      <!-- 70 -->
      <g transform="translate(589.398352 114.735141) scale(0.11 -0.11)">
       <use xlink:href="#DejaVuSans-37"/>
       <use xlink:href="#DejaVuSans-30" x="63.623047"/>
      </g>
     </g>
    </g>
    <g id="ytick_13">
     <g id="line2d_85">
      <path d="M 610.395852 55.116 
L 940.123125 55.116 
" clip-path="url(#p0e1c44df10)" style="fill: none; stroke: #e8ecf0; stroke-width: 0.8; stroke-linecap: square"/>
     </g>
     <g id="line2d_86">
      <g>
       <use xlink:href="#m7bf96e8b42" x="610.395852" y="55.116" style="stroke: #000000; stroke-width: 0.8"/>
      </g>
     </g>
     <g id="text_52">
      <!-- 80 -->
      <g transform="translate(589.398352 59.295141) scale(0.11 -0.11)">
       <use xlink:href="#DejaVuSans-38"/>
       <use xlink:href="#DejaVuSans-30" x="63.623047"/>
      </g>
     </g>
    </g>
    <g id="text_53">
     <!-- Рейсов в месяц -->
     <g transform="translate(583.110696 243.512656) rotate(-90) scale(0.11 -0.11)">
      <use xlink:href="#DejaVuSans-420"/>
      <use xlink:href="#DejaVuSans-435" x="60.302734"/>
      <use xlink:href="#DejaVuSans-439" x="121.826172"/>
      <use xlink:href="#DejaVuSans-441" x="186.816406"/>
      <use xlink:href="#DejaVuSans-43e" x="241.796875"/>
      <use xlink:href="#DejaVuSans-432" x="302.978516"/>
      <use xlink:href="#DejaVuSans-20" x="361.914062"/>
      <use xlink:href="#DejaVuSans-432" x="393.701172"/>
      <use xlink:href="#DejaVuSans-20" x="452.636719"/>
      <use xlink:href="#DejaVuSans-43c" x="484.423828"/>
      <use xlink:href="#DejaVuSans-435" x="559.863281"/>
      <use xlink:href="#DejaVuSans-441" x="621.386719"/>
      <use xlink:href="#DejaVuSans-44f" x="676.367188"/>
      <use xlink:href="#DejaVuSans-446" x="736.523438"/>
     </g>
    </g>
   </g>
   <g id="line2d_87">
    <path d="M 625.383456 276.876 
L 638.416154 105.012 
L 651.448853 221.436 
L 664.481551 337.86 
L 677.51425 88.38 
L 690.546948 232.524 
L 703.579647 105.012 
L 716.612345 60.66 
L 729.645044 199.26 
L 742.677742 332.316 
L 755.710441 127.188 
L 768.743139 182.628 
L 781.775838 210.348 
L 794.808536 249.156 
L 807.841235 199.26 
L 820.873933 315.684 
L 833.906632 271.332 
L 846.939331 132.732 
L 859.972029 210.348 
L 873.004728 71.748 
L 886.037426 299.052 
L 899.070125 160.452 
L 912.102823 238.068 
L 925.135522 77.292 
" clip-path="url(#p0e1c44df10)" style="fill: none; stroke: #1f3a5f; stroke-width: 1.8; stroke-linecap: square"/>
    <defs>
     <path id="m5942465aa5" d="M 0 3 
C 0.795609 3 1.55874 2.683901 2.12132 2.12132 
C 2.683901 1.55874 3 0.795609 3 0 
C 3 -0.795609 2.683901 -1.55874 2.12132 -2.12132 
C 1.55874 -2.683901 0.795609 -3 0 -3 
C -0.795609 -3 -1.55874 -2.683901 -2.12132 -2.12132 
C -2.683901 -1.55874 -3 -0.795609 -3 0 
C -3 0.795609 -2.683901 1.55874 -2.12132 2.12132 
C -1.55874 2.683901 -0.795609 3 0 3 
z
" style="stroke: #1f3a5f"/>
    </defs>
    <g clip-path="url(#p0e1c44df10)">
     <use xlink:href="#m5942465aa5" x="625.383456" y="276.876" style="fill: #1f3a5f; stroke: #1f3a5f"/>
     <use xlink:href="#m5942465aa5" x="638.416154" y="105.012" style="fill: #1f3a5f; stroke: #1f3a5f"/>
     <use xlink:href="#m5942465aa5" x="651.448853" y="221.436" style="fill: #1f3a5f; stroke: #1f3a5f"/>
     <use xlink:href="#m5942465aa5" x="664.481551" y="337.86" style="fill: #1f3a5f; stroke: #1f3a5f"/>
     <use xlink:href="#m5942465aa5" x="677.51425" y="88.38" style="fill: #1f3a5f; stroke: #1f3a5f"/>
     <use xlink:href="#m5942465aa5" x="690.546948" y="232.524" style="fill: #1f3a5f; stroke: #1f3a5f"/>
     <use xlink:href="#m5942465aa5" x="703.579647" y="105.012" style="fill: #1f3a5f; stroke: #1f3a5f"/>
     <use xlink:href="#m5942465aa5" x="716.612345" y="60.66" style="fill: #1f3a5f; stroke: #1f3a5f"/>
     <use xlink:href="#m5942465aa5" x="729.645044" y="199.26" style="fill: #1f3a5f; stroke: #1f3a5f"/>
     <use xlink:href="#m5942465aa5" x="742.677742" y="332.316" style="fill: #1f3a5f; stroke: #1f3a5f"/>
     <use xlink:href="#m5942465aa5" x="755.710441" y="127.188" style="fill: #1f3a5f; stroke: #1f3a5f"/>
     <use xlink:href="#m5942465aa5" x="768.743139" y="182.628" style="fill: #1f3a5f; stroke: #1f3a5f"/>
     <use xlink:href="#m5942465aa5" x="781.775838" y="210.348" style="fill: #1f3a5f; stroke: #1f3a5f"/>
     <use xlink:href="#m5942465aa5" x="794.808536" y="249.156" style="fill: #1f3a5f; stroke: #1f3a5f"/>
     <use xlink:href="#m5942465aa5" x="807.841235" y="199.26" style="fill: #1f3a5f; stroke: #1f3a5f"/>
     <use xlink:href="#m5942465aa5" x="820.873933" y="315.684" style="fill: #1f3a5f; stroke: #1f3a5f"/>
     <use xlink:href="#m5942465aa5" x="833.906632" y="271.332" style="fill: #1f3a5f; stroke: #1f3a5f"/>
     <use xlink:href="#m5942465aa5" x="846.939331" y="132.732" style="fill: #1f3a5f; stroke: #1f3a5f"/>
     <use xlink:href="#m5942465aa5" x="859.972029" y="210.348" style="fill: #1f3a5f; stroke: #1f3a5f"/>
     <use xlink:href="#m5942465aa5" x="873.004728" y="71.748" style="fill: #1f3a5f; stroke: #1f3a5f"/>
     <use xlink:href="#m5942465aa5" x="886.037426" y="299.052" style="fill: #1f3a5f; stroke: #1f3a5f"/>
     <use xlink:href="#m5942465aa5" x="899.070125" y="160.452" style="fill: #1f3a5f; stroke: #1f3a5f"/>
     <use xlink:href="#m5942465aa5" x="912.102823" y="238.068" style="fill: #1f3a5f; stroke: #1f3a5f"/>
     <use xlink:href="#m5942465aa5" x="925.135522" y="77.292" style="fill: #1f3a5f; stroke: #1f3a5f"/>
    </g>
   </g>
   <g id="patch_15">
    <path d="M 610.395852 351.72 
L 610.395852 46.8 
" style="fill: none; stroke: #cfd6dd; stroke-width: 0.8; stroke-linejoin: miter; stroke-linecap: square"/>
   </g>
   <g id="patch_16">
    <path d="M 940.123125 351.72 
L 940.123125 46.8 
" style="fill: none; stroke: #cfd6dd; stroke-width: 0.8; stroke-linejoin: miter; stroke-linecap: square"/>
   </g>
   <g id="patch_17">
    <path d="M 610.395852 351.72 
L 940.123125 351.72 
" style="fill: none; stroke: #cfd6dd; stroke-width: 0.8; stroke-linejoin: miter; stroke-linecap: square"/>
   </g>
   <g id="patch_18">
    <path d="M 610.395852 46.8 
L 940.123125 46.8 
" style="fill: none; stroke: #cfd6dd; stroke-width: 0.8; stroke-linejoin: miter; stroke-linecap: square"/>
   </g>
   <g id="text_54">
    <!-- Задержки рейсов из-за IT по месяцам -->
    <g transform="translate(620.85152 40.8) scale(0.14 -0.14)">
     <defs>
      <path id="DejaVuSans-Bold-43a" d="M 538 3500 
L 1656 3500 
L 1656 2316 
L 2903 3500 
L 4128 3500 
L 2634 2078 
L 4250 0 
L 3094 0 
L 1972 1447 
L 1656 1147 
L 1656 0 
L 538 0 
L 538 3500 
z
" transform="scale(0.015625)"/>
      <path id="DejaVuSans-Bold-437" d="M 900 2181 
L 1413 2181 
Q 1872 2181 2039 2281 
Q 2206 2381 2206 2519 
Q 2206 2841 1469 2841 
Q 853 2841 472 2625 
L 472 3434 
Q 1041 3584 1713 3584 
Q 2500 3584 2862 3361 
Q 3225 3138 3225 2666 
Q 3225 2047 2541 1888 
Q 3313 1697 3313 994 
Q 3313 453 2888 181 
Q 2463 -91 1553 -91 
Q 875 -91 313 84 
L 313 947 
Q 1013 653 1428 653 
Q 1884 653 2089 776 
Q 2294 900 2294 1056 
Q 2294 1491 1394 1491 
L 900 1491 
L 900 2181 
z
" transform="scale(0.015625)"/>
      <path id="DejaVuSans-Bold-2d" d="M 347 2297 
L 2309 2297 
L 2309 1388 
L 347 1388 
L 347 2297 
z
" transform="scale(0.015625)"/>
      <path id="DejaVuSans-Bold-49" d="M 588 4666 
L 1791 4666 
L 1791 0 
L 588 0 
L 588 4666 
z
" transform="scale(0.015625)"/>
      <path id="DejaVuSans-Bold-54" d="M 31 4666 
L 4331 4666 
L 4331 3756 
L 2784 3756 
L 2784 0 
L 1581 0 
L 1581 3756 
L 31 3756 
L 31 4666 
z
" transform="scale(0.015625)"/>
      <path id="DejaVuSans-Bold-44f" d="M 1528 2394 
Q 1528 2169 1651 2069 
Q 1775 1969 2059 1969 
L 2463 1969 
L 2463 2816 
L 2059 2816 
Q 1775 2816 1651 2719 
Q 1528 2622 1528 2394 
z
M 197 0 
L 1113 1497 
Q 847 1650 650 1917 
Q 453 2184 453 2516 
Q 453 3013 789 3256 
Q 1125 3500 1878 3500 
L 3581 3500 
L 3581 0 
L 2463 0 
L 2463 1278 
L 2069 1278 
L 1288 0 
L 197 0 
z
" transform="scale(0.015625)"/>
      <path id="DejaVuSans-Bold-446" d="M 3666 -884 
L 3666 0 
L 538 0 
L 538 3500 
L 1656 3500 
L 1656 800 
L 2766 800 
L 2766 3500 
L 3884 3500 
L 3884 800 
L 4466 800 
L 4466 -884 
L 3666 -884 
z
" transform="scale(0.015625)"/>
     </defs>
     <use xlink:href="#DejaVuSans-Bold-417"/>
     <use xlink:href="#DejaVuSans-Bold-430" x="71.044922"/>
     <use xlink:href="#DejaVuSans-Bold-434" x="138.525391"/>
     <use xlink:href="#DejaVuSans-Bold-435" x="219.287109"/>
     <use xlink:href="#DejaVuSans-Bold-440" x="287.109375"/>
     <use xlink:href="#DejaVuSans-Bold-436" x="358.691406"/>
     <use xlink:href="#DejaVuSans-Bold-43a" x="458.203125"/>
     <use xlink:href="#DejaVuSans-Bold-438" x="526.074219"/>
     <use xlink:href="#DejaVuSans-Bold-20" x="596.142578"/>
     <use xlink:href="#DejaVuSans-Bold-440" x="630.957031"/>
     <use xlink:href="#DejaVuSans-Bold-435" x="702.539062"/>
     <use xlink:href="#DejaVuSans-Bold-439" x="770.361328"/>
     <use xlink:href="#DejaVuSans-Bold-441" x="840.429688"/>
     <use xlink:href="#DejaVuSans-Bold-43e" x="899.707031"/>
     <use xlink:href="#DejaVuSans-Bold-432" x="968.408203"/>
     <use xlink:href="#DejaVuSans-Bold-20" x="1031.689453"/>
     <use xlink:href="#DejaVuSans-Bold-438" x="1066.503906"/>
     <use xlink:href="#DejaVuSans-Bold-437" x="1136.572266"/>
     <use xlink:href="#DejaVuSans-Bold-2d" x="1194.677734"/>
     <use xlink:href="#DejaVuSans-Bold-437" x="1236.181641"/>
     <use xlink:href="#DejaVuSans-Bold-430" x="1294.287109"/>
     <use xlink:href="#DejaVuSans-Bold-20" x="1361.767578"/>
     <use xlink:href="#DejaVuSans-Bold-49" x="1396.582031"/>
     <use xlink:href="#DejaVuSans-Bold-54" x="1433.789062"/>
     <use xlink:href="#DejaVuSans-Bold-20" x="1502.001953"/>
     <use xlink:href="#DejaVuSans-Bold-43f" x="1536.816406"/>
     <use xlink:href="#DejaVuSans-Bold-43e" x="1605.908203"/>
     <use xlink:href="#DejaVuSans-Bold-20" x="1674.609375"/>
     <use xlink:href="#DejaVuSans-Bold-43c" x="1709.423828"/>
     <use xlink:href="#DejaVuSans-Bold-435" x="1791.162109"/>
     <use xlink:href="#DejaVuSans-Bold-441" x="1858.984375"/>
     <use xlink:href="#DejaVuSans-Bold-44f" x="1918.261719"/>
     <use xlink:href="#DejaVuSans-Bold-446" x="1982.470703"/>
     <use xlink:href="#DejaVuSans-Bold-430" x="2056.591797"/>
     <use xlink:href="#DejaVuSans-Bold-43c" x="2124.072266"/>
    </g>
   </g>
  </g>
  <g id="text_55">
   <!-- Операционное влияние критических IT-инцидентов -->
   <g transform="translate(341.495391 18.597656) scale(0.15 -0.15)">
    <defs>
     <path id="DejaVuSans-Bold-41e" d="M 2719 3878 
Q 2169 3878 1866 3472 
Q 1563 3066 1563 2328 
Q 1563 1594 1866 1187 
Q 2169 781 2719 781 
Q 3272 781 3575 1187 
Q 3878 1594 3878 2328 
Q 3878 3066 3575 3472 
Q 3272 3878 2719 3878 
z
M 2719 4750 
Q 3844 4750 4481 4106 
Q 5119 3463 5119 2328 
Q 5119 1197 4481 553 
Q 3844 -91 2719 -91 
Q 1597 -91 958 553 
Q 319 1197 319 2328 
Q 319 3463 958 4106 
Q 1597 4750 2719 4750 
z
" transform="scale(0.015625)"/>
     <path id="DejaVuSans-Bold-43b" d="M 353 0 
L 353 800 
Q 906 913 1031 1278 
Q 1125 1556 1125 2928 
L 1125 3500 
L 4150 3500 
L 4150 0 
L 3031 0 
L 3031 2700 
L 2244 2700 
L 2244 2584 
Q 2244 1213 2028 813 
Q 1591 0 353 0 
z
" transform="scale(0.015625)"/>
     <path id="DejaVuSans-Bold-447" d="M 2550 0 
L 2550 1353 
L 1400 1353 
Q 931 1353 672 1629 
Q 413 1906 413 2450 
L 413 3500 
L 1531 3500 
L 1531 2878 
Q 1531 2322 1622 2183 
Q 1713 2044 1950 2044 
L 2550 2044 
L 2550 3500 
L 3669 3500 
L 3669 0 
L 2550 0 
z
" transform="scale(0.015625)"/>
     <path id="DejaVuSans-Bold-445" d="M 1422 1791 
L 159 3500 
L 1344 3500 
L 2059 2463 
L 2784 3500 
L 3969 3500 
L 2706 1797 
L 4031 0 
L 2847 0 
L 2059 1106 
L 1281 0 
L 97 0 
L 1422 1791 
z
" transform="scale(0.015625)"/>
    </defs>
    <use xlink:href="#DejaVuSans-Bold-41e"/>
    <use xlink:href="#DejaVuSans-Bold-43f" x="85.009766"/>
    <use xlink:href="#DejaVuSans-Bold-435" x="154.101562"/>
    <use xlink:href="#DejaVuSans-Bold-440" x="221.923828"/>
    <use xlink:href="#DejaVuSans-Bold-430" x="293.505859"/>
    <use xlink:href="#DejaVuSans-Bold-446" x="360.986328"/>
    <use xlink:href="#DejaVuSans-Bold-438" x="435.107422"/>
    <use xlink:href="#DejaVuSans-Bold-43e" x="505.175781"/>
    <use xlink:href="#DejaVuSans-Bold-43d" x="573.876953"/>
    <use xlink:href="#DejaVuSans-Bold-43d" x="642.96875"/>
    <use xlink:href="#DejaVuSans-Bold-43e" x="712.060547"/>
    <use xlink:href="#DejaVuSans-Bold-435" x="780.761719"/>
    <use xlink:href="#DejaVuSans-Bold-20" x="848.583984"/>
    <use xlink:href="#DejaVuSans-Bold-432" x="883.398438"/>
    <use xlink:href="#DejaVuSans-Bold-43b" x="946.679688"/>
    <use xlink:href="#DejaVuSans-Bold-438" x="1019.921875"/>
    <use xlink:href="#DejaVuSans-Bold-44f" x="1089.990234"/>
    <use xlink:href="#DejaVuSans-Bold-43d" x="1154.199219"/>
    <use xlink:href="#DejaVuSans-Bold-438" x="1223.291016"/>
    <use xlink:href="#DejaVuSans-Bold-435" x="1293.359375"/>
    <use xlink:href="#DejaVuSans-Bold-20" x="1361.181641"/>
    <use xlink:href="#DejaVuSans-Bold-43a" x="1395.996094"/>
    <use xlink:href="#DejaVuSans-Bold-440" x="1463.867188"/>
    <use xlink:href="#DejaVuSans-Bold-438" x="1535.449219"/>
    <use xlink:href="#DejaVuSans-Bold-442" x="1605.517578"/>
    <use xlink:href="#DejaVuSans-Bold-438" x="1663.476562"/>
    <use xlink:href="#DejaVuSans-Bold-447" x="1733.544922"/>
    <use xlink:href="#DejaVuSans-Bold-435" x="1802.197266"/>
    <use xlink:href="#DejaVuSans-Bold-441" x="1870.019531"/>
    <use xlink:href="#DejaVuSans-Bold-43a" x="1929.296875"/>
    <use xlink:href="#DejaVuSans-Bold-438" x="1997.167969"/>
    <use xlink:href="#DejaVuSans-Bold-445" x="2067.236328"/>
    <use xlink:href="#DejaVuSans-Bold-20" x="2131.738281"/>
    <use xlink:href="#DejaVuSans-Bold-49" x="2166.552734"/>
    <use xlink:href="#DejaVuSans-Bold-54" x="2203.759766"/>
    <use xlink:href="#DejaVuSans-Bold-2d" x="2257.222656"/>
    <use xlink:href="#DejaVuSans-Bold-438" x="2298.726562"/>
    <use xlink:href="#DejaVuSans-Bold-43d" x="2368.794922"/>
    <use xlink:href="#DejaVuSans-Bold-446" x="2437.886719"/>
    <use xlink:href="#DejaVuSans-Bold-438" x="2512.007812"/>
    <use xlink:href="#DejaVuSans-Bold-434" x="2582.076172"/>
    <use xlink:href="#DejaVuSans-Bold-435" x="2662.837891"/>
    <use xlink:href="#DejaVuSans-Bold-43d" x="2730.660156"/>
    <use xlink:href="#DejaVuSans-Bold-442" x="2799.751953"/>
    <use xlink:href="#DejaVuSans-Bold-43e" x="2857.710938"/>
    <use xlink:href="#DejaVuSans-Bold-432" x="2926.412109"/>
   </g>
  </g>
 </g>
 <defs>
  <clipPath id="p33596f662f">
   <rect x="214.723125" y="46.8" width="329.727273" height="304.92"/>
  </clipPath>
  <clipPath id="p0e1c44df10">
   <rect x="610.395852" y="46.8" width="329.727273" height="304.92"/>
  </clipPath>
 </defs>
</svg>
